<mxfile host="app.diagrams.net" modified="2023-06-26T14:10:45.714Z" agent="Mozilla/5.0 (X11; Linux x86_64) AppleWebKit/537.36 (KHTML, like Gecko) Chrome/108.0.0.0 Safari/537.36" etag="wNe1lI6UbZH7jdVXRrr2" version="21.5.0" type="github">
  <diagram name="Page-1" id="QnOQ3EfohqNEuiCT_HcW">
    <mxGraphModel dx="1206" dy="495" grid="1" gridSize="10" guides="1" tooltips="1" connect="1" arrows="1" fold="1" page="0" pageScale="1" pageWidth="850" pageHeight="1100" math="0" shadow="0">
      <root>
        <mxCell id="0" />
        <mxCell id="1" parent="0" />
        <mxCell id="P99eA3lHoIs5ANnfDtM8-1" value="" style="rounded=0;whiteSpace=wrap;html=1;" vertex="1" parent="1">
          <mxGeometry x="80" y="280" width="450" height="340" as="geometry" />
        </mxCell>
        <mxCell id="P99eA3lHoIs5ANnfDtM8-2" value="" style="shape=image;verticalLabelPosition=bottom;labelBackgroundColor=default;verticalAlign=top;aspect=fixed;imageAspect=0;image=data:image/png,iVBORw0KGgoAAAANSUhEUgAAAOEAAADhCAMAAAAJbSJIAAAAh1BMVEV1nD7///9LYSxtly7E0bTP3MB3nz9OZi43UgD19vWVsm9ymjhtkjtIXStGXSV4h2U+VxbEyrxplCVdejOww5nG1La8zqZBWRyrtKC8wrX3+fTu8uhkkRpwmzFCXBgmRgCUsW9gjwpTcyEuTADg49za5M5ljCtfiCA6UhTR1cpwgFzEzbqtup6UHS44AAACp0lEQVR4nO3d21JaQRRFUcgRQyQXIOIN8R5j1P//vryY1Nm8LXr10d3M+QGr93iySgsZjVtv9N4HVA9h/hDm7024nrTXOggnl11rXU6isBu1VocwfQjzhzB/CPO3JTxoUHiAMHsI84cwfwjzhzB/CPOHMH8I84cwfwjzhzB/CPOHMH8I84cwfwjzhzB/CPOHMH8I84cwfwjzty3cHLbWJgoXV59b62oRhfNPrTVHmD6E+UOYv/0TXk9b6zoKx1/aaxyF7YYwfwjz9yb8dVS7m6P+swO+9+/zh8tZ7ZZ94QDvdVvC+r+n6YJwuPcQ+l9E6H4Pof9FhO73hhNu3le4qv9i+Ik/wN9JtoQDvIjQHUJ/CN0h9IfQHUJ/CN0h9IfQHUJ/CN0h9IfQHUJ/CN0h9IfQHUJ/CN0h9IfQHUJ/CN0h9IfQHUJ/CN0h9IfQ3f4JH7/W7ncQ1n/vMQoXT99qN+8LB3jvdEtY/zOkUVj/PYT+ELpD6A+hu23h9HvtpkFY/715FP55/lG7575wwPf25nPADYcwf/sjvCgqTH6QpYsonNwud+/2pH/Wqmhq1Z86KZoyfuNxF4VFU1FYNIVQ2UIoTCEUphAqWwiFKYTCVBQW/R1hdlxJeDwrmTL+L2iEylkIhSmEQgiVsxAKUwiFECpnIRSmEAohVM5CKEwhFEKonIVQmEIohFA5C6EwhVAIoXIWQmEKoRBC5SyEwhRCIYTKWQiFKYRCCJWzEApTCIUQKmchFKb2Trg53L1NFBZNRWHRVBS+3P3cvbvX/lllUy/9qVfH1P//OFDyac2z/lnnJR8PfTrvT52dlkwZv7XaKJz7hM7v5UaonIVQmEIohFA5q57wfr5791FYNBWFRVNRuF6U9NA/6+GjTK2DsOEQ5g9h/toX/gWIpSTYqgq+lAAAAABJRU5ErkJggg==;" vertex="1" parent="1">
          <mxGeometry x="270" y="300" width="40" height="40" as="geometry" />
        </mxCell>
        <mxCell id="P99eA3lHoIs5ANnfDtM8-3" value="HelloCdkStack" style="text;html=1;strokeColor=none;fillColor=none;align=center;verticalAlign=middle;whiteSpace=wrap;rounded=0;" vertex="1" parent="1">
          <mxGeometry x="260" y="280" width="60" height="30" as="geometry" />
        </mxCell>
        <mxCell id="P99eA3lHoIs5ANnfDtM8-7" value="" style="rounded=0;whiteSpace=wrap;html=1;" vertex="1" parent="1">
          <mxGeometry x="110" y="390" width="390" height="190" as="geometry" />
        </mxCell>
        <mxCell id="P99eA3lHoIs5ANnfDtM8-14" value="Amazon IAM" style="text;html=1;strokeColor=none;fillColor=none;align=center;verticalAlign=middle;whiteSpace=wrap;rounded=0;" vertex="1" parent="1">
          <mxGeometry x="540" y="230" width="90" height="30" as="geometry" />
        </mxCell>
        <mxCell id="P99eA3lHoIs5ANnfDtM8-18" value="Construct" style="text;html=1;strokeColor=none;fillColor=none;align=center;verticalAlign=middle;whiteSpace=wrap;rounded=0;" vertex="1" parent="1">
          <mxGeometry x="120" y="390" width="60" height="30" as="geometry" />
        </mxCell>
        <mxCell id="P99eA3lHoIs5ANnfDtM8-20" value="Amazon S3" style="swimlane;whiteSpace=wrap;html=1;" vertex="1" parent="1">
          <mxGeometry x="120" y="420" width="160" height="150" as="geometry" />
        </mxCell>
        <mxCell id="P99eA3lHoIs5ANnfDtM8-9" value="" style="shape=image;verticalLabelPosition=bottom;labelBackgroundColor=default;verticalAlign=top;aspect=fixed;imageAspect=0;image=data:image/png,iVBORw0KGgoAAAANSUhEUgAABagAAAJYCAMAAACwz/H0AAAABGdBTUEAALGPC/xhBQAAAAFzUkdCAK7OHOkAAAKyUExURQAAAIowIt1RQZg0Jq07L4gvIeFRROBRQ99RQpk1KN5RQ583K5ApJYEzG4owIYsxIdFKO4owIo4yI4swIoswIuBRQd1SQoowIt5RQtxUP7JEPN1ZReBRQtxMO99RQo0zIttVQIwwIY0yI99TQ4owIoowIuBTRYswIdtTQYswIYovIeRUQuBOQ4swIoswIo4vIeBQQoowId9RQo8yI4svId9QQYswIt1RQeBRQt9RQeBTQZYuIIowIuBSQ+BQQoowIoowIoswJH0rIN5SQuBSQokwI+BRQtx2at9QP99QQow0IKFJPIsvIt9PQN9SQ+FPQr1vZZc2J99SQeBMPpc0J99PQd9TRI8xJa49L+k0KuiJgWskHKM7LLRDMcdIOpg0JvSvqK07LudcT5grH+c9M9ZOPsdIOfoxJ10eFlAZE3wrIK09MtyVjcp7cOmknIwxI+BSQ14fGPKwqeJTROFSQ4cvIYkwIoowIpc1J68/Md1RQt5RQuNTRFseF+VURIsxI1kdFo4yI9xQQYMtH+pWRo8yJOdURVccFt9RQ4swIuBQQvS0rfi3sZQ0J44vIfKxqlQbFIktH5IzJOhVRoMnGOBTQ7NAMthPQIcrHIAsH4UuIJo2KfW7tfSyq71ENmojG+BPQH8hEmUhGva1rt9NPu1XR/O2sPu7tWEgGKI6LE8ZE7hCM8FGON5HN28lHf6/udRNPp44Kqo8LsVHOaY7Le9XSN9LO+JPROJQQKw+MIQvJHopH3coHuNfUeuUi4gvI9FMPdxXSM1KPOyqo+FWSORoW3MnHsd3be6fl7pjV+6lndyTiuSakp1DNdCBd+p/dM9LPOJMPdpjVvCspeZ0aOyLgeFTQ8hIOuBJOfOpoaxYS6ZNQNmJgOmimrJdUZY8L8tKO/NZScpJOuJ5buONg4kwIq8cbt4AAADbdFJOUwDN+NTR/U7y/dxt9gcK393UT/nAuX8dVIQoBBnrJOQOffoa4MSMLucgNV8N7vfXdKRY6EGpZ7ND2ZGJScm6yPCe/f6O72f6/BSVKf3HVXLh/Ofitffw0+3YXundnVXuzd3toNOQXpM02ubP6NjV+P///////////////////////////////////////////////////////////////////////////////////////////////////////////////////v///////////////////////////prupGMAABWgSURBVHja7d33e1R1vsDxvXv3qtdFViSURRSkqKCggA0LKtZr2V3dcnvv7TkDmXmCGGbSSYAIJIRAQiCEXhWRroKo2LCs7qLX7t6b/+OekwQVCCHJZJKJ+3r9oL+Qc+RMnrcfvp8Z8r3vAQAAAAAAAAAAAAAAAAAAAAAAAAAAAAAAAAAAAAAAAAAAAAAAAAAAAAAAAAAAAAAAAAAAAAAAAAAAAAAAAAAAAAAAAAAAAAAAAAAAAAAAAAAAAAAAAAAAAAAAAAAAAAAAAAAAAAAAAAAAAAAAAAAAAAAAAAAAAAAAAAAAAAAAAAAAAAAAAAAAAAAAAAAAAAAAAAAAAAAAAAAAAAAAAAAAAAAAAAAAAAAAAAAAAAAAAAAAAAAAAAAAAAAAAAAAAAAAAAAAAAAAAAAAAAAA0Fmjpv3YQwDIXgOGjXvsl8Ov9CAAstSUnCDvD+fm3jvcVA2QjSaOC4Iw1N/PjdVcPv1qzwMgu4yYcnsQnAx1LEz1n1zqoQBkj1HDxt0dfDvUoZHDTdUAWeKiYYODk74JdSxmrQiQHabkBEG7oY6VX2utCNDnJg4OgrOFOlZTfvk9l3lGAH05Td8eBB2EOrTgcWtFgL4yati4K4JzhTo09VZrRYA+8O0VYsehjsWuHeKsGqC3DcsJgk6HOlYu1QC9a+LgIOhKqKO1ogMQgF4z5ZEg6GKoW9aK060VAXrBqEGDrwi6E+ow1VNvHeoBAmTWRYMGBx3pMNTRB8udVQNk1KCcIEgr1NaKAJk05VyZ7kSoW9aKPq0IkJFMPxIEPRBqa0WAjLiowxViF0Pd8mlFa0WAns100DmdDXW0VnQAAtBTBuUEQY+HOlZ+7WhrRYCeMOymIMhEqMNUXz7EAQhA2kZcFWQq1GGqb/SAAdI1YGAGQx37iQcMkHaof5TJUF/oAQMINYBQCzWAUAMg1ABCLdQAQg0g1EININQACDWAUAs1gFADINQAQi3UAEININRCDSDUAAg1gFALNYBQAwi1UAMINQBCDSDUQg0g1AAINYBQCzWAUAP0F4P+6vohN1/z3Qr1QxPH/9XooV5b4LuR6ZzDvyivOf9XP+9erLMw1A/dd9e4q4LE3y+45dZrvL5Avz+4uC1nUpD44wviURXPH3vHkJsfHNCfQz0qjPQ/XtVyq8QPwluNHf2gFxno15medtPdYdL+qC3UkQvuvWP0zZd1YRDNnlCPmTDxrsmXBKmDQVuoz49u9fhPrvZCA/3WtBtak/btULc4/44h5105oj+Fesy0++6afOqt2kIdK7/8J86qgf5p0A0nk3ZGqCMj7/inP7+yX4R6zG3X3TA5qDj9VidDHaspv2X0pV5voN+5LeebpLUb6tiCl16aOuMfLjxXrPs21KMGjc+ZfHe7t/o61NHv5Zbh1opAvzJi2k2TgnOFuuXYYH1s5C3XX3jlNVkY6gFjBo0fPHDSWW/17VCHqbZWBPqRAdNuuuKUpJ091JEny2PfH3v9jVdeOiJ7Qj3qstvGj7vzig5vdWqoQ2OdVQP9ZZq+4fSkdRzqk8N1GOubh2ZBqEdNCCfpu1PnvNUZoY6VX36hVAP9wPgzk9apULdu5a4ffd7QPgz1gAn3jX9k0lOdutWZoQ7d8mPfAUDWG9j9ULe17o57Hr20L0I94bobbr/zqU7fqt1Qxx71HQBkvT9IN9Sh+8fOmP5o25l1r4T6ognX3TT5ziDVlVu1H+rzfAcAvxehjsVeqrn/3hm3nhd9hHFyBkNd9s/fGzAmnKQ7eHOHUANCfTYLymOxC2bc+tcD8zIX6vx/ue+Gq4LuEWrg9z7UJ1tan8hYqOMXHGgOAqEGhDqdUMefnJPBUMeeEGpAqIUaQKiFGkCohRoQaqEGEGqhBhBqoQaEumOFpcHfnr+nJCnUAFkY6lRQWnXnnTP/4z//5m/u/2pPdW65UANkUahTQdWcqsTMv/y3eQVL/v0v//TA6iMbvtqQFGqALAl1YVVlcOjYsab5BbMiBVu3Fuws3bKtdk9JWVyoAfo01IWFhUFp6cw1a5rmzS+YN+tr85Zs3br52MH61bFkfjKZnyvUAH0Q6sKqqsK81MFjTU2bCwoKZp1uXsGSJQVNO2fu2l1blCwpScaFGqD3Qp0KSiur8uoOHmqKijxv3qyzmFcQzdlrDj63++jcPXtK8oUaoFdCXVhVWVo8c+aaeQVnLfQptY5m66bDB1Z/Wf3VnjKhBshwqEsrKw8+f2znrPnzO1Xpbx1aL1lzeMvyI3s2VOcKNSDUGQl1YagqOLRmTVPB/IIuVbqt1fO3bp2382Dl8qKyZNuCUagBoe6pUJeWlgap1MqdTU2zCroT6ZMKwsF6886Zlatri3JLSsryhRoQ6h4IdWWisipRd/DY5g73hl2IdXRq0jRz1/b3aks2LBdqQKjTDXV5/fM718xbUtADiT5twTjr+S3bn80TakCo0/zhtjVHl9ffPXNNwdYl8wt6sNMFs5rWrFlzqDQQakCo0wx1rGzPV9W1R7c/UX9w57z5BQUF6Z1/hF89b/Oanc+vLE4E0SdmhBoQ6rRDHcovK9mzIVn0zNHVW+5+vmnzrIL5S7q6U5zX0vfNTWuOHSpONAelVaWlhUFahBoQ6tMOq/OTZSVl+eVFz2x/tnLmzjWz5m/d2rmT65aDjs1NTTuPzazLSwWFYaLTbLRQA0J9Vidy8/OTybKyog+X1x8+tHPz1qjWHTQ6OioJx+idz688HL0PuycCLdSAUHdGbrJkw57yo6ufqzx4LKz1kjM/pxjN0fOiRB8qbu6Bgw6hBoS6G5LVG77aEz+ye9uW0kNN8+d/s2eM/h2dRq+syyutqur5Rgs1INRdGa2rN+wpidW+t/1A5co1m2dFpW7a+fzMukReYcYaLdSAUHe51mUlJcnY3NrfLf/TQysTeanoM+cZbLRQA0LdrbeF5EZrxosvSWW60EINCHU677i++JK8QKgBhFqoAaEWagChFmpAqIUaQKiFGkCohRoQaqEGEGqhBhBqoQaEWqgBhFqoAaEWagChFmqAbA51vOziSQmhBsjGUOcmy6pLNpSUXXxJ8cqVdXWJ5pRQA2RHqOP5YaKrq0/Uvvfh9m1PPPf3u6N/7ppTWldcl0g056WEGqAPQh2P5+bmt5n7zO+2bzuwZVd9ZWFzOEz/omzDhrJY0TNHvty9bflzuypTza3y8ipSKaEGyHCoW3/aVlkyN14+t6j2y2h2rp9TWRo0h+NzXcv43PzDubmxE61DdvLEk0W1zxyNMl4f/ZjbvOZEogeHbKEGhPqUQieT1dUl1cnyML3v7V69/NldlYWFQSpq7+HmcFg+eauWUH+T9bDryfzcWHl50ZEPV0fBDrOelyhuORWpEGpAqHsm1MloSZh8svbIl1Ggt8wpTURxbj3LOGM4/naovzkoiZ/IbYl2WW5tS+W37JpTVVG3cmVxXZ5QA0KddqijM+iwrfVVecWtBxwd1bO9UJ86mZdVl5SUPRmN5dHSsapCqAGhTi/U8fJdec3F4eybONyZ6fccof7mnSLhmL6hLF70bLNQA0KdZqifrCruwvqvc6E++d7r/ORyoQaEOu1Qz+nKRw27FOpYPPaEUANCLdQAQi3UAEIt1IBQCzWAUAs1gFALNSDUQg0g1EINCLVQAwi1UAMItVADQi3UAEIt1IBQCzWAUAs1gFALNSDUQg0g1EININRCDQi1UAMItVADQi3UAEIt1ABCLdSAUAs1gFALNSDUQg0g1EININRCDQi1UAMItVADCLVQA0It1ABCLdSAUAs1gFALNYBQCzUg1EININRCDQi1UAMItVADCLVQA0It1ABCLdQAQi3UgFALNYBQCzUg1EININRCDSDUQg0ItVADCLVQA0It1ABCLdQAQi3UgFALNYBQCzWAUAs1INRCDSDUQg0ItVADfHdDXVVXkaFQx/OTy4UaEOq0Q12fqFu5srgu0ZzquVDnJsuqSzaUJOceEGpAqNMNdey93auXH3huV2VhXUuu89IKdThEh4kuyS965svosluqKoQaEOr0Qh2LlVVv2FAWK3rm6Ifbtx3YUl/anEgcbm7Oy6tIpVKdC3U8Hj+Rm5ufn0yWxWvf271t+bNb6itLm4vD8Hd/oBZqQKhPOapoHYST8aLaZ458uHr5s7sqSwuDVF4Y7bDZFWcJdbwlzsn83Hh5eVHrl9XPqSpsrisOR/NEXipIi1ADQn2mE1Gwy5L58fK5RbVHt2974rn6OZWlQVjeMLzNUXlbQ91ywFFdnTzxZBj21l9XFYY973Ai0fbreoBQA0J99oPmeHSQ0aroyO/CSXnLrjlVQaJ4ZfHKH+aXlGyozp1beyQ6hA4n76C5VctZSdCDhBoQ6s4N2a3Dc6z2vd2rtx14rv6H7x3dHpW7vjTx9ZidGUINCHWXDrFb3m8XTtIX/yJIdP7dfEINCHVvhfrkm++qL55Ulxf0CqEGhLo78i++pJc6LdSAUAs1gFALNSDUQg0g1EININRCDQi1UAMItVADCLVQA0It1ABCLdSAUAs1gFALNYBQCzUg1N2wYEFjY+P+i69YsXTp0ooKoQbIplAvaFy/d29jzSuvvPruX/zs47crSytWLFu2YmmFUAP0fagXrN+7Y8f63BdeePXd377+wezFCxtmf/DZp699/vDblXnL1may1kINCHWnGv3RKy+8+pt3X3x98caFCxsWRxoaGtatW7Tozbdee+Pjh79YujaqtVAD9Haoo0iHjf7Nu7998c2GVas2Llw8+zQLF216etPLb73z2huffLEiE6O1UANC3f7GcEFj4/r161959Te/ffH1/1m8Kox0w+yzaVi36emnF718/K13fvbx23krojVjXo/tGYUaEOrTE71+/d71C2peaTmNfvODxRtXbWxnkG6n1tFove6Dz45HJ9eVpcHSFT0zXgs1INTfaFy/d8fexldeeCE6jY42hmGiGzrR6K8tbli3aNGiaM/41mtvfPL2F8GKtcuWpVlroQaEulXN/h071kcbw+g0+uTGcHa3LG5oWLhw3bpFL0dHIQ9/EaxduyxPqAGhTjfUC154NzqNXrhqYweH0V0TjtdPP/3B8U/f+dknVRVCDQh1eqE+UfTw5+98tmjTomiU7qFQz168uGHhqlUvH3/3/QPNQg0Idbqhfmrt0i/e/vyd4x+Eg/C6hrRj3bBw48LZsz/79IH3X6rdu3+5UANCnXao5ySi92kUlr79xjvH32zYtGlRQxpnHqtWLX75zf974P1X5q7fu35/PPaEUANC3QOhDi9Rkbd06dIVS8NYv/Xmoqc3revGYL1w1aqNL7/+4gPvz13f2Ni4YEF4caEGhLrHQt1m6bK1T33yxmtv/c/TT3dpsF68LjqS/r//fb92x68bF3x9caEGhLqnQ93a6rVzPvn8tRdnd27BGC0OFy0+/ulv3n9px45f7z/l4kINCHUGQh2dg6xYtnZF/dsfv/biB4s7WjCGiV4YlvyzTx949aXaHR/9+oz/CKEGhDozoY40r1i24qmqLz5/5/ibszeFs3V7i8ONs19+vW1xeNooLdSAUGc81CcXjEu/XjBuXHzKkXTr4jDW2Li+dXEo1AC9HuqTh9Yr1i59uG3BuLjt7R0vH//t/75f+9G3F4dCDdBXoQ7lLVu7tuqTz3/2X3+3adHGhX/3F+0tDoUaoA9DHVmxbG3xYw9//N8PvPr4L3d8dI5RWqgBoe79ULe+G2TZ337/o72Nnb24UANC3buhjg5B/vD7uZ2/uFADQi3UAEIt1ABCLdSAUAs1gFALNUCmQj03o6H2o7gAoU4v1PGXXprxiwyG+oIfDEwJNSDU3Q71BTPu+fN/HTOwImOhjiUvHDPtupuuqhBqQKi7Gur7750x/bzLHowuODDIXKjjN4Y3GDBmQhjrSUFKqAGh7ty58f2Pz5j+6NARbde76EcZDHXswra7jBgVxnrynUGhUAPffT9KJ9QLYmN/fs+jQ799vYsG9kaoW2s97bobbr8zrVDXCDWQ/QblVHQr1DXx8luuH33e1adfrxdD3XK7afeNHzwp1b1Q14wcfqnvACD7jRg0uKJroa4JR+mx119489D2LtfLoY6MmjBl/LhJXQ/1vUN+7OUH+odRgwbf3YVQn//T62+88tIRZ7lYH4S65ffw0G3jH7nzii6Eeurwq730QP8xYNgjqU6FeuQtYaSv6ehSfRTqlt/FmEHjxw2clEqdO9Q1l0936AH0NxPHnSvUI2eEkT7ndfow1C3CWOdMTj3VYahPPD7dNA30R1Nyzhbq8vKRd9zTiUhnQ6hbY33dDZMPHnyq/VCfmDr8Mq820D+NGDS4vVDf+/Mh5105orMXyYZQt8T6tuvumlzRTqjPH3Kllxrov0YNG5z6OtTljbH7771jyM2XXdOVS2RLqFtiPWHiXT+64pRQjzRNA/3dRcMeuTvxWPS3K/1y7B2jb35wQJcvkEWhjv6UMOqhiXdNvir830/iz2K5U6cP9RID3wETb3/s/l/9fMjN13Trq7Ms1K0euu+ucVf92dg/sUIEvituO++abn9tVoY6MuGvHXoAZHWoARBqAKEWagChBhBqoQYQagCEGkCohRpAqAGEWqgBhBoAoQYQaqEGEGoAhBpAqIUaQKgBhFqoAYQaAKEGEGqhBhBqAKEWagChBkCoAYRaqAGEGgChBuhPob4qk6H+iQcMkK4BmQz1/hs9YIC0DbspU6He//jooZ4vQA+47aZUJkI9cvRlni1Az7hoUE6Ph3qqTAP0bKoHX9FzoY7vv3z4pR4qQA8bNi7VQ6HeP/aeBz1PgAyYktMDoa7Z99PhV3uWABkyKCeVZqjj1zqbBsikAYMGpxHquHd6AGRex2vFjkId32eFCNA7hj3SnVDvGztdpgF6y1nXimcLtRUiQK9P1TldCfU+K0SAXtf+WrG9UEcrxB97YAC9r7214pmhju+bOtxfvQTQV85YK54R6n2PWyEC9KmJg1NnD3XNvp/eaoUI0OdTdc7ZQr3vWmfTANlgwLDB7YZapgGyxqhhJ9eKJ0Mdj0/1vmmAbDKiba3YFmorRIAsNDH6+6qjUNfse/we0zRANpqSE4Z6br6zaYCsNWDYuMdkGiCrjZom0wAAAAAAAAAAAAAAAAAAAAAAAAAAAAAAAAAAAAAAAAAAAAAAAAAAAAAAAAAAAAAAAAAAAAAAAAAAAAAAAAAAAAAAAAAAAAAAAAAAAAAAAAAAAAAAAAAAAAAAAAAAAAAAAAAAAAAAAAAAAAAAAAAAAAAAAAAAAAAAAAAAAAAAAAAAAAAAAAAAAAAAAAAAAAAAAAAAAAAAAAAAAAAAAAAAAAAAAAAAAAAAAAAAAAAAAAAAAAAAAAAAAAAAAAAAAAAAAAAAAAAAAAAAAAAAAF3w/x/A/7QE/KsEAAAAAElFTkSuQmCC;" vertex="1" parent="P99eA3lHoIs5ANnfDtM8-20">
          <mxGeometry x="-129.99999999999997" y="-7.5" width="398.21" height="165" as="geometry" />
        </mxCell>
        <mxCell id="P99eA3lHoIs5ANnfDtM8-12" value="MyFirstBucket" style="text;html=1;strokeColor=none;fillColor=none;align=center;verticalAlign=middle;whiteSpace=wrap;rounded=0;" vertex="1" parent="P99eA3lHoIs5ANnfDtM8-20">
          <mxGeometry x="39.110000000000014" y="120" width="60" height="30" as="geometry" />
        </mxCell>
        <mxCell id="P99eA3lHoIs5ANnfDtM8-22" value="Amazon IAM" style="swimlane;whiteSpace=wrap;html=1;" vertex="1" parent="1">
          <mxGeometry x="320" y="420" width="168.27000000000004" height="150" as="geometry" />
        </mxCell>
        <mxCell id="P99eA3lHoIs5ANnfDtM8-13" value="" style="shape=image;verticalLabelPosition=bottom;labelBackgroundColor=default;verticalAlign=top;aspect=fixed;imageAspect=0;image=data:image/png,iVBORw0KGgoAAAANSUhEUgAABXgAAAMZCAYAAAC6c1zyAAAACXBIWXMAAAsTAAALEwEAmpwYAAAgAElEQVR4nOzde5zmZ13m+eu+7t/zVFV35whJ5Ow64IpyCEmAoLCi4+rMoJwJAcEZ0AE5hBzwuDIOymE8AOGsr3Gc0RkPhCQyzui46+5rR2fd8UCACYq4OjoKKgnk3F1dVc/vd1/3/vFUQhAEQ5J+uqs+79cr6VR1p/r7/Prp6l9f9X2uWwIAAAAAAAAAAAAAAAAAAAAAAAAAAAAAAAAAAAAAAAAAAAAAAAAAAAAAAAAAAAAAAAAAAAAAAAAAAAAAAAAAAAAAAAAAAAAAAAAAAAAAAAAAAAAAAAAAAAAAAAAAAAAAAAAAAAAAAAAAAAAAAAAAAAAAAAAAAAAAAAAAAAAAAAAAAAAAAAAAAAAAAAAAAAAAAAAAAAAAAAAAAAAAAAAAAAAAAAAAAAAAAAAAAAAAAAAAAAAAAAAAAAAAAAAAAAAAAAAAAAAAAAAAAAAAAAAAAAAAAAAAAAAAAAAAAAAAAAAAAAAAAAAAAAAAAAAAAAAAAAAAAAAAAAAAAAAAAAAAAAAAAAAAAAAAAAAAAAAAAAAAAAAAAAAAAAAAAAAAAAAAAAAAAAAAAAAAAAAAAAAAAAAAAAAAAAAAAAAAAAAAAAAAAAAAAAAAAAAAAAAAAAAAAAAAAAAAAAAAAAAAAAAAAAAAAAAAAAAAAAAAAAAAAAAAAAAAAAAAAAAAAAAAAAAAAAAAAAAAAAAAAAAAAAAAAAAAAAAAAAAAAAAAAAAAAAAAAAAAAAAAAAAAAAAAAAAAAAAAAAAAAAAAAAAAAAAAAAAAAAAAAAAAAAAAAAAAAAAAAAAAAAAAAAAAAAAAAAAAAAAAAAAAAAAAAAAAAAAAAAAAAAAAAAAAAAAAAAAAAAAAAAAAAAAAAAAAAAAAAAAAAAAAAAAAAAAAAAAAAAAAAAAAAAAAAAAAAAAAAAAAAAAAAAAAAAAAAAAAAAAAAAAAAAAAAAAAAAAAAAAAAAAAAAAAAAAAAAAAAAAAAAAAAAAAAAAAAAAAAAAAAAAAAAAAAAAAAAAAAAAAAAAAAAAAAAAAAAAAAAAAAAAAAAAAAAAAAAAAAAAAAAAAAAAAAAAAAAAAAAAAAAAAAAAAAAAAAAAAAAAAAAAAAAAAAAAAAAAAAAAAAAAAAAAAAAAAAAAAAAAAAAAAAAAAAAAAAAAAAAAAAAAAAAAAAAAAAAAAAAAAAAAAAAAAAAAAAAAAAAAAAAAAAAAAAAAAAAAAAAAAAAAAAAAAAAAAAAAAAAAAAAAAAAAAAAAAAAAAAAAAAAAAAAAAAAAAAAAAAAAAAAAAAAAAAAAAAAAAAAAAAAAAAAAAAAAAAAAAAAAAAAAAAAAAAAAAAAAAAAAAAAAAAAAAAAAAAAAAAAAAAAAAAAAAAAAAAAAAAAAAAMAJrKx6AAAAAADA392FlzxG2WlKtzSUoqJS42RocrWueMsHVz0iAAA4hgh4AQAAAOAE8exXPkY7t1h92CopLkpJcddOn7ReB9VBWl9f0xVv+8CqRwUAAMdIXfUAAAAAAIDP7+kXnaf7P/x+qho9ZZSLei+lOz61uD26S39VN6radnf6oj/6a8/UR377U6seGwAAHAPDqgcAAAAAsL9c8Kpz1aYuuWs4JF3xIx9a9UjHtWe9/GwttrfLQae0yVm+ELNXRT/cS/43yRqK3jDetPma4cBG2qJ4sZ2sem4AAHBsUNEAAAAA4Ji48NKztdiOpqbSprHo5CH1sEop7mvrg977TmoFJOmCyx6rbR/UKdf9rg6f9OWOesajk2rt6ionq+v1ii6SrDhSJLsoKr+h0r9Oieqselbm8dBVB+u9b+faAgCwVxHwAgAAALjXPPtV52hcNLUpcu9larFdW9ek3Cj51Cqpa3ZoTetpes9PXLvqkVfmuRefo3F70mKM0mUlUbVcpN7aWer1jbJenEiyJGV0bFlW1KVY1lHJT1DKh1MnudVS57XPDgy6ml5eAAD2JK96AAAAAAB704WXnaPFbZuatqeidLcpXVKTJaX+c51e/0BD7tdL0c7WouwsFqseeWWe8YrztDNtabEzuQyWulJ6V5G+tE35RfVy3TLcjeyMTrrjIU5NVOSU2FPiA1GujdrLS2lyV5/GqS62Jj3z4vNX/TABAMC9gA1eAAAAAPeYF7z6HP3cmz8oSXrGdz7K29ut166uWpSWWqzvkvzDUuaJZWcq0Vf06j+tpXs2Lxk25rriLR9c8SO59z3zlY9Vpq5BW1qMpS4mtaFEZV7VFu1hpfhfSHqWFEWWktG2k1TbPUm3bS1/QIlTLE2ShsQq1pUH3C7Y7lUtvXjeeh1mWluvuvIt/23Fjx4AANxTCHgBAAAA3COe8X2PVLlN6q2UqdRSxjHTFFVraNFri/QD8rJ5QHKz1RLNrajZjx9a+71JVfM1a01NPrimK966N4Peb33647V51hEttuUjPpCTs6mxW7Oar0r05lL0Tem3/2iPVobbr53t27/nzq/IXJbxLot5W5xalqHwX0p6fLf/emhVGcbSy9Dna3P9+3dfcwwfMQAAuLcQ8AIAAAC4Wy542eO1WIxqdfS4rdTSNGnQoOkk2a+VcpnkZfy4u4UqxYmLrNHJLLYcffNU9asq0nyMPJtpvl515bv2Rsj73EvPU2tS80JtK8Pph26YbrjxNN3mk3Sobz62qLxZypOW1yqyvJA0k1ISdztd8uer2YsixbHjHmWSPbOiRM+x6lVemzTuVM9cM1+b6eqfJOQFAOBER8ALAAAA4C577iWPVxu7psW2Wu+epqRYalPVUKdTFf24pO/IHUumGS1Zdt2tFuhKSqRie1KWG6qKvkM1Pz32aOi1DIP7bGPQ1e/40Cof7t1y4fc8SYvtSYsjR0qmuP6P3vqXSb9yzTfqWx77609O15sknRtJy6XcLCzPli0Ly1xcd+38lCQptouSUfIsjkrXu047qFfedNgqVj0wn1rTXPP1qivefuJeXwAA9jsCXgAAAAB3yQu/++H61M2D6hRrrmQs8lSkIQ+S+hskvTCxZMnRKGeQpMTFWnYMLN9eVsvuFsw22VWJLH/PqPHHD933/tq68ZPFM/f1tUFXv/PECyGf++pHavMWqafXLHorteiT32Xd/y3jN3f3N/buR7bd7HbZn5uquMdZxt2ff2P381le3thxmqPaiyXlw+o63ypbU4lKseyi9QPruvodbPMCAHAiIuAFAAAA8AU979WP07SYtFhIbZpqxt6Ku8ogadJDe8+PRn7mbmArO+NuvliddC17Yz93WJkky9PDliGvJPX+tnp4uqRtNNVm9431zNZm+qWf+MAxe8xfrG+77BEaJ2l7p5ZxiqfWWnVVmaSe9kxJP9qLH9ot2ZGiSVKNXZxPB+D3hCjLxgalL5sfXKXI1pOn0n/zwvpVumLxEQ+zIeuH5rrqrcf/9QUAAJ/pHrtxAAAAALB3bW3uaPO2bbfFYbUpzWVSL3p4H/MfWtefxHqmFVkZ7fTEM3m3dMEu+nx/97DlZchblSSJUvrFWes/+6v/7tdUesmU1HGn6Wkvf9yxe9B30XMvPU/PeOmjddNhl1sPp+5sp7cprdS51Nu3ttL/XDNfraqHFqfbmXY3nausvnut7tG/o1leHrtmFcXVzuhlCP8bpfsHfv7wtZKVNvU6u+2e/JkBAMCxwgYvAAAAgM/yrFc/WmOLuqS6KMPJh4bphut3NBu2NWb9nKL+o5K/YfdcLzlexJo5Kcu1VEl3sTdWkpJYdndSymJSKf0/bzR//ZG1NaXEw+BsHKq68m3HT13Dcy87Vzvbk9rUShaxipsUKYPk6cWRftTyfXcbKabdA+fq3bhWd91ylVeKbWWKNViW1P93K/+w9aL5UEvXrA9zaT5U/eLb33+vjgQAAO4ZBLwAAAAA7vDsy87RYntUmVK208qX3HSfXH+fG7V5wxEdOvmU8yVdbpXzl6lkJHlhaRanOM6n62S/OJHixJG7nF5iS/p9D3nUlCKnVB90+5V3f/geeLRfvBd+9znqO01pk47slDJOcq+tlVa0bBrORZZfJ+mU3WvVLPdIg5ZBa+xj/orK6PafOu5RumTbuSXxE+Zdf5RhVDIvZVBfP2nQVZcfP0E6AAD43KhoAAAAACBJuvCiR2jn5h2Nm6lFY+9SHvpL36QufdPJp576AVu/LfXz48jOQna3M4tULGfZB3D3/o5hSbGjZWBcutO69cge/7VU1tTT+pjylEseqW970bn3zAP/Ilx/3ZZuumUqNx8pntK6pLb7CL5P0pakt8c5JdZkp9l2nGor1krCXWnZ2LAsxFCK7WJlinyqlY+ORS8aLZUMvU+p43a+8EcEAAArxwYvAAAAsI/940vO1rjoOtp7mSa5bS6aZlXzQ5tabK8/TUU/FunLPS6zW1uTkuWBYFLX8p97PqzcPR1McbfSYg2Kj9TkodOg66tU1tpabweLNtat91x+zT0+wudy2Qsepz87tOO03tui9ajItc0Uv0alvya7/Qu2p93uipq42Mu3jsmQfwdJIqnYLklGWzPFkvt7sqjP02zSbFbrutZbX5s086BfoLIBAIDjEgEvAAAAsA89/6JzdXRr0qRe+tjcq1pJUdsZVefDC1X0zyP9PfciSV3WKGWeqNvuux/m3g4sI6XsBqSTkmGZn+Yrq/3Rvtv/O59Z6yfNdMWb7/k6gW+99DHKomvsRVNvJYuUsSUuVWnTIRe/Tu6X7PYQS9Ko5Zlx1VaXjtm1+mIkSbFVEjc5VbLc9aclOV/VN4ylqXaX6qHP162r30VlAwAAxxsCXgAAAGAfed6rztP20aZkLGOPe3erJcscMn5R6/2NVvmS9CJLkZPI1VGJk91mgWMWVkaKpRKlKB6XlRCWpCd15beKBrl2zdet973z2nv05372yx+r7a1I2fI0KCXSLEW95sy08ppIFy1/pGVpjGPJdlLi3bj3+Ax27yyJ5N1taSmRVZfvK08fNf3ySdrQVp/stSnzjaJfeutHVz0zAAC4EwJeAAAAYJ943NOeqPuddWtZLLqr0lKkOklt0MskvaHIp+32CGQ396uOi7yM+1Y2eHY3ea3ieJQykyw5z5GGq7K9UDllXga7r60VXXk3Dga78LLHSK1ra7urJW47Si1NbZDqpLOay48U9X9SdEfnwijFu9eqy8uDy+65B3+MfPr4tWVYncxsqze9Rfcvr+7XNan0evL1X90WD75G842qKy7/4KqnBgAAIuAFAAAA9rznf9e52j48lvSUsfVkKqqKIn+vlNcWaz2xpEzLbVl52bebrmO8sft5JFGxUyJNigc7inxRyfjOs44c0V+fclqZu/S1+Zquevdd7+S98PvP19HrNpUeqyRdRa1V1dK+VPKPSXmOLCWWnNHxkGXhrpx0+QQMdu8s2X0a2HZaomVlQ8kHVfSEqC1UpK6ZZpbW51VXvvue3ZoGAAB3HQEvAAAAsMe88LJz9O/e8kE9/Qe+Rr7xsHfG9D6p25GioVs/KOk1isoyq/QkR5J2DwRb8cbu3yrLM8wi25qSDLaVrjcMZXxNv3FdOb251pLh4KD3vf0Lb/JeePHZ6pGymLQzaTjaM611yerqKV/ZrTdJ+oeJlpckGnfrDGqc7mXH7nF4re6WJLGtrjhxqqUp0deU4t87eWuhwwdmHqysrQ16LyEvAAArRcALAAAA7BHPvfRcjduTuqS2aCW1FC1aWpeqtBH5h4t1WXZLbGU1L1+Yv6wXUPruwu7xHFhGihJbTnNUl2W3/pftwPhSH5mpSva8ZL4+6Op3/O0h7wte8RjdumjKYvJmXcuhtqOdas1bzu32j0j6hr7bw+BklDTELo66rOP58LS7K1HkuMQpjqdIgx317u+eZXpT6qCW1Nna0Gbzrqve+furnhkAgH2LgBcAAADYA575ynPUjja1PrpFqZJarapp9+nFP6Dk0mW9gGRrlGTF3g3wIp9YQeUyl44jN1tVkdT7+2478/pnnnzDmYpchlnp8/WZrn7Hp7tin3/Z2VIbtTVabdGrmlpLdOvBU3Tq0due2Et5nZIn3+laLRTNlpcr2qMbu3+LRLshr+TJ0bB7ctx/qvZTMk3qdiml9jpUzQ/MdPVbf3fFMwMAsP8Q8AIAAAAnqOe88lyNozSUbW1PxRkVO0osS2d253WSXhJJu0enjcu62FTbXdIJHVZGipc5b5fVS++W/Dsu/QmtFJUedw+Zsq719aadhbWuo2UxdZ90cLsdPbqujbFreyhf20t/s6Rz03V7FcPCzmxZWaET/lrdDdn9xpJblLLMuX19ksfL/ouqpq5Suoc+2xj0y+/k8DUAAI6l/XiDAgAAAJzwHvJPnqXeb9NiZ9u3bM+UMdnd3niQpF/oyvWRX5JYjhdWuqRBt8eXeyCw9O5arZ2iqJTeU3o/v/f8kSWVoqg1lyOjyuKw3LZqG6deilpNUaSnHB38hyn9N1J8brple6Gk25rtbvBGy8WYE/pa3Q2WpMhJVC2VWFOisyz9uaNvK70rLj1T3Laip3zHk1c8MgAA+wsbvAAAAMAJ4oJLHqO2kIajg3aGo/W2G09q66cc1lTmGrR4WFd5k5Wn7u61ytG4rF5wzTK07Md5v+4XJcoy5rW6lZZ4sPUplfzPLfXm0vswn+9MO4sN1b6t1PlzStePS/0hvRdp2fUQ+Y5D5rr2VRXD39ky844kZ5Q8iyT1/m9m8+0X7+xsqKrU7TOua4eOPEDrG4Pee/k1Kx4ZAIC9j4AXAAAAOM4961Xna7HdVLKtNnaPh45mfmRdR3cOaWPj8KOU8uYufUOxld3wzfEQq1j7pl4gSsryELSMkWa2dhI9zPLHh/mOxsXai4vyusj3t6RI3U7T8lppefWWJ7at+LEcz7JcALeTNEs1pcjSnzTp3Kpy2OqauspscJ9vDLrqnX/7QXcAAODu48YFAAAAOI495UV/Xxlv1LS9NbTNqq6ezbWmJj9xY+PIb0rl2sjfUJaHgi3sdMd1eXjavqoXsOxupUee2ZoUr0n+s7h/9zTNruvST8e+v53Eart9xUOcLGsrbO2Pa3V33B6Fx1KN3dVLUy8PK6XflpJvaIp27D5NcZuiC1513qpnBgBgT2ODFwAAADjOPP9Vj9U0NY19LOOW/eXPvrb94RWP1APqmfqErnty6eVNXf3crrK7b5pF4pmtkiT23qthuGtuvwppkqriO3ZOFSVytVMiLxd38UVKFFvLrySMjmZZNjy/8cwD/oFPbTYN8+L/8K/+IC+49Kv0c5d/ZNUDAwCwJxHwAgAAAMeRZ198nna2dtR2enVtrS0GHbjfJ7V53RnfbPc3dOlRcl9W6yqLSLNlTBnRG7trme/uVuu6yZksDcv+WEvLjl2Ja3VPyLK+WI48ORl6kXrXfy29PnGY995Uy8a89SlVdW2uq9/2/lXPDADAnkLACwAAAKzYcy49R2ldbWxlWsSSWiap1kkt9ZmS3iyVL+0lshTFiVJll2XLwO7r5nFn0fKa9N23y53eh3tUEllWnLjbSeJqaSvOE0qv1x7dmWljtlPKWu3z9UH//h0fXPXQAADsGQS8AAAAwIq8+LKz1XYm3bSjMk1ycVpv0jCvmsb2rS76F4ofFElSuuUp0mCnKM7uGi9wfIgSx4plZ4o8eHlu3SvGsb+71JmqWl2sz9tp047mp6zr599C0AsAwN01rHoAAAAAYL95yfc/WmNb0yc/tVmmFLtOTaotvauW+pJM/fXqOiPd0qcPAKtJZraiT3c0AMcPy46j3cPr7gh5pXfNZvlf2zQ+Q0Nps3Esi1Z7tvoX/pgAAOALYoMXAAAAOIb+8YvP1g2e3CdJvaWrysMktXqxen9trFMVyXZ2D7GqcYp3S3ZXPT/wd3NHEXJzVLN86l5Xlcd1++NNTXMPpc7d5/NBV7ztA6seGACAExYBLwAAAHAve+El52hrp2tSK31MWbTEstKaXOpr5HxfpIOOJanJ6kkGW3334DSJcBcnlt1mkTh2t9IkD0ok+8K06YrqdfUyeXDJgY1Bv/jOD614ZAAATkwEvAAAAMC95Kn/9FxlnFSH5kVLL1GvKuo1G72X74n0Wse3n/w1xSm7u7slXobAItjFCSxatkXHkqMxzsyy1PXu7aOLV8wODHKXTz15PX91wxGdeeYhXfk2enkBALgrCHgBAACAe9CFlz1GmbrG0WrT6MV2z1CjVqQabcTl9VK/rO/Gt3FGSyXS4LjL6ZIJdbF3JJGk2HbUotRiqXT9YbfPV8vh6qJJ0rx2zdcGXfmuD694aAAAThwEvAAAAMA95CkvP1/D9pZaH530lFo1jtK86rTe9UYp3ylLiWVnjGTHjlOWh1OxrYs9bVnMa/dIsbLs5k2e5Orfun7RdFaVh1nJfKPqynf8/qrnBQDghEDACwAAANwNz770MWpT1zRFZUpdTGmDrLRJLr5/t35M8rdm2T0qRaMdJ652eqJus7GLfSK3f31DijLamiVWkX7olPX62lu3dlRKqTv3mbUzbin6xX997aonBgDguEfACwAAAHyRnvfKx+nweFRZxDVOdzRFGqSHxv6RIj0ruwW7lkYlQ6yyrGIQh6dhv0oUWXaSyfaw/EqH/nOXv9496naZSX0YrNnBma64/AOrnhkAgOMWAS8AAABwF1x4ydlSmdSmpp2dYRj+cj5tf8mW3AbFeVSJfljO05ato5KtUZEj204RVQyAlm0NWv6uSLrkvtxs1xFLX53q31cpqpmKhtrXD63pKkJeAAA+p2HVAwAAAAAngud/z3na2Y6O3DaW9O5xHNraPFM7ZVJJOSee3lSkr1vmupashZWaeObltm6XXAh3AWkZ7UrSHTGvEo+WDsn5sKOXdeUnVXtvo2rb2W6rnhgAgOMVG7wAAADAF/C0yx6ncuutmjKvi82jbTi0rq0d6+C8fXWT3lDkJ5dIkWRroWQmWXGKpd3yXQCfW6K4LA8b1BR7uYiU/ovztZ3n7+ysaz5XnaYD7eBJ0ZVvv2bF8wIAcHwh4AUAAAA+h+d89zlqU5O2osVY6intk+2WcqaO3HyzDp1+8v+iXt4s5TzFiiJZk6WauNjLl5yLfl3g7y5Jlp0NTXJd/hbSx7rK46xcr9rl1FLn7hsHZ/qFN1PZAACAxA0nAAAA8FleeNHDtH3jVLZvnmpfbKtNaQcOjkr6Uw6desof9q7fVHJeYsVZ2O6KhkjdViQXca8N3DW2vPxqSY3TkzIq5cE9uq7HT536oGFn0Xe24yPb06qnBQDguMEGLwAAACDpgkvOldM0tkk7C1dtp7Wha10LbfW1C6z+Y+rlIcWSksiOlLr70vJ42c9AqAvcbYmym/bGo52ZIrVSL7//x//8sr9+0EM0G+R+4NT8ytt/a9XDAgCwcgS8AAAA2PcuveAF+u+nfKi0UR6G1sZpkFvUq19Uil7f1e/fUySnK2qyq5MSOebQNOBekCSWHSeeZA2ldHXpGklPLOo7w1DL+jw9nql40JVvpZsXALA/EfACAABgX3rBq8/WzjRoXGyXNspprfVeVYdJbaqvKL3/YOwzFUlS7ERxlaUkfXdZl3AXuPdEkZY5b3qkyK5KYul82e//f695pJ503rVWGTLMD+h9P/k7q54ZAIBjblj1AAAAAMCx9NxLH6dxZ9Thw6MX24vuQb232qQiWa9K8xtKKYdSipxMuxFuTTzYiWTbZlECuPdZlqzl4WuS7GSKPUj5Pal9/9kP/8iPpJT0tNrboq16YAAAVoEbUwAAAOx5F156jtSaxikad3qZmoqdtHZ7bW7+maR/pni2u7DbLPXYg6MupYuNXWCVoqTELlam5RdcJCn/R5n0D3qxPCulDqUPQ1WdW1dc/oFVzwwAwDFBwAsAAIA97cKLHqmdna6dUU7UB6XHlkvmvfuHpXyv4mUTgzN5ucrrJMV2dj8MwS6welnmvLadlix/r9q5WV1fnaI/sqU0lTpznx2w3ve2D696ZgAA7nUEvAAAANhznv2qx6otpFnZ1tFF8fK4JmlqUi05RdIbZb1ckhJJVrPUFQ9xuqO+u9oL4PiTZWmDu5bbvDMrkv2iUtrPTLLcVNfK0M647ST9y1/6rVXPCwDAvYqAFwAAAHvG87/rXG3fPGmhpj51T6XEXbvtCrqPlDdIeuky7pUkjbacqNrpkvvu+wl3geNbohTFxc4UaXCsqP/rzKdv96LKKr75tDH3zboODXP9wluuWfXMAADcK7hxBQAAwJ6x2I6O7nSt3W+2TH+6ZOdBSn5W0g2KX5pYdkY7zdaQpHq5/le0vD/mHhk4/tlyt5JluKvlAWvuLx4Ww590+TT3ktNumSmHUzZvW+jCy85b8cgAANw7uHkFAADAnpFJWn/wLTpwn4Mq6g+tztWJPxbr25Iou8Fu4pmW98LdHJ4GnKgs25YjucbplltUHlqVm6aaf6Birev0Pk3xztG26nkBALhXcCMLAACAPaPOutsnTtIn33/jxWXQn6T7mXbkeLTdHQ2Rq507b+wCOLE5ThwXJVXOKFuOf01Nb7juzP+iqKSNzU+79OGrnhUAgHscHbwAAADYM/7RCx7lwzftRNE5G/fxB2brdcwU265J+vJQJkJdYE+KkuUXdBxpkjOUXlW6frukP1FWNOtynWs2WJ5LV17+gVVPDQDA3cbNLQAAAPaMrcPqt31K+tTH/cGjt/Q/62Of2e63h7u50+lqAPYYy5YVKXIGx7301qL2hAzZlvX4KVHJLTp6ZKdsHlno6S8/e9VTAwBwt3GDCwAAgD2jnDz1k07zcNqZUVv0q47c3FSsZqskkb17JBOAvcpeBr2RUnbfnEo069LvuNeLtbUm1dI19TpuT/qWlzxq1TMDAHC3UNEAAACAPePJz3uU2uHRSVKKvjwL/X9rJ1cdPM29TekucmKZNQdgH0giFUsl8qRkkCw5/7GqPrWpqXTV9fVZi6z5etV733rNqocGAOAuI+AFAADAnvL1T3mYDi8eqWnxCW1s3PQ/erNH3CwAACAASURBVCtfetIZtc02ijOl2NJyiZegF9gHkkh2HLk5spQi+3pJj43y8T5FtQ6luvT1taL3/sSHVz0zAAB3Cbe0AAAA2FPKgYM6sPYRHzxwo0op7yru2ryxpY+9uHo37LEkqhqAfcDLvgbHSY2l2FOSsxR9zN0vKKpy731K6maLvuUyenkBACcWNngBAACw53zd077K42JKuh7ioj/PJM3WSjt0Zq3qRXfu4zVrvMA+kUguSYrtUckstor0E6dsHn75rQcOqpfiL0nJ5prlg4Pec/kHVz00AABfEHezAAAA2HtmiRYbqrec9heRPujBWmz3tn1L76V2lbL7um1x6Bqwf9iJuu0kmcluUqTeX3brgUPXSjpJRfnLSEd2Jh2+ddIzL2KbFwBw/CPgBQAAwJ5z8pED0rBddeotUte/lSQP9tHDTYujXa7L22CbcBfYT2xZkm0nSnXceylTL/1Rpes29/73Lek5l/6hMjVP203Pv/j8VY8NAMDnRcALAACAvWeQylxJ6SpFPxVJpWgoljZvTNq4DHlv7+NlixfYd+wosWRlcDzGluT/y6W//p2XPktRT1t0b29tr3pWAAA+Lzp4AQAAsCc9+amP0J9ef5K+4oxPanOc/99Wvk72IlPmw1rRSWcOUten+3jF9gOwD0VRiVMsTYmHUptK9Btx/zq3QWVWyjAvvVbLM+vKt9DLCwA4vnAPCwAAgD2p94W+7Ixb61abScrPyFai4sF93O46ektUqj7dx5uwyQvsP5bVLSXxYKeXVpNen6zmI1LOblPr4y3R9pGxjId39LxXPnrVMwMA8BkIeAEAALAn/eZ//GO51JQUVfk9yxXdzCTFg7N9W9POkXanPt7ltxEhL7DPWPLyCLa4yClyRtsHJX3IxS/rJSql9MWUun100vNfSsgLADh+1FUPAAAAANxbHvw1a9LWrLSSVoqf1NW/rKfEllV6mbal+UaRB99R1dDTVQpNZsA+U6RSVJSoF8c1JVMvcld5Sqn9qxxdWUrv6aVOa+lfcd799egnPVAf+Z1PrHp2AMA+xwYvAAAA9qz/8m8+rsGz4lYl5XLLklKSFNvp6dq8sUnqdxy2xqFrwL5myz1WHA+WmiKV+DmRPjZJZ/Xe2+Yt1rQ9la0jk575qvNWPTMAYJ8j4AUAAMCeVmrpkZSUX0vUbFXZLYk9WONO19Gbu0rtKuXT4S4ZL7BvednZoCSudnqsFvUHFZXrVPysLF8L2xdtxztbO3rGq6hsAACsDgEvAAAA9rTWp16rS62OlKskS0mz3SXJg7V9pGnnSOTdArNlHy8JL7DfLc9mtJxU26NiqeSq2Wx8xzd/4HHqKtHUXY/M9ayXnqPnXso2LwDg2CPgBQAAwJ5Wu9V7nB4V+9/uvnsuSUlSilQsbd7c1Rb9M/p4qWoA9jVLspMeuyeZ2WmJpe5X/vK5v3tN6VovUTbbEe2Mo7Y3F3r2RWevem4AwD5DwAsAAIA9bRiqqkrzVFQX+k9KFrKlJLbL7WGuetfhm5oU+ngB3ImXnyFsJ1G11QeplfhcqxyV9TWlSpt9U9M4ebE1EfICAI6puuoBAAAAgHvTn370ej3kK++rKOq1qPfyEJeck+6p9wzLDLcXV6uNXWlda4eWgW/vXZLVe1RKWfVDAbA6RVLppaQkJcV219hLryXlxaV4UXbWf8tDek+pvbT+iPMepI9+4BOrnhsAsA9wlwoAAIA97xufdb62d26uab2plyeo6L8m7nYkuUvxMsiVMkUH71O1fpLVxk9v8VpaHr0EYL9LoiKnWJ6SDLufGn5dvX6T1BWn9GHe57VodqDq6jdfs+KRAQB7GQEvAAAA9oWv/eZHlMV2ukpXsa6zc1biSVa1VD6jkqEXnXJWledFmfIZlQ0AoN1TGJdNL+6Jluv+ys2SH6ea/76xGLU1WytDrX1tw7rqHR9a8cgAgL2KO1QAAADsC6eetd7rLHWYSVauvv39t98Qf2aI23X4Rvp4Afytdpf6nSTFVrEzyTrN0p+o+9tbr5rce5tG72yPesarHrXqmQEAexQBLwAAAPaFTFFRSW+RpHcqkqxBibKb3N4R5u728W7e3FQsFTZ4AXw2645PG5GkQfK4/K78q8XcP1tjFTmZUhe3Fj39JY/Wcy4+d4UjAwD2IioaAAAAsG987VMfoXGKpCL1fMzJg2JPioa/md32LqVFB0+rWj9ktWUwTMgL4HPJbmmDYzcnVbLi/KnTnxCXT7lIisowcz90qOrnL792xSMDAPYK7k4BAACwb1RL7qnuTVJ+RrYUNTtd0mdVMPQubd7S1MZOsIsTwp2fw7f/N9Uix4RlOXac1Ng9VnP09+TyScn/qPUij7O+tSg+stn0bCobAAD3EO5SAQAAsG94VlWKe09RiX+uR7KzlliSsnyt9bLOoadr/VDRyWcMKsNy9Q44Xt0e4t5eM9Ja5PI3+qN5Ct/rLFn2svJlGfSOiqXoVxVdfuGjPyY7mcb4tk/M9PR/+mhdQGUDAOBuoqIBAAAA+8o3PuWxOjK/SaOPam3z1D9Tyf8kuSWxoqIizQ8WrR2smq0VLVd7RQcvjk+JtPu8TKJxJ1nbGDyf12xtjqprdqbEy9PAtMwfVzvy/pBILkpKrCap9li96/1T9xNmdWq1qPSx9jKz1tdnuvonrln10ACAExR/tAMAAGBf+fVffb98dN31plMl66cSK1OiXsr8UNUpZ1mH7jNoWCtqU5Qpn7kFCRwH7ngu2kqLdrYm9UinP2BDj3jy6Tr9gev61F8uZN/p8MA7BcG4t9mSeuRYrpJ7lZprHrvmbNbu84pKrwe3lUyexm1d+IpHrnpoAMAJig1eAAAA7AsvuOxsLaZoGqXNw21t57a2c8v1kw6cWvvawar1QyV1XtzbZ7/cfbkXwQYvVutvbpFnisYxqjPrvg9c15kPOqD1g1XzjdL/6o+3ywd+5QaddN95P+kMF5XloYF3Dnl5Ph8TtxchO7YcTXKG5acYX1JnO2+bxrlcVDfU2m33OVX/55t/Z6UDAwBOPAS8AAAA2NOee/G5GhdRpqnsLFRqaenVWq/S9tQv6tHbPRT1rmTKHYnXncNdcjCs2p0D2TZF0xjN16pOf8C6znzwhtYOVqV1jTvJbM3evGW69f2/fMPgWg7WecnJZ1aVWpyJkHcVIsXLf1nxZGeQLEW/3NyePsSSel07ubeSmeZr1i+85b+temwAwAmCgBcAAAB7zgUXnatpZ9JaPaoj00ZpUytVyhTLburxD0r53mIfkKQkXVKxLSWKRPCFlfubAWybomnRNd+w7vvgdZ3xgANaO1jVxmXge/v/5iLPNobN3776k3XrtrbuwaklPnTGoDovai1S/+zqBtz7EsWOEzdZxcvc95OWHivpYzuLqvVZK2XuPqzN9L53fGjVIwMATgD8SQ4AAIA95aJvf7j+Wk3b41hu3lp3X/QulUilFPcfkjR164e6fSDJlOWablmeQRXFJvDCceH25+E0RTtHm+qs6IFfcUhf+cTT9cAvP6RhVrRzdLoj3PXyuetEfZiXg8Pcs9bSXeXWlFs/2TRtd9XBKkWf0S1NK+8x4jvaGqqTknhyfGbkv5D8Qrmolt7b2D0dHfWslz1q1RMDAE4AbPACAADghHfBxefKt+xo64ao3W9wxkQl6r2q9hxopb9e9qWOFEWWR1lFSk2W4a5YfsCKfcY2bV8Gu23sWj+p6swHbei+D1jXsFY1LbLcwt11503cJFGXDpwy8/t/5YYbb/j49n3WDwy7Hz5Wlw7et2r9gNWmqLPJuyK7VzxRrFHxzI7U9dPe0ne0jaIu1eLahkGarw+66u0fXPXQAIDjFAEvAAAATljPu+SrtXVkUh82Ne3IcklaUe1dvea+6nqd4u9cbs1FskbLTlJtdcldu4UMq34s2L/uHK72LrUxStsNdh9yQKffb12zuZdd0u1vHgCoO97e/ViRpPVDgz/6/9zyFx/7g80Hrx8aSpIst3ujHung6VXrJ1kh5F2lSNLuL01LVGWp9Pyxpce16FZXKV1lbveNA1Xveee1q54ZAHAc4k9vAAAAnLDOOLSpRdv00Vur1HvUJac/sDs/la5PSf7OOEoy2m6Ohyh1ubHrIsmEu1il20PV3qVpEY3/P3t3HmXZeZaH/nmfb+99Tp2aq7urJVlSy5KxLGE8D8hAEjCDQ8ADxsILwgohNysr3CRwSbgJkxMuCSEDTgzJZZHhEiBOYgsLBWMcY8vYzEkcsGXZGBwMRh40Wurq6jp19t7f894/9j7VVd2yraG7z6nu9+elXu7uGr4z7HOqn/3u59vNWFhOuO5ZK7j5JRs4fmIBADAZt+eEu30lw4FQlv1vPDuOXDtcgplN/3z6OUbi9EMZO1vq6xp4sK4h+houFgJA/9AkUk4ou/PpbniEiV/JBLAxzxBPn8549V9/zqzXHEIIYQ4Vs15ACCGEEEIIj9Vrv/N5yG2Xzda1+Cf3ZcFN7K5LuxZZ/wzGWyWCEAQ1BAmilOQknXvBbgizsX9S1oxd5YIcS2sFjl83wurmAEVBNBOhbTKA/RO73Pv955KzY3kjHXF5/0lnJnhJwo0YfybDMrCwbvB8sJM3DpGLpg95IQgmIJFqJJYA3gn6j3zof1z9/c/8snvUNuBX/ZWx6slzsbBEvPnH/9eMlx5CCGFeREVDCCGEEEI4FF77N78Q25MC3mRO2qySCUWRIdkXAPjnAF/e1zCAQiOyIASJRkoxqRtm6qyn4HRiV+5YXi+xed0I65sVLBnaiZ9TvzD9/WOpUJCkoiTbWs1733jfeLhYrKDvIun/fm9qWK1juAwsbhTwfnr38X6/cN7sq2xAFpgSMxz8jVb6MjQJLN1Q06sFYjgi3vTjvzfrNYcQQpgDEfCGEEIIIYS59Y1/63kggKbNgKzYenDSDpcTWrUomJ4N+Y+BfGmXRQkgWwqmbod6B+mIUcQwYwc7dh3NxOFwrBwpccV1IywfHYDsA185gCcXskoSC9Lcd37jTQ+ehOtKFpwmxo8S8gqDUcLiUQJ+cJI3At6LT4JIUFImaOraxbcAfIkl3N1moQAtVfSFxQpv+pex+VoIIVzu4t06hBBCCCHMpW/79hvRjFtMxk3xC//vByCppbUA8aUFi1+D7P0iXtqFUKpJOqQChBFQhLthts6dwK13WzS1sLZZ4cYXrOPGF65j9VgFtY56N6M7J7G3Wdo5/bqP67u3QjFIXD2eqrbdW9LeF5uuyQxgQeyOM7YfEAAH08FOXkQn70XFPoInmUSRQmvEioMf9GzfAU8wg+dWaWdrMuvlhhBCmAMxwRtCCCGEEObGrX/ruWh2iZR2MamZzJEtAR953wN4xouOfVVb6x8C9iKhC50ItiASIJOoPguLUDfM1P7JV0loJw4mw+pmhc0TIyxtlDD0k7z+5Cd2z/n+kLwFl44U+IPfPqWP/s6WLa4XlnNXWPLZ1ppbIVWGlWMJlgxqBXbtvejOmcShdTFJECGIIIAWYkEKAn4edXoNSkdBWDGi0wyk4bY3vH/Wyw4hhDADEfCGEEIIIYSZe+X3vAD1bkax21hTg4tpnE/nIcpEOPQyd/wYgJuzDH2VaE2q7OOqA5eehzArjxbspsKwujnA5nUjLK8VkDva+txg97yGpwKypMW1gv/7fdunP/JbJwdL60WhDJmde5xIAsFuK7ZWsNKwcjSB5ZmQF4jKhhnpzmd156+yxNQ/wz4p+ouR8UkaAcJI8+FyhduisiGEEC47xawXEEIIIYQQLm+v/VvPwc5nduEZSczZkTJdMODW1v1HIX+qT0dzqRZgAg6Eu5E4hZnZH3qShLLQ1I6iMBy5ZthN7K4WUHbUk4w+133Uzz9va4Jk1u3rNhjylJnThcI+y3gPp2dJJLAg1Apb92WsbCakilAG3KOXd0b2sneJiZQLyACeQqRPKOkbHPwFR+1qC9a7bRRqhBDCZSgmeEMIIYQQwkX3Td/9JchNg3YysUZO1G1WYaisQdNW3wr4PwVwhcMBUuyuXU8ijV3CBESwG2bswMRuFppaSCVx9Kou2B0uJyg7cqO9YPd8VjF8nrWpqMjTj7T3/Y9ffGi1KDEk+XlPiOx17+ZujUvHClQL3SSv+wWaOA6PlQCwn7huAJSCYMRPjmz1O0632ygrZ7u1rMXjDW77iffNer0hhBAukgh4QwghhBDCRfPa//vZyLuO8Y7Ms1GtsieDUaDzbwD6+wKP9h/uBDKkQqQT8D7fiGQpzMzZ4aZaoWmEsko4cvUCjl0zxGg5oW0cbSvAD4a6wIUNdvetUyRZjiz/+hvvs2biLMrPH/D2n9uvuZvcXT5KVKMUIe98UP8rRWWCyeUA8UGJX5yYdwAgpQQmYjBMeNMborIhhBAudRHwhhBCCCGEC+613/lcpNxia9esrWVIWUTR9XsW9rch/ZDIxW7jNLSADABjYjfMk/2hZtsKuRYGCwkbTxni2DULGC4l5NbR1gfD3IsxsftoawWAhaUC7/3P9+00OxoV1WMLeLuSB+yFvJBjcYMYLPOckBdkHJgXmSChe3woyUlKUOp2Y9OfBflrjQllBq2iBsMCb/mJ2HwthBAuZRHwhhBCCCGEC+LW73oB6gnQ1g5jzdy4w+CeASSQwPdL+gGAFShQyCBcQKJgeAyXk4dwoZ09qZpboa2FwWKBI09ZwLFrhxgsJORa3cRub9ZTruoSXg6XCv+dtzzwqVMPt0+pBnxcGxKemeQVXMDCSsJonfC8PwA+s0FbuOi67dcAUGxAlf2fvm6nSD88alrAyMHINGkNi6MKb37D/5rtikMIIVwQadYLCCGEEEIIl55v/msvQF3vYlLXBrR0NxkAl5VM+iGH32myLzd6MvPWRBeNBqeBLjO3iIzCDEmCmcH6ncnaVmh2hXIh4aobFnHtFy5j/fgAcKCZZEgOkvC+bNfNwM+2q9lF4N1CrCgNpx5qHjl5f7NalHQBsMc46GNmeyGvwdGMAc9ANep+P73N8q7KwWZ4ey9TBpnMzUUVJrYyo5l9een6Ejh+TmauDEOTIc94zpddhQ/99/tmve4QQgjnWbwDhxBCCCGE8+rr/+ZzYLstxzVUmPqUlsty/X0Sfxti36SrRiIJUJRR7EcBQ5itA1UMjZAbYbhcYPOaEY5cPUBZJTS19jYiA+ZvmlWS4OBwqcCDH9+d/M9fenAwWi8dbZ/KPr6v1YfXglpgsJSwdKQbt582qEiMduxZmpYuS1mgsZvsPQXixQR+P5dEqt1SQV9YKfGm10cvbwghXEqKWS8ghBBCCCEcbq/6Gy9GboVhMUHTGNvdVjln0QgjNuT8UQJ/lTbt7FRDgBJLUg7QCVqEu2GW9oe6ZkRbC8qO4XLCFTctYe3KIcqSaGphMm4BnFvDME+bjpGksuQCU8XCHTUcFYz+BL7W3u1kAUy2M9yFpSMJpPWTvIJEALH52kz0hbwCEymX2JBYlvBhmP5artO/GRQTb1qk8fZunvVyQwghnF8xwRtCCCGEEJ6w13znCzA+PUGeOHNBlRIyHcl0FcQfhdm3Cpru+96QKLoJXhm7JAiYi3nHEAB3IDddsLu4VmDz2hHWrhygKPjZJ3bnNMzsO3hRDsjth9tTv/3zD+SF5WIN06PxCRx3e7fXgTYL1cCwvJkAGJTP9PUC8xV2X07U73zXBe5ou9dcAOAbrcp/UW0CCatGi55lKFODn//x6OUNIYTDLt51QwghhBDCE9a2GS6Hw1QkwF1PS/I74PZJmX9rN7DLhmQmUUqECO+KGUjEz6NhRqZBJAC4O5qJUE8yFlZKXP/cFTzjxes4cs0CPAOTcbsXYO43zyEm+8V5BgYLzINFtppuAve4Z3j3viYkQQ4UBdFODCfv614DWOyb8uXB+zdcPOweeEkUyUJCFghR3+K1fZzCFbmRT7ZOod45Zc3pCb7lu54362WHEEJ4kqKiIYQQQgghPCGv+Y4XocmnLSU52vRs5Px6Gb/CCEgAgQZUIbCk4CA1vZJ9xksPl6mz6xTcgaYWzB1LGyU2T4ywdsUAZkA7cag5WMUwzxO7n03bCqPVYnH12EAPfmKMQUnA9YSLgrvb39UxsBBUA1v3ZywfSWBFqJ1WaR/O++uS0Gfs/QOQKDlECbiWxKcB/gUz/2XP5lni7m4daXwIIRxy8W4bQgghhBCekN2dGllmbQu0Od8Ew1f0o2MNqSyqhOiABMLQ/ewZP3+GmdgfNkpCPRGaOmNlo8ANL1zFjS9ax/oVQ7QToR7ncz6+m0w9XE9fknTBLVlZDo1q4TAQ4JMM9LjXucuCUOvYuj+jnTiKgpB1Z3gIxiTv7BDTaV7QBKVuY0sB0ts8++vLUQUDVLfGb/2HN+HVf+nFs15zCCGEJyg6eEMIIYQQwhP2Va95tt1/T+PbDwtPe376o3Jo1+es3O/3Y4ctEAuXnrOD2rZ2kIaVoxWOXzfC8pES6Cd53bvugjNdssRhfgpLEgQsrBX80HtOPvind29vLKwWRIa6oPe8fI8z95cblo4mDEaG3ALuZ/4uXgtmTpJIMgtIhEPC+0C/BW6t0VEoAZVhuFjgzf/id2e93hBCCI9DvMuGEEIIIYQn7J23fcCvuj4VJ76QGD+S35wbB0nvAx3F9F6YtWnAWI8z1ALrVwzx9Bet4wuev4qljWKve3ca7oI40CV7uBGwrod3tJp2zMwhnNcxnwMBrjlOPZCxe0pg6TCb/l108s5cd8JCghIllywT/gKKu5TdQicmRwxt3dr4dI1bvzt6eUMI4TA59D+yhBBCCCGE2RqfsvzQx1ucftj/6fiUwxIKM0BSXC0WLrr9QaIkTMYtcgY2rh7ixlvWcf1zV7C4mlBPMppJN7W718s7/d/hT3YBAGRXjpJb4chTqlUWzgsRtO4PeY2O7c9kTE5mMAHda8H+qegwE93uayQokUYoiWxFJRl+y4W/W2+1oNHb2tP49GTWKw4hhPA4xA/dIYQQQgjhSXnpq5+Fsmpw8n4Byd6+fNReVi6kWq2qfoqXl0pgFubT2RUAykJTC0VBbFw1xOaJBSyuFGizIzeC+7mB46X6HJUEFkSi4d0/++lclJZIdv0TF+J79ZvXqRUWVhNGa4RLB0LeS/W+PjTUz/NShNiCKvo/fzsKfq0kFAWtKAtnkZEKw5tff9ds1xxCCOFzinfWEEIIIYTwpHCpxelHWLgTEF6/c9IB93JfVQMQg3vhAjnQsZu7iV04cPzECDe9ZAMnvmgZg8WE3d2Mtj4Y7k43TrvEA0dBgAMtk508cyxeuEleM4AFMD6Zcfphwfr7eH9fbwzzzlD/lJcoUIXEDNBF/HkID1G8XrW83mqxu93aeDvj1v/rubNedQghhM/hkv5JJoQQQgghXHjv/JkPIxXetpigGuV3thO/d/ekmyVkANbt8xRpTjh/zp68VdsHuzBccf0SnvGSDZz4ohVUC0TTB7v0g0HuJR7qnoN0LSwWp/P0rnNekIPyTMhLsCB2tzK2HxJgZ0/wKk78zBZJEKAIJEGg2EjaEPVHIr/ZCXjK3tZI9SQqG0IIYZ6lWS8ghBBCCCEcfjd80ZWwbEmtuRHDdoKvqEYmJiZ3F0nrQp9oCAtP3vR51LZCMxGKkth86gjXfdEyjlw1AGloJhmS732Oww/07V4uvGPlsPCdhxt/+N7JQjGgy8ULdTyaWR/kGoyGdldoa8dgZLD9k7wuuBviZWGmTAYRZnIlkq3J6KZXG/1E5cP/6oID5Ikve7E/+0uP4SO/fc+s1xxCCOEs8VYaQgghhBCetK9+zbMxHjfmckfCknZ1qhwaljcLV5a7d1eOXW7hWjg/uoldYvr0ya3Q1sJgMeHIU0bYvHaIaiGhrYXcnjXde9l3vgq5hRbXCn7iQ6f1/jsf4dJ6Ac/quhMu5HfeX5/RCqwMK5upC4DzmbqG/Y9tmBn1v1JUppgEwKiPuOxLjPpMQQOLZEz0lIjbfuL3ZrviEEIIe+JtNIQQQgghPGm/ctsHUJCec0ae5G0m3F7vOian1VjiXrirKN4Mj8P0+dL15AJtI0zGGUVFXHPzMm56yQaufvoimAyTnRa5PWuztcs+3AUkwgxd522yscN33QG/CP8UPNO32230ptpx6tPdZDWL/T3IiNeG2eueEJQoJlFOIjvwDMIecqSXjXca3PFTH/QMWbkAfO9/+PIZLzmEEMLU5f3TTgghhBBCOG98NECZ2lSUGcb2x2GG8ZYqyJ2kYsO18HjsPV+8C3Z3dzKqIXFtH+xeef0ijIbJuN2b2r3MNk97jLrkVK1QLaSdIlkNx7QW4YIfjXsTvH3Im7Pj5H0ZqvuQ13Vg87UwUwRIECJogBLBRhAIvJ1V8Y/cfxELK/TJTkYzybNebwghhF78xBNCCCGEEM6LMhHLi8q//rafwxWb2+8l8cncOHZOuizB0E8RxoZr4bPZH/CZEW0t1LsZw1HC9c9ewTNu2cAVTx0BACbjtrvs/6wQN0Ldg0gSBrQtsLxRlsPFlNq9GgtdlDtrGrZPQ15kx9Z9Ge1uRiqmE8YR8s6R7owcKAAlybathZ1T7fe97Nv+7m9fdcMSTjxzFQ/fuzvrdYYQQuhFB28IIYQQQjiv/tzLn86cJbXF33D4T8CtWd5MZVGZlMXoRQ0HdR2sU+5AboScHUvrBTavHWHtigGKgmhqQflRAkAyJlc+lz6tW1or8Js//4C27m9YLaTuDy/yXXcgyHVg8WiBwcigVnDfN4UNxjjSjLlDuRGUnaOVIm+eGKWljQIwLBtte2m1sv/nm97tn/8rhRBCuNCKWS8ghBBCCCFcOl722hdgsjOGty0M/v8Z+RNqVY4fyXnleJH2JvUiuQk42JHr7mhrh9yxvF5i87oR1jcrWCLaiTBpWgAHu5zjJMFjo77l1mWk2TbcV9DflRd7LftP8EjC6QcysGEYLCeoPVjXEK8TF8/BY7E7yaLsXFwtGOUCfwAAIABJREFUcPTESBtXdidZ2kZtlm87gGIYcUIIIcyLeEUOIYQQQgjnzX/7L+/Dn/2aG+UpEcCO5fxfWPC1za7y7rY4XKLltrvyt5sejADncrS/J9fd0dQOg2NpvcTxp46wdmwAGLrAtz4Y7Mb09xPR9/A6UC2mLXeszHI1B0JeCNufcWQZRqs8J+QFuk3YwoVx8FgE2lqQO5bWChy/bhHrxyswGZuJ572TLP2FwPZo0/QhhBBmIgLeEEIIIYRwXg0XK+yMa8gBN/wTOF5rCdV4S14tmNjtuIaoarj87A+TJKFtAMixsjnAFdeNsHKk7ILdSRcyTcVz5cnpjzkpC2vHS7v3f8++qW//Y+oGjB/O8BZY2iCyDoa8UoS85980PD8Y7C6vVzj+1AWsHatgydBOHE3dbaZGEIKUIRiA6GYIIYT5EQFvCCGEEEI4rywZLCXREwYDvX+8o4+S/ILcKo9PerF4xGQOxmZKl4+Dwa6jrTNIYu1YheNPHWF5vQTgaGrB+2D37FA3wt0nz+XYeMrgONRHcwfrjy+6/Y8xC2J8KsPRhbyOcyd5w5N35pjqp+cnAgxYOdrVoqxsVCCtn57vg92u4QOCQLKdfi2z2Z8oCCGE0ImAN4QQQgghnFf/7ba78JXf8Czs7jZp57Symf1zwH6KCb67LS9HhnJIeBtTvJeys8NZSWgnDkuGjasWsHnNApY3SsgPBruP9vnh/HAHikRzYBfAcB4y0+65AZBAURC7pzI8A0tHCSZAeX/IG0H/E/Gox2ItwIi1zQE2rx1h5VgJONA2jlb5nM/vpn0FCXt/6THCG0IIcyPeHUMIIYQQwnn3rtvvQpWSEgx0+3cQshlLM9fOI9ngHuHuJWz/46osTMYtXMDG1UM845Z13PCcFYzWCtQToZl04e7+58F02jecXy7AktdFaaf2TdDPfJS+GxDtJkmLgpiMM07dL7gDTPE68WQcOBYl1OMMZWD9iiFufNEabnj+KlaOFWgmQj3J59zXe8ciBYgA1RoFowCLhDeEEOZFTPCGEEIIIYQLYjJadDVbhJkS8s8I/HYmep7IdrddCytGqE+XIsA59M6ZEsxCUwupJI5du4DjJ0ZYWC2g1lHv5i68A2F0SDGxezEoA9WAvrhW5J2tDFazXtEZ0w3X4F3I204ytu4XVo4ksOw2X9v7mNig8XN6tIndZuIoCsPGVUNsXjfC8nrR1aVMzq1FefRjkeg7PVrsNTNERUMIIcyLCHhDCCGEEMIF4UWBio5xCzRI/5jwb68SCkvw8UmhGtqB6bwI+A6vA1OCrdA0QlklXPHUEY5dO8JwKUHZ0ezkvY2Z9i67jw20LhploVwuB+tXVRuPPHAaRVeVQpuTB4DoJkUlgAWhWjh1f8bSZkIqibwv5I3Xi0d39vR8U3fB7rFrhjh+3QgLKwU8nznJAny+YHf6hTHNeM/sfxgDvCGEMDfiHTGEEEIIIVwQv/XG34SVSUyO99744f8N4n19gNBAzp1HHEaH2Zl+zXCYdEEc0AdEbVfFYDRcecMibnrJOq65eRnVkKjHGW0tOPAol3/PZvWXG5J0h9w8lWUCHDKA3bX284R7lQ0siCzHyfta1BNHURBygdh3giAAAPZ3FE9rUQDD8acu4KaXbOC6Z61gsJjQ7Oa+8/rRjsXPfjCS8L4rObMAWACxx1oIIcyPmOANIYQQQggXzDE9gk9grfyKP7ipgdkbCP4coIIJXo/lk3FitQB4i5jiPSTOPEZdENe2Qq4d1QJx1VOXcewpQwwWiVw76nG3H9P+MC4e49mQJAOgFkiVbQG+4o45Kmk4aO/1oJ/y374/A8cSqoXuZILH5P+5VQyt0DSOsiKuuH4Rx65ZwMJyQm66iV30oa57N477eO67fVdatNNKh7M3RgwhhDA7EfCGEEIIIYQL5ra3fhJf/qrNpm0yTPqP8vbfS6hIZqM4fiSjGhQHgprLObCZd/sfm7YRcuMYLiVcdcMCjlw9RDXsgt3JTt77nHhM5wNJCpJaYXGtnDBZhs/3FObZrwun7s9YOkIMlwy5tcv6NWP/bc6t0NZCtZBw5YkFbF476oPwz3Isgv21vI/9Pttr4AXa5AYhGnhDCGGeRMAbQgghhBAuKN/6FHK1YQZ3yH4StO+UlEmmXEu7W5kL6wkQ4pLrOXT2lGDbCLntgt2nPH2EI1cNUA4S2lp7YdLZl89fbuHbPGsbYP2qcn2wkKrcCqmY78fmQMgLYfuhDPeE4bJB7eV1YuicY7EVci0MFhOuuH4ZR67qpufbzzI9P/39E/reJChBpHL/JXyezw6EEMJlJgLeEEIIIYRwQS1uXIU8npg3coO/wYHvFFkBcEvg+JSjGjlYdt2Rl0tYc1jsTezWQts6RisFNk8s4OhVQ6TS0DTe932e+fh4/OYWPcuLhWJkhbc+mfVyHpuDIS9w+jMZLsfCSoLrYMgL8hLdaEYgu77kthFz4xouJV55wyKOXj1ENUjIjS7Y9HwXrxOE2gTvJ3ijoiGEEObFpfneF0IIIYQQ5sbbbvs9JKNEB6A/lvhblCChIelwx84jGWZnNlyLbHB29k/7uXfBbj3OGCwmXP/sFdx8yzqOnxhBDkzGGWrPDZAi3J1bcsDcoSKlh/blc3M/On8mrASYiJ2Hhe2HM4xnBZnS/N+Yx+jAFQ1OtY1YjzOrIXXtzUu86SXruOqGRdAMk3GLtu3vn7M2Tzs/ayG6kg/mOhdovYC7RcIbQghzIiZ4QwghhBDCBVclR9MyiZ4N+jEBLyFQAoAlqt4VJ6cdg0VDbgGonxeLoPCimQZk3SZMQFML7o6ltQLHr1vE+mYFFoamdrT9xO40WJsGUfF4zaV+dzsQXW1qNjhG6yVOb7UoAKj7O8378Ov+IJcFMdkSvDUsHWM3W7o3yYtD/fpx9rGYG0nZOVxOuuK6ETauHDKVVFOLk3OORQAX4Lbv7+CFO6Do4A0hhHkSAW8IIYQQQrjgvExItWfPDsBud/qOhBGhbGQyAjtbQjmwA5N6/RXX4QI6GCYJbQ3IHSsbJTZPLGBtcwBLRDsRmqbv9UQX9kQVw1zroz6w705tISQAyWBY2yzr+//oNIBk/WSmYS/Dm19nh7z1Tsap+4XlzQTatOalmzg9bM/PRwl2kbNjab3i5rVDbFwxAAuiqbV3kgW4SLUoFCACdBkzAAIxwBtCCHPj8LzbhRBCCCGEQ+udt92FggUyxcwMCP+CFAS2kpwk1DjGWw5L08+axojhQtg/devuqHeFpnYsb1T4gheu4sYXrWP9igXkFqjH7YEASf3nHabw7HLSDbCK/ZBlC0KUChoMbvfkWq+44sbhtSyKX4Z3U72k0H3O/O90OA00zYBUEu2u4+S9Ge4OJutPDO3r5Z1zB49FoJkI9SRjtJpww/NW8IwXr+HI1QvKGZyMWypLPOvgu9DH4jT5F7zNRY2cmmjgDSGEORITvCGEEEII4aIYLDu0XUDKyK6fhPD9IAYEMgAzgpPTGdWioRhwr9v1sE3hzbP99+X0vm1rBwxY2xxg89oRVo6VgDua2uF+YTZsCheE1OV+DskE1JQqAEWX89oHy9K+d/vqo287svsI/ujdDyMtP/wXNNl4B8ivpiuLJCWC8z87P61iAAQWhGph676Mlc3U/b7VgZB33p630wcLgPrpeTZ1V5C8dKTE5rULWDs+gBnR1oLqvHfGq3uYLu5toghRoCyXD1yJPKhhqxHxhhDCvJivd7kQQgghhHDJevt//iDe89YPqVKBQU6fdPLXCUCCS7JpWDF+JAPuZ6bvDskU3rw7MIErdVO5GVg9PsCNL9rADc9fxcqxop8eFNz3hcE4EwqHuSMAjj7cldSQNJKVSIh8H8y+4u5n7DyLbm/78a98CzyDJ+9tkm0fx+iK019D1zuclvrU0KedvLO+YZ8Pib3XBxbdVQAn781Q7d3vdeZ5P0+vIfuORbk7612xqV0rRyvc8IJV3PjCbnq+rR317oHpeU6D94t+LHa16HCora8fI6+NI00IIYQ5Ei/JIYQQQgjhonn+q56HCcXd5KDrh/rrfknQJImJaHYdk+0zVQ2c/5xpbu0PtaYh12SckTOwcfUCbnzROp7+/FUsrSe0k4x6V3C3vX8l7AVL8a+GOSR1eZsMXT1qje5ESdVvfPfrAL60Gm+9ELBfvfkPRkiDlP7eHV+DV738KXrgY7vZqgl3Pz3Aqd0jLzP425yW+slSl9S3YM+3PuPdC3ldjq37M9qJI5WE2XyEvNLeC5m6AVyh3m3Z1K7V45VufOE6b3zBqlaPVmibLtj1/kRX9/nTft5Zrb87CSf3dv3Yc3H6U59Env+nRwghXDbiR7UQQgghhHDRrBYtzN3NHRm6U9B9BCmonXZKWgLGJ9VN4fWXYRPzNYF3GOwPtdQKk3ELz8DmtQu4+ZZ1XP/sFSysJNS7Gc1EcJ9OBarfmSs6dueQ+v/6Kdtu8zRRRrESADl+BWbPK6qFPwPHbyIXkDnLIXDVzij/6CvfgZvtZ7F8tALLQirIo0c+htOTo19n8LcRlgSJhHcbrx2GA49nqhgS4XCcuj+j3s5IxaOEvBf5JnWheTcVLYn1uGVugfUrhnrGLet4+vNWsbxRoJ4IzUTnTNvP17Foqj/yP/HqzefMeiEhhBD2mZd3iRBCCCGEcBl49213Qau1mywlFSDxk/0Ur0PyMyGMY2crw4iuPpTTLX7CY7UXCLkByXD8xAg3vWQDJ75oGYNRQrMrtPX+YPfM581PmBT2EQQTxC7XZUPRKJV0QtRbYXZTqvLXAPg9d6CqmNI1G1jZXNDK0UX8tf/jrXtf7L2/9CGkqkBioXp3lccWP4GT9fLXGf1tFJJEkX3UeyhC3rN6os1x6iFhfEp9yHvm7y7SjVF/UkokoSxNxi09Q0euXtAzblnH0563isXlxHoi1hPJ3TmvxyL7jgYa288MdnHb6B6Y26yXFUIIoRebrIUQQgghhIuqqBJUmXIW6On1Tv8HEEqA3mcvZAImp4Fq0VEOz2yYJEUP7OMxDbSeccsahisl2t2MejcD/ugfF+ZQ/+BML5Gn0IgqISR0v3+jA99b1H5PW00fQ6P5KY2Or+YffNk7PuuXfs/tH8BLv+GZaHZLjVvw6sH9+mRz4utWi3t/icBfmIa8EA/FxmvAwZBXJpx+KAMChqsGb3lWXcP5rzzoKy76pVDKYlM7Umk6fmKkzRMjDJcTlJ31bob7Xt5MgPv2XpsvgqYhb7ukJaRJASubWS8rhBBCb/7eOUIIIYQQwiXtPT/zhxgdO+ZSRs7tKQC/DAAgMiRKkBlhdOw8nAGdqWoADsss4XwgiabJeOCeXagVcu3Avond6YTgPAZKlzt1ra2urp8kE2wlmciSIgD+nENXCvyLZrjHC6IYJFblEKtHhlrbXMPnCnen7rz9bhRVBbNSpzTkVQt/gIdPX/l1gH7J+tFgUY7DOMlrBAti++GM8WcyLDls/5TveZ7l7b9ut3taFibjloDp+IkF3XzLOq575jKqEVmPM9tacsdemtv3685luAtgb9c9AnmsCbbzaTOLCd4QQpgXMcEbQgghhBAuuubhB1GWZZKUHf5PQPtaSEmkE2cmdXMt7G45FtZtrxd2OnkXPrdpiJWS4VMfPY3hcsLRqxYw2W1nvbTwuQj94Cyty1YpESWgRBCQftIcP4jkDxFpOo3NdbVaqWv9n3/lvz/ub/nuO34XL33lM9E0hU63q7ziyEf10CPXf/3i8P63OtPXUcyi2MeRh+IAPDPJC6SC2NkSMhxL6wbHwUneJxGqTiduNf2euRXaxlkNiCtvWNTRqxewsFwgN+JuNz2v/vtOO3nnN9XdZzrE7WQuJw3ggm+MZr2sEEIIvbl/IwkhhBBCCJeeO//rh8CCar2AUP0aYPega9vNAG2ad1gCxqeEPHEw9eHuXsgbPpf9m04VpeGeD53C+FSDsjr7MvUwB4RuPNYFsQ9UW4pJVEkJFF8PYCmT3wGkh6qy5GhU2cpmhc0rhyqvX8MTCXen7rzjbpSDAm6VJpMlHln7Q2xPjn+9If+SQ4ldlOyAqPM9+nqBdM/xbpM1FsRkK2P7IQHmB6scpMd7LHSP175wt23FyU7LlAxXPW2km750Q9fctIRqQEx2WraNdHa4y86FuOnnXdfUAZjQtkOiXSyQWv/8nxhCCOGiiAneEEIIIYQwExrR02SSHMgU/hWIf9LNBna/TLso1Qo7W47lowYzwPsJ3sPRCDpb0/AqlUQzEf74A1t4+hevIyUi5/MywRieJKEvQSCdQAYJQQWFBCID+Mcif9ipOrWEA1YMkj34zHv1b57/4fO6ljtvvwt/7huejTxxjcfrPLr4YT2486yvX6o+/Ysu+3pSuS8EJng4dj7siiW65zgLYvd0hlrD8rECLKb93v3Jjsdwi/aV5Iqk2lbMtWOwmHTl9Ys4evUQ1QLR1s7JTu7X0L2eof8O01aGC3rDz7vpnaNsuQDcIOZZLyqEEELvkL2phBBCCCGESwUTkUh18294Q5/bFlC/W3tf+cmCqE9nTE47mIBuYyThkAwRztw0vCoqYvtki09+ZBupMpjZ3tRiTPJedBL27nwTmSllSQWkAuIuwO91oEiZPwjkGuaUwZ62PvGFUX3ew92p99z+AVQDA1lotz3KI8OPYrteebkRb3W3REggvQssD8cTZ3oMmAlFQbQTx8n7Wnj2LuSdTvLisx4LUvd6M91ATW0jTsaZZUVde/OyvvAl67jqaYtkMkx2MnOr6YuU9k/sXqzbfL4JnL4ytwUzCrTW3awQQgjzIF6RQwghhBDCTLznP74fKOFkAWOaAHhTdxmwGqpPUXCmqmH3kQzJcGCrp0MRL80e2V2mXg2J+z4+xkP37KIapu7S9cObOR1K/eZphm5MvSWpvn+6IPmwgL8DYMGgH+0ugHcWg8KONivaWFv2U8Mj+MFbf+OCrvHO2z+EVJUwKzX2JXL9M1jYWny5G37R3VI/xerS3t5bc2+6UaPQ1TWocZy8N0PN/pAXIHggtlZf+k1QcLCtxd2dzGoh6cQzl3XTSzZwxfUjuBkn41a5PRjmTmsYDnO4e5bs7nDvNqwLIYQwH6KiIYQQQgghzMzC1pXYGX06uSwz8V8a8E3MrEQ5Qe/29emm69pWGJ90LG4c3HCNMbPwmEzvx6IyfPz3T2G0WmC4lNBMoqrhQhOkLjgUSZqoTBEgCslB8mE5/q4R/3bfGYxUVtSSlRotD/Dd3/pLF3XN77njA/iKVz4b3lAL28aT6yd15NTiK06OJr9gZq+UlPsCWqK7fXP/5OmbFbp6l4JQFrbuy1jaTCirrrak/7i9fl2ScIdyIyq7FtYKu/bakTauGFgqiaYWJ+MW6EPdaSDcf525v08eq+48BEEqKycAgKWoaAghhHlxybzhhBBCCCGEw+cdv/pueNHmka/gN37n938Hbn/UzQQyCzKcuSQaRmKyndHsnnVZ9eG4Snzm9vp4E+EZ+OMPbMEzkFLclxeOJMgpmgAj0HZdryycKly6x4C/iGKyYa5/62aAeyoHCdXqMC8fXfAf+NZ34rtfeXHD3al33/EBcJjAolTRFPzU8jYGZfUqyN9CY+qfL07h0Gy81lW8YG8DQnfHqftatLtZqSC65pKuadgdaGqx3s0crSZ/6rNX/OYvXtexaxZMAifjlspdFQP3pcKXUK77aFqnwc0sKQLeEEKYF5f0O08IIYQQQph/qSDGPMkv++KbAOCf9lWXTtGmHzO9fBoOjB/JMO/SsjMdsrNY+eGzv4/39FaDj//+Nop9fbxd7/GsV3lJ6LpXAVLsa0dkIgszMzP/qLu9YuJ2Lag3WjtAVRVpNEq2enwxr24u4h9+07vw/V/79lnfDvzaW96PYZFQpUJLueT41EmUo+ob5boNoPWppvPMJmKHAM9MrScCBpx8wFnvSCxIgGwmYjvJXFwt/GnPX21vfNG6jly9wNwiTcbtNMw9sC3bpZzsdtdKdB28SRnJWzRpMOtlhRBC6EVFQwghhBBCmKkCFWq2rixI+PdG/BTFUlSGmLq4hXuXVTe7jt3TGcOlhHxg8vSSzVbOq2kGVQ0THrpnjMXVAsdPjFDvtgAAQXsVGOFx61qkQSMAiq2IgmLlZkjS78r9BwfXLf3y5E+2UQAoq5QGRZHtC47kv//C22a9/kf1zjvej5e+4pnwnOSDBW7ff1prxxdv3dmp3yyz1/RpJ9D/eliePPurSSTp1AOZi+vu5RBY2qhw/LpFrR0rCSC1jZvqrooB3Qzw/lqTQ3F7z5MWBgAGxABvCCHMjcvpjSiEEEIIIcyhO9/yQdgguWUwOTLBn+63QsqkfO8D2Q0HWnKMtxzKvq+H99CMDs4FSTAzpMrwyY9sY/vhBkUVPbxPhvqqXYEOqJFkIAq4AOp3YP6lf7T5qee78ZevWTQ4kAaDwqortvM/+OZ3Y17D3ak7/+vdGAwSiiKpWq34cd/CxunRrRBuB42QnKR3nbyH53DcH/IyESfvyzp27dLpL/ySdVs7VlhTy+pJ9oMTu3tVDJfPwaJprj3djY7MvjvrVYUQQuhdPm9IIYQQQghhbhkMMANogOv1MAOgCiKkLizqN6nqApnWsXPSYew+TWc2pgqPwf4+Xgn4+Ae3kNvo430CpOmuXYKLbCkZxYpdh8hvAfbFHBe3uOM3b/nY1SgXUvGpT9bY2BzmteML/kNf/buzvg2P2a+85S4UZQIL07HxAu/ZOIlBVb1a8tvMON0QsYu0D1nIC4BmkDtSbn3JAUx2RHfXNMhV38JwWQW7HZ+m9gRaAXAAq7md7apCCCHsiYqGEEIIIYQwc2VKsHJH9eRKKONuDh74MIWbBWRSRT++u5erMHUbrlUjQzkkvNWBSbzw+U3vr3JAnD7V4J7fP4Xrn7UCyQ6EvHF/nqNriZaMpLGrB2lIlV1BAwHgHQC+R1X6YKozipZoLPPBY9TR7ab9O3/9N2a5/ifl3b9wF778tc9Ea65RU3F796SW1lZurU/XbzLjrZKchEskOB37PAQcgoHurmbcnVMy6/5sunnarJc4Q7a/g5cQyir5vcW1s15XCCGE3uX8JhVCCCGEEObEu978fqRqGal6MKXqfhjsHwsEKUj0/dO5Xb1AN7m780gG3A9OnB6aucH5UQ0THvrELu770zGqhdQNUPfi7jxAEKzP+wSpFWmiSokQ8BbAbqhqvcyED7LNKKtEPsWxvjbU2uoQhzncnfrV/3I3hmVCmZIG1QLHn95GNaq+Ca43m9EkgpRL3Z006/U+RgQBc7BtnSTgAGmX5cTu2bybySbQ7RaIqkz8Z6/6T7NeVwghhN7l/kYVQgghhBDmxJ23vx+WklokCPyPIHYhFCCyyL3IcW+yNBF54picclja93cRST5m0/ty2sd7z0e2ceqhCcoqnZnePTT53AUjQepPIJgogGgkJZElJVD4GRA3JOIbAf+YyQEDq+cBC6sD/fCtv4of/MZ34u+9/L/N+racN+/8+btQJkMqkorVAbcf2MVwsfwmN73JTHshLw5JyDst+5YBah3odhKLqpLemXwXbSbAYYo7JoQQ5kgEvCGEEEIIYW5sHDnig2QsAFD62el+Tf3+avsChe7HWEvAzpaQaz9QKRCZzGO3v48XDvzJB0+hbYVUXvZ9vOqDSYNIEFlSS8EIlgRA4N/B0jEV/LaytI8VpaGsyLxWYmVkOvKnQ7zulb8y69txwdx5x90oBwlFQVVLifc/8AgWyoXXOuyskBdzH/IaulcVc8Dle/9SjuHdzrRxo++Zhrnb5/+sEEIIF0u8W4UQQgghhLlxx0//GozwrAw5fkR0UCxEHZjMPbOZOwE5dh7JZzZckwAcpi2eZm+vj7cixtst/vTD2yiSwcwuz5C3SyNJwbpMCw3FRLIUAUFvALkmw1+F+4PlgBgtl/yRv/TrGG0sa3VjAa/7lvfi77ziXbO+JRfcu95yF1JVoCiolaVFfmb8SSwMhq914E00WHdH0vsu3rl9Esn7VxgDXN1/Z15PQt+CDgBZ7F9sQwghzI0IeEMIIYQQwlxJZfKTy4u4emf8ccB+p9+7veHZmzX1eRETUY8d9Viw1G/CFlUNT5BQDQs8+Ild3PvHO6gWuBfyApd82NWfGYCLMgpZRCaVJJX9SYYfJVgR/C4IJ+GgE1YBeN03vEsA8Lqveyu+72vfPtMbcrHdeftdSFVX1zBKG/bIqYcwGJavles/gTRJRskFzO2BSZuW7gL1OCPXPm1pCAL6PdYAoYUE98/3SSGEEC6mCHhDCCGEEMJcWdlew/ruuPjE8ghw/5d972OSdCBSIACJgAFGYOcRAfLLb9r0PJlWW5gB5cDwiT88ja0HG5TVmdD80iX1NQIGKVOUqASxgNiAeJ3DjY7vhaOBw4qBcXVUamN94Kubi7O+ATP37ts/hGqQkMrkw8EiTz48QSK/hcDPktNL/OHi/Ia8cMAS0ewKuclgcSk/5x+7A1dPAG33/yLhDSGEeRLvWCGEEEIIYa7c8Su/Dia0DkHMb4IwBpC6WOiskHdfVUOuHbsnz9pwLYLex2V/H68Z8Cd3b6FpLtk+XgHoN0+jCcoUs8hCVCI4JvRdcFUUfhiWACOLAW24lnzl+FCv++Y78X2vfif+9le9bda3ZS686+c/iCIRKSUNF2hoM1rhL7n4M1S3QR0lF+ewk7ef1mUC6omjbRyMCd5Ov9miCIhoERUNIYQwdyLgDSGEEEIIcyehQBLJnADwX/d7rUmk4eweT57ZcG28LeSJg+mSDCQviul9VhTE7naLP/3QqUutj7cLdgFDtwtYK8lJJlAFpYdM/JsERiLf4CTckKrSbDgqtHFs4D/8ml/F977sHbO+HXPp3XfcjbJKKIrkSmZrEJz6Njf9B4om0ig5NZ+dvCTQ1o7cIioaev3maqAESrnfZG3WywohhLBPBLy8tyQsAAAgAElEQVQhhBBCCGHuMBlYGAwOo97Qb3lV8qwJXmBa1dBXCHi/4Zrt3yBpLnOkuUYSMqAaFnjoUxN8+mNn+ngPsenELgEYoSxQlAqSdOFeAd8O51FP+lfIQFkyjZZKO7I2zMdWKv/hb343vufPR7D7+dx5+12oqgJFSr5t5PLphJzsL7v5f5gWugJyzGUnL6E2w+UxpNrrw10TCZGtSHjcOSGEMFeKWS8ghBBCCCGEs915+134M6+4SWUuIfATLSbvpfBnRTSQyrP7YMkuI2JB1GNhcloYLBK5FUj1g5qzuCWHmAQjUQ0Mn/roaYxWS6xslKgn+cAU77x38woSRYoydCcCWkkJYEEKAv/EhB+oK71xUAMGB2BFMUjt4iry973yzlnfhEPpXbffhZe+6lnAbqvtkWy0s+t1tfSXzVuI+DYCQN/J2z0M8zF8RAKTDOTssPkcMr7oKKDvQgdgLQCYz8XDFUIIoRevyiGEEEIIYS4VzQg12tSqBogf63fB6sPdszsCuPcnlroN17S34dqZADg8dtMQl6nbyO5PPriFphaKfX28c07TaF+UU2xImqQikZaoPzTHqxz2VIPe6N0/jVIa0gbHrF24hvi+V/7qrG/DoXbnL9yFclggJfNJNbSmegQA/jJdPy1xGhp2G6/NQ5LaXx/gGXCdaWg45JUkT9700SEAegs6YJf5fRJCCHNm7n8qCyGEEEIIlycmohgwozAkq94KcqvfDEt4lO2PSHYZBAllx3jfhmtSH9JEJvG47PXxlsRkJ+Pjd58CaeBeH+9chl/CtLG5e760BE1UJTlAfsAMX/mxLdxotDsgoBwwrYwKrK8v5421Jf+Rl/8afuClMbl7PrzrF+5COUhIpXlZL5naAkj4dpp+utt4DUbBBVAzfjJ1A6qAu2N/F8whOJlxQfUD1iYIgrIgOHzuDvwQQricXd7vVCGEEEIIYW69663/E5aAwo2eWwD6sX6MLEs6d7M1YG+wlwnYPZXR7DpYdD/ydgFwZBKP1zTcqobEw/fu4tMf21G5kGBmml60PQcpr/r/XBAhGIBaklEsJMGA3zLYLaXf/xw579Q9GwC8qAYGrKzmf3Tru/F9r3k7vucVb5vtLbkE3Xn73SirEizoVmbjfYSIb3fTv+/3TzSiH7k/Zzr/4mGfWZoBqs908M7+6T1b+ysaKM+Uw2KPtRBCmCv/P3v3HS3pVZ6J/nmf/VWd1FlqlEAowQiMYksgwAbMdSCIICuDwdgGE4wEEskyHoJJIthjL/vanrvW3PF47twZh3HADDZjcMKBmWXjuaS1PEQZ25Ja6nRi1fft/bz3j++r06dFC0vqUNVd728htXRah95V59Q+VU+937Mj4A0hhBBCCBPrz377S0jJABQA+BW1aVCfRNFhzrgfTZyaEWbA2v4CuB/SGRsevvY+NfTnEv7py8vcd+9AvdlESSQpjfF1hSBJMrU9HYLQiDKRfZIA8UkjLxfT0wX/TF0TVd+qi562hM075/K2nX28/5rfH9fyp8anfvtz6FUVEs3LqeCO2lAcr3Tp37UF2TRKrnG2ZZNtTYMBq8sZh87xTq9RuCsComXR4HHGWgghTJQ4ZC2EEEIIIUw0bW6E+xNQbDdT+SSA7xHg3SFN33I4U9fRCyaiGQjDZWF2S0J3wNaJ0h87UTbeb6TpHz6/zPmnVqr6RG66kLf9/eN5x44qdg0AKDUgewRSO6it3wX5DuXyeasM8AQAnN10tuZ2ruZ//dw/P45LDQDwqd9rD16zOmuvu52aNvm+svxKSjMAflBkYfs1HesDlGYYLGl9gnfaEfQNW20BAPvW99dCCCGMUTyzDSGEEEIIE81kAJ1MBZC9T13TLqAHPeZHap/mWiJWDzhK7RHuHqGNfbz1oOAbn19s+3jT+v16vDpUJcjVBoEFUAZlAnvt94b+Kxznl4RrYPh8b7bC3KY+d2zvYfPOSvOnFkS4Oz6f+p3PoderkHr0fb7cbw/usp/vDvJKk/AK1ZKhXisR8Ha6x7dJgqQsCe4x3RxCCJMkJnhDCCGEEMJE66kHJXe5A0x/SjR3QzpDZCYPfT57cMp0/SMoDbB2QFg4JR3y34SHr7vf2JtNOnBfzX/68rIefeFm1WtdeUZ7UNaxun8lgJQMpNpCBvUIdkfp4T8A/AnLuMcJlMqQMlJVD8t7XvGZ6OeYIJ/83c/h2T/wJDS151IcDiwBAAHrmgDGygDUg4JoaGg94M2xDAAW6XcIIUyUcf/sDCGEEEII4dv6o9/4AmZ7Qy8FqahA8l9sLxaWS3J0h61tDBYloTSC0bCwnZjbxghrjhJJMgP6c8TdX1nFvnsG3p9NGvXxoi3OOFqBqtT+z9F27BaRmVKi0CMBEb8CYIcqvELSPe4gHNykhJnts2Xb4049SksJR9Mf//YXkBLdABj8mxMVF5ohDx0eISaA0Tsr7a8SsgTEAG8IIUyWmOANIYQQQggTrz+TkGqTSoEj/UKivw9AD2DpjgBanzLzAqTKMLud6G8yMBm8xOTu0dJVMYCkUiXe9fkln99UoZohcqODv3+EsySC2i4OEaIyJSfZg5TUfh0/7Ib3VlmLaS7BDejN9llOrzW3OoOqqnDHcz5xNG5yOFZIH3pBcqxW4CqI+e7hPHa5UbTMdtiWnZPt+zZdB28kvCGEMEkm4EdnCCGEEEII397Hfv3vMb9QuSVYSliC9NE21IUDNEkqjcBkWNiRsPWMhNmthMFQGq2Hu12H5Lhvzgmvq9tl6lFN4/aNLyyJCZmp+432vn7Yd7TUfYXagNgAFEGZYgWyJwki3wNgntJbk3MR7RX1dufL/gybz+zr/c/+C/zrqz8V4e4J4F/lgn6VYCQMul8ACI09OTQDVIBIeDvrBSwAaBm0uG9CCGHCRMAbQgghhBBOCA5huOw2WCqoh/4hFYekVLKcybjplIStpyXMbiYAXw92gUM7JGOK96jo6hiEXp86cN8w/ePfr3hvxtzMRoetUQ+jqqHrXjWIJJEhiWIiWIkaCPgpF4zCOwCsAWDVp1U7Zn3bzr7/7Cefg7c+6w+P2Q0OR9+//f0vIblYSQDxVU5CAW/nkAqCad8zRuGuABTPKA4oRnhDCGGSREVDCCGEEEKYaDfdfhmaYY26FrYUs/f+1yfg//7Zr/7l539/+Ne9BXvq3ObU9OdQgWYQUPIDQt1upiGC3aOOXTen+nMJ93xttbdpW6/efvpMb7hWuqaGUTL0oNQlu6RkAgspSKxIQNCSCW8H8AsUIHMAYq9feX+m0vymHn7i+TGpe6J6/g0XY3UoNAIkfYXEd+Nf/JY59oyA5CiNr+8j0x3ybhjhZVvRgOgnDiGEiRIBbwghhBBCmFg3v+NxuP8uQ8+8mpmZzb3ZtfKul34ZrMpp286sZqtZtMe5C1AeDYsSbUgYnbvHGtcbGaiUjHd9fsnmt/YGVY9zG/p425ncQ3TRu2QijEIWQUJVW86ge+F4Z074t30nHIIbUm+mUm+20vxm4o7n/dF4bnQ4av7bb3wOz3zRk0bR4VcOZrtytBUdY2EGqHEMVgr6M8S0t7oI3bGW7UB+BgCPAd4QQpgoEfCGEEIIIYSJctNtl2NYO0px7P+mV3O2ljMslyywx4tJfESy700zBjhcRRVwcGK3xekeuDt+2N3vbR/vsPS+/r8O+L968rYmJfZKkX9LyCt0kbAcYKFAEVVb+IB/cuotSP6fvSTMzABzqZfSjKnKqcxUFd50zX8b800OR1MyolEBiC8fnN4d74PXCOTsqAfC7AK7SHN6bazgRXdvxPxuCCFMlgh4QwghhBDCxHjhj1yI1cUGB2qr3n3Z5/I7//aSvL0PwHlVk+s7ATxTsnaaTMoAqlEVwGEHRcNxMcpwq37S4p66/83/vbLvsU/cvKA17x/s45VImEAjlEVWgCo4QMdXALzNvfptE9CbM6RUpbmtVfnJ536ijPv2hWPIhC4+/AraEl4Xxx3xthUNzaAA7ANtR/DUOji/y/ZfAXhEvCGEMFEi4A0hhBBCCGP1Az++C16ACkMMxOSLpaCX8jPPAfB3/qwh7EM0XGnWXipNKgNIECuyHdmNZHfsCLSXtvfnEu756ur2Tdt7+3ecPtPv+nihtmO3AdWHUNENAD8n4A6eWj6e9yb0iqNUSlWvr5++4VMR7E6D0ZX+wm4AANGj5OMcwScJLwXNcKzLmBjcUNIAbzt4LSoaQghhosSPqxBCCCGEMDZvesuL0QwGtjaoUzVYQm68VLWjor7/e373SV+ogD+BcGU3oVuTcokVACcxOvkontNOgNEUr5mpmjHc9fmlmeGa7q967bQ1SaPUNydE/A/Rnzl8yhcuMbOP52WhN5PSzPYKO7bNlm1bZyI9mhakg4SIAyAdEkSOr/V2PXAW1HhsLgBEdMPVgGhZNHgM8IYQwkSJCd4QQgghhHDcvfzNT8b+xTV8ef/XUsmlGFgcgEPXNlvw4RnoXO+KH0lkgAlQT6KT8Ck/0n5Sjep2kRK9GZa5r3z2wPJ3PH37isQFFQHknzjwk/OD9JlBXzjlo9+FpTP2VSn18pkpl1tv+vS4b0M4zgggmcGBAdzvFnAm25jVMYaqV0fbwetuyMWBbjHTfGjjoR28Hh28IYQwgSLgDSGEEEIIx8UL7ngqMCzorQ5s74E1lkEprFJpnOglvWwRmz5gsrNEAwTRIVBJYjWa1iUjV5hwozoGVf2ElX31zm/+/fKecy/a+snBSvP2+aQvDnMCnejPIuXHLZVTZudyr1fh1qvj8LRpVCRfHg6R3bCll+4meaYkH2eYagDkgG8sCZnObLe1cYQX1t4rnsa7phBCCIeIgDeEEEIIIRxTL73tcgxXMurdS5blhHkpzkIQ8PK6yvDTJjulLdOVUygCK1AG0UnFxO6JRV3Ii/5c8t1fXz3lm19c/uBjvmPTF+/9ygqece2j029u/lr54eGF5Y03f3zcaw1j1qv62DzXsBQXxLu7SVlJsrGEvN7OqpoDLl8fVeUknPw2JqKcIkQBhgwAblGRHUIIkyQC3hBCCCGEcEzceMulqIcFy8vZ6ixSKp5YYA5zvR7k+wBuIQFIuf0VSWRFtcepgbCpTVVOXKMrus3MStVPKfX4V3vvrc+W7Juf/u27tW1lFp96zD3jXmeYAP/9tz6L737Rk5JKkahvEu2bAyDHU9FgbGt4CTS1ALWHB46OGZtKo36Gthm5m+CNU9ZCCGGSRMAbQgghhBCOmptvuRxWC6UR1gaypi5WJcqBIhB0vU3Cu9w46xBgKBRcZIX2smwnYFNbdnnyGPXxJpKNw3qey5/NzaXzRPjCrBlUIiAKAABLkNr08BtdkJq0ofX1eCIAOMAKGKyq/Tad8mIYghsCbus6eKOiIYQQJkk8cQ4hhBBCCEfF9bdejCUfYnFQ236IKnK0VZZVkn6agAu8U85ZSplkocB2YhdiO7EXz09PIiRdQo9tkH9uBv5TpYxeKZ4LcO0bLh73EsMEMLQPfAJf6wZFU3e22Xg4QBL1aoGKx/tNo/5dCsaSjWW9ijeEEMJkiAneEEIIIYTwiN14+xUoMpSqwmD/MnNjqmBukKNgE4n3uuMNwCgfUNPVLqS2YxNqJ3Yj2D0JtbEQBYnsqjheUlv1CYd+DU1jA9Cv+/HL8Vv/52fHvdYwRi66RAD4BgCQMok+llx11LlLoF4TJANsuofND2lo8LaiYbrvkRBCmDzxRDqEEEIIITxsL77lKjz3lU/G2oEh1vavcHDfAStZ7et/Ymcq+L+cXJL4BrUXXzeUisgehCTISSgOTzu5tcdS0bvArpAAXf+BwDlJyTH0VA8KbnzjrnEvNYyTwc0cZv7VcS9lHYGmLpAETnlFw8F4lwCrAlaARUVDCCFMknhCHUIIIYQQHpbrX3sZ5vYvAmU51ciAUQDczR6TqH8HYbeIV0kCqYZkIVCJTAQE0ggywt2pQYkilQQ2AODgX5eU4GBpcmY9yONeYxgnN3c3SNw37qWMkIAag2vq092N8S7o3tB92oeaQwhh4kRFQwghhBBC+Bdd+7pd8CwwCWtNoSUTgOLFYF7OA9IHCVwnsUsD2JCggB4Bx+jwtBgwmEokCFAUeiAygNOT17+ZgeuNSbkRrnntxfidX/7cuJcaxsCs3VtgAGQHJGwlx98CoCLABdiUb1vqLraQYN42NbBEB28IIUySKf9JFUIIIYQQ/iXX3XYRhFUMhzW/vpahxlV5gZkuqgwfLUhfBXQdRhO7kpOqRpEA2rrGeN4ZIMohJrRtHtdV4GsSHKXItu+Yx3W3XDLuJYYxcABlYQXcsxWCf5UgBI094C0F8LGvYvy689UgAjmp5CTkFHdMCCFMkpjgDSGEEEII3+Lmt1yOpmngxTFcRrXvnoW8dceathhh5pcOUP0M3J9tcAAGErXARKkH0gF4N8sb1zeHEXK9rYFFQAL0yxD+xAx/f/c/LaWqx/LiN1yO3/35OHRtuhiqxXnT1gMO2FcBXT7u94TaUwEz4Ba72IaEl54EAKaIEkIIYZLEJEUIIYQQQvgWa8sZg6XC3V/aDJWc+5sMZnj6vPyvIPwdoWdTBog1KJfYJ0CQQlQxhAc3CnkTgab9luFfkASSFTVuzWrGjbdeNu51huOIJmQkEwjCv9b+KhfGW9PgDgzWSrSFb0Rv/7LxT1iHEEI4KN52CyGEEEIIuPH2K9suhSKUYZOaJhcAWt1fYes5+N652ZU75Xa5EwAEiBltSNej6KK8OzRt2mfdwkMhCEQPQAZ0qhf+Xt/rF5U+vAz7aCI7mirJe6h6xUoRIH61mxYVKRvne0UGw3A5w07tjW0Nk2F0xJocPureTWNcTwghhAeK9yJDCCGEEKbYdbc8GS/6scswWFyzlb2raTB01INcGh8CjqtPv2TPl+T23yVebuYg1FB0UBVFB2ggyJhxCw8dSY7ObUoSJOKFtfVvdZ8BEmz2wh249pbLx73OcJx84nf+DkzrW8hdo5MaJY496R+sCOCUv281OmDNTKhmAc4CnBn3qkIIIWwQT8RDCCGEEKbQD//EU/DCH3kS6sEqmmGTvBQHUNrpLN7MMvsVd/t9FT7BCkEqt2ELq9F0HRjPJcMj1ma8ghFtiEfo55HLRcju+z9/f2pWG7zkTbvGvc5wnFTWbSjUvWxHvHvkmEe5DRiuqs13NdaVTAQ3eK4MuWcoMcAbQggTJSoaQgghhBCmyItvvQrNsMHePSuWATKjACiEweEvL8PyQQKndwcLiZQAJIlV+89EN4A55SNt4SggCAlKELLICq6/orSZFYty4WAtR6w2LQjvGl7u3VC9O56Atz07EuaOPBRsyt/K6s5XA2XggQIY0JuPh2YIIUySCHhDCCGEEE5yN95+OeQNsAIM15ZNtVEsBZbaMkXqtTXwXjp3CGobdtvpyoqkSXISo47dEI6attKZElARynBuQqU/qBOf69UmsV7CNa+/DL/zi3837qWGY8wd7m2cuxtmiwS2CHCux63HmQFuQK4dsOl+P0sUKEJ0L1sWASXk/rhXFUIIYaN4kh5CCCGEcBL7wdsuRV4ZYmWvbLlxKhd3oDgAL3qLC2sG/JKLO0RlkqUNdVGRFAAnScTzxnBstNflU4CQRAnEc6qit/aaRZTsVt1f48WvvmTc6wzHmBt8uV9jrcoCsHfDb401XS0bhsil6ZxaHU3wupvPLPVR1bNwiw7eEEKYJPFEPYQQQgjhJHTjjz4BL3rhNuxfdK7WbubuDiibpcTybocNQX5I0KzAQipTTIIS2lAX6PoYxntLwhQgRYk0it5maPZBgFcA7suzxrpkXP/G6OM9mc3Uhk1NL83lCia7v5sadWF8PbzmQJGtn7E2rdcwiAQliOZPLf+MD7/6L7F3dm7cywohhLBBVDSEEEIIIZxEbnzbpRgsCWu1Wdl5tilLXVa7kKR/DeKtUhtXEMpoKxiSQCfl3YFXUxpjhLEhSEggE8AMqRL453AuAJQ3ztL4dI5PTollzLWl4NlhxNcpXjGusxzl3Z9LwKS2CNgAiVMa8goAYVD5TO8i/K+f2YV+b/+4FxVCCGGDqfzxFEIIIYRwMnrVm8/C6h4xLzuaJrvBRfpmCD8Dw7LIt0k0Ug2pIjJBSiTVHpoWVQxhnAhJolSJqCnMAfpj0rGKb0iqp7sI9ST3Fx/7H0gVAAqCvtJN8Jpw/HN9sm3+NTM0taMZOpgAjGEtk6Dt3xWSkIezB7B/x/3YvjdKeEMIYZLEBG8IIYQQwgnqxtt3wUuBZWBQwHv3Z5UsmRlI2+Eq75f46vXIVmraK23ZI+UUHIyJ3TAxOOp9htQDIQDPgnDHAs/+gGr6Ta+/Cv/lFz8z7nWGYyRZcrYdHV8FHCKM7fDoWJCGphaaYUbqTp6cRkJ3yBrUVLmNEMSxNWeEEEI4jHgyH0IIIYRwArr5ll3Yv38vlpca7l7LyMMslQxzPFos/x7QHoCvZjsF11ByEpXEREgAbXS81bhvSwgbEO33qkmy9lu0vN/lT8tNwcpghde+6nK89M1Xjnud4Zjw0V9fecAHx4NAqR156NO9U7INeUGWdopZsPGefRdCCOEBYoI3hBBCCOEE8dK37EIeFpQsrKw1ycqmgiQRggvnCPwIiWvbSSsAUMP2/Kpee3hVG5xN71FB4YTQjvGKBCFlkRWhT/eKzXlG3aBhWS7TOUp5siO9256+DKAtvcX4RkVJIGdHrh1zm8e1ivGjCFCAkEEABrjHBG8IIUySeHIfQgghhHCCWF7MWF5seP+SozSltPNT/qRZ8WNGfB3AtYKgtmPXCfbE9vxzEE5GsBtODAQoSQArQlkCZfanv9f7PHbumxVq2ctffdG4lxmOtlFsL7u7+ycb5ytWklAjlMZhxnHOEk8AAkCjbnA3JnhDCGGyxARvCCGEEMKEuvm2SwFvMLAEDazCN3ZnnLZdyRykPRkod8rx3W5Ae/UsawgJVE+iupC3m7cK4cRCEoKcYAJUQDz16nzR++49ZfXtxeF/fuYp415iOMocGvXcOoQ1knPtlQfjS3mnOtPttAO8gsjM0n7M46dKCCFMlAh4QwghhBAmzEvffBmaYcbyokxy7vjrU8qeq3bndOXjobvue9ZM0p0CnyKhq9FVDbInoU/CgXZsNy7WCie49kxAiSBZVCDgJw34I4P96cX/sI+XvvoS9eYSfvPnPjvutYajICF5ggMwCPkuQRdyjBUNEGAJMB4MNCVh2i6GYHvMGgg18va2W0TfIYQwUabrJ1MIIYQQwoS7/k0XYXFfjeVlJa/lMJS/uf6fQdPz9I37/hZuf+LiU7qQoRblICtJxrZ61xDP8cLJgyRFyUBkkjDiT7znCw0aDfOQq0s1bnjjrnGvMxwFMuFvz/oyZgrh9H+gCFGjk9eOPwJqDDkL7ALeaQt3AUCgdyFvphUkK/D4MRNCCBMlJnhDCCGEEMbsh952KeoGGKy6re13AipwFsuAJ7zg3G9WPwP445SINsP1DDBJ6rfnUWFUrxuvuMPJiAIFoILUkOhB+Iu5//Rdl62+6G/ks43VdZz4dDLwknDF3edyWA0F8a72YC9KgB33XNUBJEBFKI21b535lE7walTTgEYEHA6LR1wIIUyU6frJFEIIIYQwQV72lqfghtdfjj33Z1vcW6fhQF6ySoIDbi8tM7gLwEfN7XHF6ZSyREhIABxduDvmmxHCMUcChASwB6AAfunaD376I2nzEEZ5nROu+7HHj3uZ4Qj1zOGJqRhA4q7Rx9lO8R5X8tGJb4Y8LKN/nE7rP2pUgARDZQdPxAshhDAJ4gVBCCGEEMJxdvNtl+Pa112CxQMDW1oaJGW4GQrMYdSrsni/Uf+Pm86GQ6Jyl+VWoETSMcq8QpgOBNojAyWQnkDxTRKfIwe8XmbdENe+7pJxrzMcgU/83v8HpoSu9fWbXe9rGkeUSGu3VyagHgiAT2/Ae/ALkMe4ihBCCN9GVDSEEEIIIRwHN92+C8vLNXIjrCzWlgvIZAVAsVQgtzcY8A6AO9QOSzmFAipBrEAIhLURVwhTiRJEkpCywIrUH4C2zdwPFE/J61JuuG0XfuPf/O241xoeoSqhPU4P+Ae0va+JUHvy2pjkWuNqAZ4I6/O7QMPuyzDFd0cIIUykeIEQQgghhHAc1A3hdbHKjCXL20tdARrfipKWDPg5SDskZVIFEgAkgN4dnhbP28LUI0FJbR8v0UCAYJ8eFkdtXpoGNhjEkOGJjd5ud/zHLla09mNjIMAINLVjqlueu9F5kBkqQCmATes4cwghTKZ4oRBCCCGEcAw947XPwQ+85iLWq2vmDgcgB3pm+CmXNzB9UNAmgFlkJpEkJpKOdlSKiOdsIawjCZFOqScyU7ioR/7ijFVIyTzXBde97jvGvczwCNWD7M1QUKN7urfBMJa+1y6/JA1l4FPbzgCsj86DUhYJJcKmOvEOIYTJExUNIYQQQghH0XVvvQylFFRDoBS3YfPPVuciOZCImVL0bgPe1h4ZJQBsuqnEqu3WpZNwRKgbwoNp5wnbvyeQcPDHi5dPOPz3rViq3cv1r70Iv/nLnx/3WsNDcP1bL0XxAlsF1pbcZnZUfsHlg+U//1Xt781wW1dbM55N0QzDYYH76P22aTxcbHS72Ry8/dMceYcQwuSJFw4hhBBCCEfJ9a+9EsPdwHBf4eKSYzgonhvIHduN/AUBAyPfJhKSGpKFVCUhsT1FbRTsxnO0EL49QnISJqAQAmUfTUjbk6HILdW1cMNtu8a9zvAvuPa1V2DlXmCwx7m0ZLCqaO2A4e//stfv9S0rCxxVBIwBCZTa4VA0oANl3AsIIYRweDHBG0IIIYRwBG5+4y64hGEuWGvWWNxlgOAGADsr6CMAXt5mEwSghgBB9iQ5SefBKoYQwkNEkoJEKAlsSPUE+58Z6XH3/O+Vcub5szbrcR35JLrxDVeiZCDXQ9TNkDAJo9FQtwDqP2MAACAASURBVNOTmg+VGi/bckbC4u4C1Uqs2qseOIaUtRkI5oZpPVpMEAhCUKa1979rOu+LEEKYVPFCIoQQQgjhEXrlHRfiwHKDxaWGgwNCyRKdMMe5Vcr/GcBuAS8XCRJNeyU5KoAJgEhGsBvCEWA78O6EegALYRf0vPzq973sUejPyHMzjZfTT7YfvO1pWB0ewNrqKhsW5MblxQC386uUfx3A3QJfJgFm5lt2JljPpNKGuzrek7wEcqOpPmTt4BlraFTaI0ItjXtVIYQQNooJ3hBCCCGEh+H6N1wBF1DXwD2765QGXkof6l7rPsGt3CnxhaABAkg1ECiyx25iFzGxG8LRIEntIC8Id6RcC0X6oW98Yfm/LC37H5rVfNd/fJbe9bI/Hfdap9qNb7wMUkEuBYtLB1KztL2k+WWZG2h4IogPCrgaAgxs902QKjJW9C2ndpO8RWA6vpO8BCA5mrrAEqeygrerQIaAPLrXpzjvDiGEiRQvLEIIIYQQHqJX3PEkDFaGWF0aUPVelKzizABwmfr6pINfEvlCQiDUkHKJPbAdgEJM7IZwpAS0yS4AkHR3sB7K6mFpFrZWX3vCVTvWLrhix7uf/dwz8Y3/9171dvbGu+Ip96NvfwJWlwtWljLX9vdRsgpMgPnlPtQn5fiiqKsptROilEPsdeE9lEX2jFt2JpjZerh73CZ5CbgMeehT28FLEaJAMYuCOKqsCCGEMCligjeEEEII4du47tZLsecAsHnWsXePKppyhmmmqrGW55/utDsN+E6I3ZSTaoE9AlUbRLRzvIgjx0M4EqM0j+jqTeRupRYkrG09tbfnjAs2NVtO7T3Ki8/lxp+8f2aIa37tQpToCj3urrv1UuxfcsxXwO57SzJ4gbuS9wAbfmeaW/kgHE8D22ZXiLWIHqSKZLudCoRkJKAssE9s2pmwtLscEvIej0leB9DUjplj/idNpg0TvE1M8IYQwmSKgDeEEEII4TBuuP1yDAcN8qCx+cr49T/4Rjn7ex6bd576KNxzz73PWK23/qwBuzR62UvWhHoS+iQcgJMR7IZwhEYTu10VA9zd2QwFGFa3nDKz58wLFrTllOqUUnxTvSZ4e7CapSG/B45PliURU3lh/fG3cd/sO7h836DM7pgtWzbPY/HA8jM0s/xzlF2m9W1RNcGeqD5FB+lo3xGz7t0xsK26gbLQmyE2nWJY2uNdJ+zxCXnN24B3Wid4N0S85eBFKBHxhhDCJJnaH1EhhBBCCA/m5luehNX9NZoVJVjjDpRHP3ULHHj+7t27P0fizwDf5RRI1WB7yJNE60KoqGII4cho4yX4JCWJ9bBYMyxr20+f+foTn7bjvgufvPXUhW3pscO1sqkZyrtwtyEByJ4HA5phSe//3eeP7YZMi5tvvQir+4doVpUctbuh9OcFd7xg8cDKFwH8GcTLROv2TTnJXjuqSx2um7xN5gWp7bkpRZhZSNi0o4JLx6WugSRcjjIssKlNeEfvkbBpfx39mAshhDApYoI3hBBCCAHAy994CZoGWJXb0hpYmqaALLICyK/j3PY75Ti/PUqdYnsJcWonz+AgnXF4WghHw4bD00BJaIYCycUdp8/uOfOCBc5tTmeV4v3hoMD94MS8pFGJA0R/RuM1ho01sx49vMfCIfvmCliKCiwVmYOOG9Cb/6CAc3x931S7b4J9Ug/pSoeDAS4BF0oWZjYR8ITlvaWNHY/xJO+oosHWc85j8secCPK4FxBCCOHwIuANIYQQwlR7yY/vwtqqsHe5GJrCklBQrLg7EvDDZTD7DgfOcTfQ5SAbQP3R+T8EHURUMYRwZASIEkQSJF1FbGqBiUs7z56/5/Rz5+fmN1dn5kYzw0EBHN4esiaizeDE9rL+HiAYuKvPmXkAq03thrim/Kh5yY/vwupaxt5lP3TfVEFi+lENZ94p4DGAgTrcvgl/ON3kGwNcqa1rmNlMuAMr+wrceGxCXm9X6HI0Q4d1qz1e3b+TghxNUStLBAAz83g8hRDCBImAN4QQQghT6ebX7sLK/RVWhivWQPTMkuiF5gD5aoDvBfxUOUFA7RwhE4F+G0IBmOY5rhCO3Pp19aOJXRKmIuuC3X2nnTO/ePp5C5idT+flRmmwmgGsT+xu7OYdPRZFyARmQpWcVxH64zJs7AMfvdrveOHHxnAzTx43vuZy7N8NrDZDq/1b9s3XgNV7AJwq2YPsm+287SP5sw8X8s5uaUPe1X0FrI5+yOsAjIA7kLsOXgeQpijcBR7kkDWLfDeEECZJBLwhhBBCmDp3/NIF+MJnG+aFgafsDkNJEjzhVsneB9gm0ACgEHIBiWJFSgCN0zS6FcKxMapfGE3sYjSxW/W5/4zzFu4//dz5Tb35dGYeqtcFuwIJtp/nAEZB3sbHIyX6aOIQ5jfI0x8PB47ZQQzZH4lXvAXYu1jIzcVLI4dQkgue8AbJ3g/YPGQAVEgck33zcCHv3BZCBRgsbgx5H2mMfCjr/nIHmmFZnzeeugleEaJAMYvt+zKm6bn9IYRwIoiAN4QQQghT4aZbL4XTMFx1++LfFctFwuiqbedPueEdgnoUASgDMIEJgJPtxODRiQxCmFoC1qd1gbZSwUqW5VqoZtOeMy/YvHj6ebP9qp/Oz7VsuJIBoJBMkgCJaj/vwR+LBy8nB8Tn2qb74OoL2HJcbuTJ5GW3X4yVYQ/Ksj37GiuSRrUFcL7DDe9sB3O7fZPdvik4KRfgPMr75gNDXhewsJ1wF4ZL6kLegwezHQm5QLT/P8oOl7U9vNOm7ZwHiGZ97j7eLwkhhIkSAW8IIYQQTnrXvOlKrB1Y47CW0+ikPAF9J97lwB0mQcRoOskIJInWTZ61PZHT+KI+hKNjFAmxC+YKgFSykGuhN5fuf/SFmw886py5LVXFx+ZaHI4mdgF04e7GUPfbPhoJmgiDABnOxurOnYDfh4V6dERWeAhe9obLsH+xYSmrbkruKE7anCe8U863ma3vm40oHrJvkmyndo/N2h4Y8hLEph0J8ILh8sGQ90hbdGhdJwPbQ9ZKns5vH0nW3ddl9DD0qOANIYSJEgFvCCGEEE46N962C6oFJ1DqwubAQMiSGUBos8T3GXGL1mMnlHbYTxVFB+EkLCZ2Qzhi2tCTK5LMjVJpXDPz3Hvm4zcf2HnW3JZqhufXA2G41ga76/26B0Peh/VY7C4oLzQlGZ5J4bfyMCdEwPugRvsmADS5cHG1qKjdJQ2+FUjvd+B1Gm2c5Gjf7FFsp3WP4755uJB34ZQE94J6VUhV+/Gu1uOR667dyI3Di6//eVMqj3sBIYQQDi9etIQQQgjhpHLdLbtwYHWItdUhVxaHqAdZRQAMZ5D8ZQcWjbqlDQbUkHJKFJUoChzNa4UQHiFt/LWb2GVuxMFqQa/Pu8+9ePNdFz3rFJx+zvz5cuwcrGSoaD0E7oK7R1x0qrZEuwAACr8X5ihN03zgY889Cjfv5LNx31xa7fbNLEA405B+xeH7Bb2u+7ocum8C6t4UO+775sG+3S50lWHTKRV6Mwbl7tvnSMLYUQ2BEWoKVHw6fzqM7keyQVuVAlga96pCCCFsEBO8IYQQQjjhXXvLlVBd0OcAq6tDpiyBkIEw4Cx6eY8DPzwqEYTQtGGEeu2BTHC2NQzT+NI9hKNp48Qu3MG2isHL/NZ032OftLC847SZU1nxjGYoNCrAxond7vOO9EAuSt51aAPA82vMoqwVzGyKAcSRm2+/Ap4L1lZqDFeHKWWVdvSZIPAYh37aDK8ABIEA0XQH3PXI7kqHNgId677Z9u1umOhNxOadCQd2F6hu6xqO9FA0GpBroAhInL4x8FG3CYH1kgqbunshhBAmWwS8IYQQQjihvfvNp+CzK8toauOS99X3Wt3Q1WMBfMSp69SGuiDQgKgk9NBeeKvuNX8EuyE8ckIb/IkkSLo7WBqhFNf81uqfzrlooew4Y3aLmV/QDB1N03XsEoQwusT+yEtTR0gnZG3w52f1kbeB2p9rdicrTrcPvPKx+OvlVXjjLL0Z+bAu3R1/HoAPO/UDo30TQEOqkthrQ10eLLeZCGzftxvVNZQ25N2yM2Fxd4GaIw95SaA0grIjzUzh6WKjOnqpGTVwsEz9wyiEECZKBLwhhBBCOOHccPsuNEbUVYO/2dekb/7P7yhnXfY5uRng9kTRPkzoecb15Klpp3NZrV/63YYTU/hKPYSjRgAgiWincM0dlmtBxZuF7b17zzh/frD99JnTANvcDAq8PZnJRxO7EHSk07oPggIdUAEswf2FgP1arsU7f/2a8hM3/s4x+CMn2023XYpsBbYkfMaQvvQP55QnnPE1mRnc7CKZfYjQc2z9avyN+yawfugkJ2/fbCdM+S0h7+ZTu5C3+/dHHPISyLn7bpq4W3/siQQliMzsKi9KioqGEEKYJBHwhhBCCOGEcf2tV2E4aDDYXyO7yDXJF1C2nvuPMGLXbB7+jAPPhLy7pFg1xZ6oHsFRsBTBbghHRAIOViqMJnaboSD3evO23u4zH7ep2bqzt92FRzcDoc111/t1HcAoaDuGU6ACwSIowfgiWvm1pslY1XRNHt5w61MwHGSsLQ6R5Sxm6qOUnQv7YI5LMGh+DvBn0e3gvgn2BPTYTjufEPtmO2D6gJC3107yHrj/yEJekmgGGZJPZcA76meA0Kw/YqfrYRRCCBMvAt4QQgghnBCe98qrUDf7kJte4oDF56BhXSHN61kL2/a/38WnCgQpmFiD6gHsibINl35P40vzEI6W7nHUXaJNFndP7cQu6q07Z+4+8/EL2ryjOk3F5+s22HUcjILWaxxwHC7vb7cCkAJEPKUowWml2rIyNTUNV//o0zFs9qBpqjQ7yKWZTVpJBLO+c8eW/R8ubleJGNWP14R6AKt230R3Xf6Js29+S8ibhdQnNp+SsHxfOfjxhxXytt/2pXGo8e4u0RH3+p5QDpbwlvXqXYsO3hBCmCQR8IYQQghhYr3k1ivQFCErW2lWiLRS4NtKVfXhWP2+/hb/sLtd7LL2pB8qS0wg+hQclBMc+yFAIZzg1qsYunoTc3drBgLMV7efNnvfGRcs+MK26lEqPl+vFbgfnPw8fhO7D1g0KUKpK/o9C8bz4OVruc4ndcD7kluvQC5Co2y5WSTToDg2l9m1jMFM9f1ban0IxMUS2yILKQtIIPtsz1NjF/iekPsmu4qJ0cFrJQu9GWLTqQlLjyDkVRd/mwFNrRMo7j562B2010bm7X1mjIA3hBAmSQS8IYQQQpg4N77tKtQrDZYHQ8tDJ1MuUCpEAuDX1Fx7nxd7AtC2bBpRC+hRrLqeSMcJcElxCBPukAyMpEtiHgowrO44c+7e086b723eXu3MzcFgt61sEAF4N7E7lqCQANGOpzYQeiKeQeFrzUD4wMefgzue94fjWNYxM9o3lwYDK0OQqRSJpXKDua7bv23mpwE8Qd1IM6kaYk9ERUgA/GQZSR0FuADbkLcIvbk25F2+/+GFvOu/a0AzFMxP2vcGHtxhKhrYRMAbQgiTJALeEEIIIUyMG2+/DMOBsLpnGblRSpUVwIoByG43luVNHyLsbLE7312UiASpT1JqT3g/KQKKEMZkPbXZOLEryZqhg7T9pzx6bumM8+bL/NbqrNx4f7h6yMRud+gaNRoDHSvKAViXTl0Lt1/NQ6nJJ09Id8MbdyE3GYO9y2hqJVYsAArgcLebhivzdwJ4rJsBkCgKVJLYb7dNjnoHTiqHBLgOKAv9eWJhh2F5j7czqQ9jktdgaKfWj8PiJ0w3vQuBmd0WkTk35lWFEELYKALeEEIIIUyEx15zNYZLX7dhNhrUBRSEW/kROT9A4lGSQZDTmQVUpCqIItsahpMuoQjh+Np4elo7sVvEphZS4tLOx8ztPuO8+dm5rdWj8lAzg9U2Q9w4sQuAx7uK4dujE7J2kBffh1wAADbIY17X0XHbB7bgq1+tLWdnSqN9E4Dhh9z5odG+CUB0la5ft6IgEnayb5sbA1xJUBZmNiW4G1b2Cm546CGvAU09pYesdVPfoBqIAGBmZdyrCiGEsEEEvCGEEEIYq+tuvQReF2vyXcxZBUjF5QDTG1z+bji2yglAIiGASVDVHfM0GVOCIZzY1psUCAikqcia2pGS7Tv9vPm9Z5y7MNObS+eWRhwsZ6ANEm09DwZHVaWThhK862Xto5+eCOBLXtno2KgT0k23XIxBQ/vKl52uXAArcAcs3eLCe821pd03IVISkABWgNBO8E7k1+qYOFzIO7uZcDlW9wms+JBCXqOhXjthv2WOyMF8F1mjioYSAW8IIUySCHhDCCGEcNy97LVXoJSMleQcrjnUFMlTIQ2E3gLYOwUtdIfkZECARsGutOEAoGmcpQrhaBEAbqhiYClCHgrVDO8/4/z5faefM7+5N5fOybXScDWPPgckU5sKA5jwA7na8A4NiR5gz4PrS7kuCSdYwHv165+KXAuzHHB5IPecXUJJdED+Frm90+zgvsn1fRNVF+oC7flpU7dvfmvIC8xtJSTD2oGC9FBCXgNKrSmd4OXo1LoCCb2ZhLmFhXGvKoQQwgYR8IYQQgjhuLjxjVeiZKCgxr7h0LwpJoPQzgwaDe8C8FaJs2wnhQoIl1SRdBDeNime3JcUh3CMCVjv1wUAkbSSxVw7+rO8/9EXbt5/6mNmF/qz6YJcy7pgt5C0tl8XGufhaQ+XJGsreAlRz04lfaSsWvOBj38/7njeJ8a9vG/rpjdeiZyBjAY+XLLSmNWSPHXXMBDvceDNRs6qjasLD7dvTtHE7oPpgv4NIS+xsM0ACYOlf3mS12Boasd0JrzrGgDo9Yk3Pfdj415LCCGEDSLgDSGEEMIxd/UrLsG+exv0ZxqWxh19euVwoy+46w4lezvUHeRCZQjWHvJO6yYLAYATPCQYwolgY7hbAKTSCLkRZubTvWecv7D6qMfOzaaKF+RaOPzEbjvpO76b8PCRdGF0YTm+O/cKsgq4BEPbGzyRnv/yy7C32zfVuFsf7k6n+bypvEPg20Cgy9xz26kLSjQSsW8eRjuIenCS10Us7EhwFAyWhKpq767DhrwGDAfl4PjzifH+xtHg3bA/AGWA6M1EjBBCCJMmduYQQgghHBM33XY5ShGahpAa0l2Ayeiga0sh3ge313tXuCCqIWASK1JO0LtLiafmVXQIx0oXWHUX6dNzo5Qb+exCtefMCzft3fno2R2px3ObgZDX2mC3C8HWu2pPlIndw3C0NcGCOJuIJ0r4UjNwu/MP/g//ied+atzrW3fTbbtQSlnfN4u1+ybogGNbot4j8fVgWy7cVU8YxEpo981pODztSDywroEgFrYnuBfUy0Kq2ktI2mnfg59nBpShH3xH4IH/wclrw8iyN+NbRgghhG8nAt4QQgghHHXPes0zsLp4AEUNIclS1b5aTniUJ77HDT9m0mhit+k6Iqv2pPv1V81TfR1sCEfD6NE0qmPIWSi1OLe5+uezn7C5PuUxMws0Pr4ZCrlen9glDoZgJ9zE7mGQFCQWUpRwDYkv5drhZTjuta179mu+C6uLiyjKhMrGffM0T3yPGV4lCaBAoRFYkajarxPE2DcflkNCXhKbdiQsl4J60IW8OPRb3wyQHLn29c+bEn5wgNdytN+HEMJkioA3hBBCCEfF9bdehroGBkPHbNmTaqnQKDnA4o8x8gMOvJQuyACATRu2sCJlYHtIN8h46RjCEVN7HGGXT+VGKI1jdlPiWedvyqedNztnxjPrQYF7dgC+cWK3eyyO8wYcVQK8C3kB6sVS9T60k71jXdf1t16GugGGQ8dM2ZtqlUJLkgssfraRdzpw82jfJNhAoKheV14z6kKOffNhGA2jf0vIe2rC0n0Fedh28h5S1WCAZ6A0Amgn2BF9R+bgAHz7Don5xDabhBDC1IqAN4QQQghH5KVveTKWBmtYyqsoGZyzpJy9dBeynotU/RsAL4K6YNfYUKhE9dBeTuwAHSf+lGAIY3cwkGrz2VwLKo6ZTQmPfvw8d5w1q16fVVNru8p6FQMledfNezJM7H4LgibBSAHiRWrPHtPqyvxYenhf9qanYLC/oF6sUWpnf750+yYA4AKk/s8CeMHh9k2CTlDdV+mk+1odT8QD6hoSsWlnwuLuAtUPCHk3TPD2522a8t31SwEoFZDTftBcCCFMpHhCEEIIIYQjMlxdwXAwrH72l/4j3CQhQeLFSdXH4f41QC/qTi5vKDjakMIoCljv2I3nJCEcsTaIcm+D3cFqwexCwjlP2oLveNoOnHbuvABwuJalcvDAtO7wtPWK3vHehmOmLVtth3hnQH86aMiN851/8arjtoiXvuVyAMDacBnDwbD6w3//Obi55AkSL0uq/hDuX4b0gtg3j4PuW3495C2CmWHLzgTrGVQOTvDSgCIgN9M1vap2XzEBEClhgk8mDCGEKRYTvCGEEEJ4WF761iuQsyMPikng/hWVXj/nt1//o0huT3EvHwLwDNGB9gC1GlSS2CPpBByggRFOhHCkNl5C7k6URijFsWlrH486ZxbbTptB1SOaWshreXTIGiVt/NxpeCySbe93TWhG4nfTyqfzMPvcvXcd8z/8pW++AsNhweqBbC9+1ZO4dymVrVT+geddiaUdg6tc5cMAvjP2zeOPhwl5WRFbTu0meUs72QsDkB2lFsg05lUfPwfbiAUABQAsIt4QQpg48QQhhBBCCA/ZC27fheU9a1jaN0wr+1a8rpvy5fscVU7PHmwqf51K7zP4/9m78yDLzvM87M/3fufctZfp7ume7sFsmBmQBEWKIEBSohW7JFkMJZmLKFHgJsULpVCUTYoATHERCS3gTi2xnaRSLleqXHLkxOWoorITSbHMJFVK7FQlFbvkVMpxREsUF2CAAQazdN97zvc9b/4453bfngGxTM9M35l+fqUiZoC5o3u7+5zu+5z3PC/xF8wMRqvM6DSW2wV+O5NnInKdOHVzeDOx66jGRDXOGCxGnHntAl7xxiWsHOvBCYy3Eph3HjMJsuwO6th9MWjmZojt3eZvL2KBYAWD3dyw6q0PP4DLz2xh63Id6wtjz4n5K39sYJl/4ML6lX/JDv8FiP/guc6bpvPmLbUd8ibCynaSN+xM8mY6Ut1eGPGDUsNrAJsG6KZOSZXPIiKzSBO8IiIi8rze84kHUI8SuEXUz1bRcsoInZyTowDe/Oo1/7I7Xm00EISbJZDRzDok3My8qQPV8jSR67W9xH5qYpckcg3AHfPLXayf6mFxrQcERxpnsGqCy0m/6B22N+0lM8C3N8+R949BNAW8fsN7eK8+b6I9b5JEgeKH3vay+ssOfMcLnTeh8+YtY9bMqO4KeTtNJ++lcxnugBPIVZtxOra7ae9kJH3nHNJM8LqWrImIzBwFvCIiIvK8Rk+nMBon64aUySLP9cYYj4q3FcPur2aGe+Bt9GSsDFaSLNpuT9d2d5EbZLLkqJ3YrccOBGBhuYP10wMsrJRNsFtxEsRsB7vTofABZ4S5gU5YCMSbAvDP8vjGB7zb503kTI95vptwoSreEeY6X8oezhIE+FznTeq8uY+aOgLbFfKW3SbkvXI+g4lItaMd4EU8AMdVex4J7TmEABBCUMIrIjJj7vzvSCIiIvKSvOvh1wMA3v3wa/D2D74mssqOgBwI5ID3nR8Pvw6E30EI95iTZpbM6EbrsAknJsOG+jlD5AaZhLXVKKOuM5aOdPDy1x/Cy96wiIWVAnVFVKOdcBdmB7aK4fk0M5pWA4QF/ogbUdcp/sDfe+Oe/t53f+S7mn8+fB/e/oHXFKzpCMgIQA74yQt17xvw8NsM4SwCabzqvLk9pK1P1n7b+Qy0zbOZ6PQC5g5H5ATU1U62uX283cmaD0NoxpvbhhjFuyIiM0cTvCIiIrLtxz5xP+qnx+GtP/1qG12pc1VZtgwEC/9xhfgrFnDEGQAjjSDNohEFzWiGcLBvABe5ca6uYkhjIkTD8noPa3cPMH+oAN1Rj7l9u7RNhbrtv9ivpz+7zAKJYAbA7S/YhYBq7PX3vnIef3Cdf+U7fuF1qM5vhbe+/1U2ulznamzJ3BFC+EBt9pkY/DCbaV0aQcAiDYURxOS8qU/VTGmOJbRtHk01Q28YMLcSMd7M8AyEAzNjTTRVITsVDUp4RURmjwJeERGRA+69D9+PepyQcgj1k3XwOjNbyG5E8PAQgn/Kgy17M2PGZhW9FTQGAx0GV7ArsnfT4ewkrK3HRFEYVo/3cfj4AHNLBZgd1bjpBDUYvA1bVMXwwkg23bY00PgqX8ZKcDs/rnJzd/6L9O6H70duz5v5yXHgOJOw7CACwkcR+Ak3W3IaAGQz+vZ5k3SDuT5Zs+uaYzETm5ccwyXDwuECqeaBKdGY7EjlVEWDH5x0W0TktqGAV0RE5IB610OvQz2uceVyFcYVUAR4Bjw6DAgPO+0zIYQuQ4CRCdZscietMJtsKjoob3FFbq5dE7uZqCtHWRpWjw+wdmqAwUJsgt1RE+wCzzGxKy/IzJyAAawBKwP5egN+L49z+Mw/fTM+9Zbff97HT86bW5erMK4CikDPgJtbRMTDzvBYALrNwC4SjJPzZtg+b5rOm7Ps2mORiKVh7XgfaycH6AxiE/ACB+LYM8Lbr2dg0sGrAV4RkZmjgFdEROQAefdD98NzRkrE1uWRpRowIwMiELywjE97wKcDGEgDwGyA06ww0glzMwTd+y2yd881JVhXjrITsH6yj9WTAwwWmmnBug12zQwhYNciNXlJmlVmZsFIINg7nPi9aosc5vScD3jPQ/eD3/68WVoOjyLwUwFAW8WQjeY0FkY4AZ03Z9w1x2Ii6poouxHrZ+aweqyHwXxEqh25zvBgsBC2axzuZJNwl23mDQCuSxQiIjNHAa+IiMgB8ZMfuRdfPzfCoGOWCRZGIhgADAz5V9ztEQJt6SBqM1qbhQRr3v3CtDhN5IaZBEo5GDZdvAAAIABJREFUEakmOp2IjTN9rB3vozuMyNkx2kxTf17B7o3QtDMg0ABzvA0LVz5QdZLn8fo1f/Yvf+Re/NtzY6x0wvZ505vT4NCQH3O3h645b9KsqWIwtidNfbJm3OR4SonIFdHpRxw9McThk330BhG5cow2886fn7rIcqd/eg1NWbRNdfAGdfCKiMwcBbwiIiJ3sAc//DqkGhiGK3jmUmmDDps92A44sRLAz7vhpxmaTTJmqJt3claScDO4AUFpksjeEc0Y3ORoyolIFdHtR6ydnMfqiR66A0OuHOOtqTCprWIA1HZ9IxhgbKZsweDr4fJgrQOcy4t1AODv/PDr4DXQC5s4f6mwwx3SJ5OLwIo5v+COn3r+86YFaHXazGqvWWISzjbHoqM7NBw5NcTqiQG6/YhcEePN5zoWD9JFlkk99XQrk0Z4RURmjQJeERGRO9BP/s0/h9GFhNF4C3nsdhkFo3MyTbYRI78I4CcJa2ML1mZmJEozOgDa9LtfEXnJJpHI5PbvyQx8MyXo6A0iNk7PYeVYF51+RJoKk6aDJPXs3hQGICF44bA3A/zNlFi89288UF8cjZErt8vBGEjG5kN/NBq/BOB9V503C503bx/bx+JkYrcmmBzdfjM9v3qsh6LbdOyO2+n5g34sTmoomg+BZwDbPeAiIjI7FPCKiIjcgX7zV/83vO39r471M3UOg4LBHQbeA+IzMHsQtDZ8Yt2mTgXJYGaTRkGN54js0XS4CzRhUq4d/fmI1bMDrBzroewY6qkwCdDytFvBgEAgG1AQ+IGY8Js+Tun8hVHs1J7Rb7ajRePLSTwGsx+3yXnTWDd/xeS8CZ03bwPf7lhcOznA8tEuyk5sjsUtHYvTdlU0hHbJmioaRERmjgJeERGRO8D7Hv5ObF7ZRPYCAW459Qh4Rg8IgS8vAr5M2lvbxAkw1NZsdi8NdABBk2ciN8bVC5tSRTA7evMF1l4xwPJGtwl2q50waTtIav+Ogxwo3QokHGAEDCC/f7NKeNv7j/kf/vZTuVwJsMB7AXyJtLc0W9kITp83TefN28H0sRjC9LEYsX7vAIfW22D3OY5FTB3DB9n2nQgA4GFSVSIiIjNGAa+IiMht7i/9zAO4eLHC5mYq/uC/+nfpzT9xlrXXGHTwWsTi8wDe3LxXJUDUMCtAFgSCHYgd4CI33fZdzEATCLnDck0yu/UXChxppwRjEVBX/txTglrHdcuYmaP9aIcQji2vz3V/63N/Nu4vxjfkED4D8k1mAIwgUcGstMl5c2diV2Zceywi10TOjrlDBdZONBdZrNh9kWXy57ePRWnsVPDmSVEDgiJeEZFZo4BXRETkNvSuh16LVDtSTQCj4q2HfjD9o/E/Tt/zg3dhsNz77kHXfh3gG9upMxgsgRZgLEE4zJrlaYqTRPaKJK2pN0Fw95Bqd2bH/FJha6cGWFprw6QxkeprO3Ynv5dbytqPP2Nh9q3/7/Ijf/pHF/58f674wdB+WkhLzZJJdnTevD1MT+y6O1LlIB3zSwXWTg2xtNZBKAxpTNT1tR27k9/LjqkVawRCBgKC2khERGaOAl4REZHbzNvffy82L2cw5fjspTofOmTpp3717+MtP7X6F5eOxi8D/trm9lLAglUkShgL0miwyWiS3p2JXD+ine00GMzM3d3qigBRzS2XnSOnBlhc69GiWxr7NWHSQe/1nBEEYLEAAvhZMyCEADqbiV1MzpvQeXOmtUeiTSZ2HfXYEeCYWy6xdmqApdUeEB1p7KCOxZdoO+LN7S8AmEZ4RURmjAJeERGR28B7PvJapOzIKSOlEHPOOQC5U4wRfOGtb3v/+hcBv7dmM2djFhLISKBjRoLmpntORfaqGflsJ3YNFkiGVDvgfnn5SO/8xtkh+vPFSQQwVRmp2slBmk30CpNmhZkZSZKw4VLnssWw6Y41MysmGb6pN2OmTY6nybGVagBwLKx2sXaih0OrXSAA9TjDK3/Ox8oL2C6gYQa8CXg97/OTEhGRqyngFRERmXE/8cnvwbOPPxtyhhUx5cQi5+AoYA/2+3Ofz5mnPQSAAWahRjN1VpiBze3EinZF9qhJ+7bDJHOSVo8JM7u0crR3buPuQW+w0FlLKfdTRad7s31r0um5vbBpP1+GTOOkoyEB3Z515g6V3c2LGUXHQCKYaWJ3Vk0di6A3k7lmwKGVDo6cHmB+pQTgqMeEexPsXn0syotDM2+uExu3l6wFfQxFRGaNAl4REZEZ9a6fvx/1sxWeffJizBUzomULAXD/KxbwGIBjQIA73AIzDRFAgeZWVS0BEtm7Sb8uANDMAjNDXRFmdmH1xOCZ9bsHxWC+OJESy9GoBhwZQARAwDD1eJkx7QQvSHq3X3QGC+Xo0tN1LDo26VTWJ26G7L5Q0oS1aewI0bG03sORUwPML5Wg7w52n+vxcl1yiG1Fgy59iIjMHAW8IiIiM+SdP38/vCZ8i2HzqQTPyWlFDg648QMVw+cCwrLTwWabNc0Qm4ndSfGuuiJF9mhXFQMAYybqiig78en1k4NnjpwZdnuDeCzVLEebCQAcgJtZJJtuXuj2/tlnRpDIiWFuuROf/NqWzp0zaDqcnRyLRWFYOdbD2qkB5hYKkI7qOSZ2J7+W6zRV0eCTXXRUBa+IyKxRwCsiIrLP3vXhB4CaSEyozqdQ5xSK4Mw5oowA6R9FgV92Wh8AHMxmcMIKkIEwN4NrYldkT6ZDXQBoqhhyU8VQdOPFjTPDJ9bvHgzLXrw71bQ22M1mFkgaAKdGdm8vTQBoKYNzy2UZikCSQZ/C/XfNxG4b7MbScOTEAIeP9zE4VIDZUY0z3HeWrF39eLl+TbYLmIEBzcc26DKIiMjMUcArIiKyj976kdfj0jjBRuOQgwXLTo/mdMKj/2KCPRoQjBZgYELbqUswGLbfveqtlsj14/YvpiZ2cyJSRXR68amjL5u/tH6q1yu68WyqGMZNsNskg5OJXd3Sf1uaLFoDYZ2OcTBfYvPZGtbZ72d2sO2a2E1EXRNlJ+LI3QOsHe9jMF8gZUc9aoJdQBO7NwthMBCE0dsfN1w/doiIzBwFvCIiIrfY+x5+APVmBiuiurRlnt3RvF9yOjox4zEYHjGGSATAmI3NxK4ZATZdoFCYJLJXnAp1YWbIiZYqouzFZ47fO39+9Xh/sezZyXpEmwS7bZBk2Al5dSze3pqQN0RbWC5w8fyYRcdME6C3FkG0HfJNWDsJdrsR66eGWDvZR28+IteO0SgDCnZvjfbSVSCST6oZ8r4+IxEReQ4KeEVERG6xrVGNasyQAzwmEtEA+qI5fxHBHqJN3uSyNsBIMza/mO7YFZHrM6ligJlhMnmbaiLXjm4/PnH0VXNba8d7PYt2tq6I0eUEBGxP6DYVu81huZ8vRG4Mg5GgAYHDQyWCBUMT5OvzewtsH4ttZXVKRK6ITj/i6IkhVk/20R00we54s0kWzQxsC2EVxN9k7c8kbiSsDXijOnhFRGaNAl4REZGb7H0fegDhYsbhryX8yb3RRiPQgHZs146Y45c84GcIA4wwWg2jESiMFszaYKmZ2hWR60cSBnAyBR9STaSa3p8vzp14xeDSyrHekkU7VVdEXaVmcVrcmdidCv2UKN0hmnAXYKL15gp0e4aUaEVhCg9vsumP76QWpTsssHFqiMMneuj0DbnaCXaBnYldfV5ujcmtCgZw0r2rH0ZERGaPAl4REZGb5F0/9wDqUcLl0Ri10Z44a+yMMpkBizgaM78I4Cea3MhgYA2Y0Vga28VpBoeCJJG92t59NllImCqC2VNvPj558jvmR8tHuwtmzcRuXW0vT4skvQ2T1LF7x2oirJSI3lxEdxhRnU9AoVv+b4arl6elmsjJ0RtGHD07xPJdPXS6Eanm7ondtoaB0OfllmpuIQJoyb2NDzzu73MSEZFrKOAVERG5Cd7zs/fi6RooqhSvVDEPC9BIBOJsNHzR3X6U7e2oTbCLArCCZDAY2xoGDcmIXL9JINuUm5hld8RUEaSnucXi8SOnB/XyRn8pBN+ox46azcQusGt5mpKkO1zzGW4DRA+YO1Ti8vl6v5/WnWkq3E0VkZJjsFBg7WQfy0d7KEtDXRPjrbT9EE3s7i82dxbBzZmLMQDAoz4XIiKzRgGviIjIDfKOv/7dCJuOiAqblxg7tpVpIcfogOHVRcKvudmb2gJQmKEGYTQrjWxuBdfyNJEbYXp5WgjBQz120H08XCzP3/Wywdbi4e4aQpivRxnuDmh52oE2mQ7NmVhY6eKbf7y5z8/ozjEdznow5GZ6fjvYPbTRBrvVTrA7PbE7+b3sk8mlMgexNWp+s9Db5yclIiJXU8ArIiJyA7z7E6/G5fOXYaNQ/PZv/VF663u/M3vHQdh392L+LGjfT7Mm2AUqmJUkCzNDu6odULArshdNDEE0w/Fm2d3biV3UCyvlNzbOzmFxtVxm9qP12OGeJxO7k+VpaDqvlSYdOO35mQR6cxGdjqZG925SH29wB3JNZDrmDhVYOzHAoaNdFHZ1sAuQO4G7Pv6zwAgQjpCtHgLBAdfnRURk1ijgFRERuU4Pfuh+5ERYIDYf9zguPfc9pO/+K/cggN+XEL4I4PVkW8VAJJhFAh0044WAlqeJ7FU7FN9O7BqCO0OqHKRvLa72njp6djieXyrucvd+tUV4M7Lr0xO7mtY92CZj20xA2TUMD5W4cK5CpwcFvS/RzserCXZTRdAd80sl1k4MsLTeQYiGNCbG3D2x29ap7O8LkF3MEJrPi+f54TIyaoSYfL+fl4iI7KaAV0RE5Dq85T0/hFH1tVCPYGvdnC+nMp+zBRzvPfvDK6HzhdTBq61p/wQMFYiShsJgNCDoHazInhGYDMAbzMzd3epRBgJGS0f639o4MyjmljrLOedhNW6DXYNbMGNTiwLT9LzsQsRYYLhU4pknmtvRdbp+caaORbg76qoZkJ9fKnHk7gEOHe4AZk3gW10V7ELB7qxie0+DO/h/XSlxpHsJR6nPlYjIrFHAKyIi8hK878NvwKV6E15/PTo9AyGPEhAif/QuXvwiHWdDcARzsJ3YNbKkmdvUreAicl3Y/s8kCqKZBZKhHjvM/PLy0f75jTNDHx4qN1Kde+OtGu7IAMKkJYXQ8jS51iRsTIkYLpaIUTUNL8X2x68GQMeh1S7WTg+wcLgECKTaQWp52u1m0nsTkfOJ+Rpb4TgMf7bfT0tERK6igFdEROQFvOvDr0JOAdlDuLg5sjrlHDzmTocIKN5zKRe/CuBocAAIJEEzRDMWzfsiMwNUwyCyN7urGNrp3XrsKIpw6fBdvfNH7xnG/lyxnmp2R5s14JhUMUSyvfm7yZKUKMk1Jr2vTMDcYoGiE5CSq5H525gOZ0kiVYRZwNJaF2unhphbKhDgqEecLDK8JtRVuHsbaK+MuUWW46+j5NeAQ6v7/axEROQqCnhFRES+jXf+3H2oRhlXtkLwlA1gdsacGVEU/OmU7FccWAcAGN2BDFhhYCDNzeAwBUkie0RODdyamTPT6sphMVxaPdE7t3Fm2OkPi7tSzXK0mQAgm1mg0wD4rr9A5NvY6YElym5Ef6HExScrvWOacnU4SxJpTIRoWD7ax9qJPuaXS5COVGW4f/vHy20nVdaBBw8BQR28IiIzRj+uiIiIXOVdH3kA1VZCvZlCTjAGz+aeGQAzfqgDe4zAImkwYwIMoEUairYQFGYwDQmKXDei3Xu1a2I3E3VFxNKe3jg1eHbtzKDT69vJVHvRBrtXT+zSdJFFrgMdWDjcwYXHmx5eBZNXTexmoq4cRRmwcqyPtRMDzB0qQDqq55jYnfxabj+Tz7uTuVt0AQDZ0ws8SkREbjUFvCIiIgB+4udfh7xVY/Nyha3LtaWaMCPdLTflCvZxAz9FYggDjJZhdNIKMzqajl0tTxPZu+lQF2bmOdPSmCi69szRs8PzR04M5stBPJ4qFqPNDDShrpPNxG77OB2Lct0CHcNDBUJs2nUO6pfTNRO77UWWsjSsnujjyMkB+gsRzI52keHOn1Wwe0cwbF9xI90BBHVOiYjMIAW8IiIiALj1LC5eKoLHIoS6eVcagDI4P+mOR+FmDAYzJJChGd61YEa2k7p6ByuyN2z/uT2xm1PT69npxcePvWJ+a+1Er1d049lUEeNdE7ttNy+gMUvZE2tXSqUEdHsRvWFEtUUU5cGc4t2e2E1EXTfB7vrdA6ydGKA/F5Gyox6piuFORjNYs1wgFWkMwEMqDquiQURkxijgFRGRA+ndH7kfa90L+Ntf/Cp+9EP32cUtekB2BxwBwxD4aQIfmywXIVgDCCAizEJTxYAArd8R2SsCtHYFGgAg17RUE91B8eTGmeHTayf7y7Fjp+oRQxvssp0QbCd2tTxNbgy21xlIojcs0Z8rMLo8Ako7MIHldDibE5FqotON2DgzxOrxPnrDiJwco628/Zirl6fJnWN6gjchAgCKoIoGEZFZo4BXREQOlB/9mfsxupKxdbnGv780DD/8U98Z0igx1UBhXPDsXwhuH2Swdp6QdTO8YiXQVDEAcL2LFdmT5uja3n3WdOWmmkjJvdePT971irmLq8d7C2b28roi0pXt5WlxsghrMum7ny9E7izbE6sknI65pRLPPDHe52d1811dxZASkSuiO4xYv3uIlaN9dOcK5IoYt8HudA2Dwt07WHP1DSCzFxEAQhwr4BURmTUKeEVE5MB4xyPfh+pKAsLTtsXAMtMZzel5PSJ+1hH+mgUDA2FA3bx7RUFAVQwiN8Z2DUNbtJsBxFQTqXYfzBVPnHhl/8rhu3pLwexsPc6omZqLKgAMiO3j2t+K3HiT0DLXxMJKByGEOzTAbK6PTL+2VBO5JnpzBTZOD3H4WA+dfmyC3c2dUE8duwcHDTQCNKTI5nNddzf3+VmJiMjVFPCKiMgd7cGH7kPOhGdHunDOcjYGgAEBbnY8On7NEX6ck7yIrA1mBErD1PI0hUkiezE9sUsADMEsVUTOXg/mi/OnvnNwZXm9v4yA9TQmyO0qBiMZ0PTrwnQsyk02CS9JoDOI6PYN1Zh3VCHPNRO7FZGyYzAXsfqyIVbu6qHsREz1Xe8KdSe/lzuegwY0CS89JkSHFU+v5Bd+qIiI3EoKeEVE5I71zg+8ElcuOsBs6UqkDUiLJeB8RZH9CwDf3qxlMpixBlHAUJDbE7sGaFm0yB7sqlAws+yOmCqC2TlcKr65cWaYltd7iw5fT+M8WdPeTOza9qSvQcGu3GIk0Skj5pc7ePLPNoHizumZ3Z7YbY5FDBYKHD7Rx+GjPcQyoK4d463dt+E31fO6xHLAhKkS3hwT0CsN//VbFCOIiMwanZlFROSO8pMPvx7VOMHHGaOMomtMIzpDYQjBXgtWXyLsByZvUI2s0XbsmtEBc9PyNJEbgVMTu8HdQ6ocdB/NL5XPHD07t7mwWq7Bw3w1ynBvgt2p5WkErB3aFdknIWC4XODcnza/vV3D3elg2r2pn2B29BcKrJ8a4NBGF0VhqCsiTXXsNktGb9/XLXvmO9fpmBkM1ivxRyv/3X4/LxERuYoCXhERuaNc2RojXUn21bXI0+c8FWUCWLwhdqsvEPg+Z1vAQFSAlTSURroZNLErsnfETr8uzMzd3eqKcKJaXCm/tX52zhZXy0Vm36hHGe7wyZ8D4FqeJrNgp6aB6A9LlJ3bc3p38pzNDO7txK475g4VOHJqgKW1Lqww1GNiXO+uYth+7D6/Btlf1pbwGi3RiNDXj0kiIrNIAa+IiNzW3v3QfbBA5OQYj2O0XGcg8N+ccZw+x++9lOwLwfBd5KRrkIm0aIYOmzFBb9+x6x2LyPXb1bFrZoFkyDXg9M3F1e75jbPDNL9SrHv2frXFayZ2Ddbe/y2y/yZds6yJwXxEOYgYX86wzj4/sRdpV7BLR6oddMfCcom1kwMsrXWAGJDGjrqeXp6G2zLIlpukqd41o4FgMhqC68clEZFZpIBXRERuS2//0BtRjTI2L26GOsPm4iiPUy93rAZD+ea3/Uv8GgK+A2bw5k7vyoCStKLp14Wb3sGK7NXVwW4zsTsiEPzy4pHeU8fuGcbhQrGS6YOrgl0j2XbtTrYcisyGybcHkigLw3CxwOhSeoFH7b/dE7uOeuxAcCwsd7F2qoeF1S4sBNTjDK+aEHv38jRTQZHsaPerNdXLVgPQ5XARkRmlgFdERG47D37wtdgaP4tQWwRyDiFm94BgeOdlFJ8Dwj25qWGAoZ3YBUuaTS9PE5HrMx3qAgDMzElaPXZYCJdXjvWeWD89LIaL8WiqvTMaZcCRsRMNTC9PE5lJ21O8mVhY6eKpr422//0sfelOP59JWJsqAMFxaK2LtVMDLKyUgDtSTaTmukrz53F7Vk/ILUKiub+CAJAIoLlGJyIis0YBr4iI3Bbe9/BrUSeiHnvYStlIz+7ImRkw+482UX4ehqNOA4w0GmGIJIqmXxcwaHmayB7tmtgFYMxEXRFmdnH1RP/8xplB0R/G46n2zuhKBoDJxG6cdPO2dCzKbGuXjHkGhocKhCLMXBg6/XxIIo0Ji4alIx0cOTXA/HIJhzcTu20utzOxa5PJzP17ATLTripDz+qzEhGZXQp4RURkpr3vkftQ1WNcvJxDrpOFjMxoOYWArvnPOopPu4V1IADNsrQMWkFjMJib0Zt36XoDK7IHvGZiN9PqioilXVq/e/jE2qn+sD8sjtU1y9FmE+xOJnsBOKGJXbm9GJqAiwSKjmG4ELH5bNPDu59B73NN7NZjwgrD8tE+jpwaYG6pAOmoxmwmLs1gAbuWp4m8kMnXV/v10nSUBEW8IiKzSAGviIjMpPc+fB9Q1rh4niGNixA6JIAMNxj5kY7hl51hgc071mRAgJk1E7tkO5GkYFfk+nH7F1MTuzkRqSaKjj21cXp4ef3uQSz78XSuaKPNBOxM7E5ucVewK7c1kuj2CgwXS1w8X6Po2EyEu5Pp+VgY1o73sXZqgP5CAWZHNbp2YpeAgl15SSZfb+25vAZU0SAiMqsU8IqIyEz5y598I3JyPPv0FUvZPTgdFtxAOPFxGH6ZsE57o3g2wgGLBIM1VXGqYRDZO5IwNFO3MDPkTEtjotOLzxy9Z3h+/e7BXKcbj1cjxnET7LINAgxNyKtcV257k3DLCQwPlYi2H9OLBNksPzOz7WC37BjW7x5g9fgAvfkIZkf9HMHu5NciL5XBQHBS45EAIKikQURkJingFRGRmfCen389ti6P8cy5S6GqGSwEtvWH0Sw/5sQnaM0Ns9a8yQigRRidoBvMoXFdkb3YtTyt6a42S4nIlaPs2ZPH752/uHayP4iFna1rYutyAgJy2687CXc1sSt3jElAmhIxt1gilgFMTR3Crfj/3RxKTbjLRNQ10elGbJyew+rxHnrzEbluJnbhTZDrzqseL3Kdmh+7QvvTVVvRsHN3h4iIzA4FvCIism8efOgB/KPf+D/xwV/4bnz98ctW12AR4cHhhrDg2X/FDD8HGEjAwLodSYo0C4YmgDLt/BDZi8mbdWuLdjOAmOumiqE3KJ449rLBpcPHe8sx2um6Ykhb7cRubC7C7Cro1YUWuYNMJhg9E51hgd4gYvNSvulf5NPhbE5EqhzdoWHjxBBrJ/voDiJy5Rg3fdfNc93dlyqyZ5Pp3abgo61ogCoaRERmkQJeERG55d770dejHiXU44S3vv9V9o0nrzAnMjR3hC9btM858AECsKY3sDaDEVYa6TBzA1yrv0X2jFP9urRglppgl/1hce74vXNXljd6i7EMZ+vKkaoEYHti10hw0s27vy9D5CZpN625A3DH3EoHly5sosCNn5C9enlaSkROjm7XsPaKIVaP9dDtR6SK28HudA3D5PciN4oRoDX/BEIGgKB8V0RkJingFRGRW+rHPvxd+K0v/+942/tfZVWdGUNgcAOAkxb5qAN/baozsIahMLAgLZg1/QxQmCSyF5NAdhLuZgAxVUTK7sOF4hsnT83Vy3f15s3sTF0RaSs7ml5dtOEu2yBJx6IcIAHzSyW+CQKINy3cTTWRa0dvLuLomT5Wj/VQdA2pdrR91wDUsSs33/Y3i+a321s0RURk9ijgFRGRm+49H3sA9agGRkCqt+IPv/++jJAYAhAMp935uQC8C7R2yzdqNLeLl2bmgHmzPA2mPEnkuk137DbzWMGQKsacvRosFOdPnR1eXl7vrSLgULOs6arlac0hqu1pcqBMglQmojdXoNsvbkgP766J3WBopucdg/mItVcMsLzRRdkx1JVjvKWJXbn12l0I7eparwEgqBRLRGQmKeAVEZGbbuvZhPE4Wx0iu6jzOHURjK80i1904C1NYgQArA1WTIJds51u0H178iK3v2YIq32XbmbuDksVwewcLpV/dtfZQTq03lth9o1UESQnE7vNkdk8lrrCIgfR9KK17iCiN4y4dD6hU1xfTcPkMc1CNCDXBLOjv1DgxMk+ljd6iKWhrnlNsKuJXbmVSIMZ0ezPbCd4XQmviMgsUsArIiI33IMffgCeHJ7GqC0Wa+eW0tcXn6RnAyLu74X0a3B8L9tN3wZUaO53LdmMCbbBkuldhMj12z2xaxbcEdpgd7RwuHzq6Nm58cLh8oi7z1VbGe5N0+j2xG4zvaskSQ60ySFAEiEGDBdLXDxf7/pvL0YT7GI72E1tsDu3VGDteBPsWmFoalGurWLQoSi3mk2tWUMb8AaVNIiIzCQFvCIicsO840OvQT0iRqNxSJs55ENDhmevpD/qP4lDwJ/rWfUb8PCG9h7vSbBbkuxMbhlXmCSyZ7uC3cnEbj1OgIdq4XD5raMvm8P8crnE7AvViGhyXaNZMJIObgdXOh5FsDPFm2tiYaXEE199aY+dntitx4TDMb9U4MipAQ6tdRGiIY2Jum6C3e1Qd1I8r2+Nsg9oBiMDm6+/DACujgYRkZmkgFdERG6IH/uZe1BtGViniG5VaBlqAAAgAElEQVTKdPN73ncPvvqf/esfWi7D5xy4j3CABgMSyEhYaWBow129exXZG7b30wIAzMxJWqodoG8trffObZwZ+txScSRn71db3J7YbdfoGKmJXZHnQwLDhRJF+fxTtbv6dduwNtUA3LGwUmL15ABLaz0gOFLlYKWJXZkhBGEMRgMN3lyCxxgAggZ4RURmkgJeERG5bu955H7kRNQVQp2y1SlnQ8gZAWb29q/+5//qS0R4WQiEEQiwBGMkrTADJ6tloHBXZC+uXp5mJFGPCYu2uXyk++TG2TkbHirXUp37460Md0yqGIykTw3r6lgUeQ7by80IWBkwXCpx8akK1gEmNdcT0+GsO1FXzb9fWOlg4/QA88slEIB6nNvpeS1Pk1my/d3EYUwGlO23mfnmvyvhFRGZRQp4RUTkJfuJR+7DeJRx+UIVcqaZWXb3nFkiRr431PZZRj9lISKCDlqmoTAykuZm8MlOZhG5bmzfhgPYmditxw6zcGX1rv7j62eGg8FC3Ei1d0abNeDwprKBBsB3/QUi8oJIorQCw6UST39rhKJrgG/vMAQwNbFbORACFlc7WL97gIXlEnRHXRPO3cGuJnZlP7G5hcNgRsKCARXNOiBKGADD/8LAfxAcYABf8C8UEZFbTgGviIi8aA8+9FqkKuHSpTqMKljpyDBkIADkXy1C9XnQjrStgZlOByyasTAa295dvYMVuX6TUUHumtjNRF05YgzPHDnZv7x+elD0BvFEyl6ONpvaREwtTzPYTrmniLwokzDWHRgulohlADPaxWnNnyGJNHaE6Fhe72P99ADDxQJ0RzXmNRO7CnZlH7Uz4wxGMxocZDagJNBpvyx/m7BHQP5JMemDdpU0iIjMIgW8IiLyvN778OuQL21hrfcE/uRiCjnTojEHtww4HPjr7v4YzJZ2RkBAAoXRACMBCwqTRPaMZHNQNYGSOTOtrhyxDBfXT/WfOHJ6ONcdxPVUsxxtNcHuZLIXTcg7GdjV8SjyEk0qFFJFDOYjOr2IuiIsGpiIuiKKwrByrIe1EwPMHSqQ+dzB7uTXIvuEJIKBAWaZBhqthKFsryL+A5C/QNjXAMDgKEsLZS/6YFju81MXEZHnooBXRESe1zMjAgnhwqWjIXqmG7IDiIaPOu1RgHPtm9VkhtCuXI7thCBUxSCyJ02/LgiDTSZ2Q04MqXYUBZ7aODN4dv3uQbfs2dlceRhvJkATuyI3gU3G59EbRPQGBUZXRvDsCDFg7UQfh48PMDxUgNlRjTP8qllHTezKPmJzIR4BRDAjCKtBlgaL7X/8Ly3iUWZ8wwxwBgS4Fb0uRxvZP/emf77fr0FERL4NBbwiIvKc3veL34krjwfL49oJbzEY7Rcd4ZM0L4EAA1KT4TKSFsxALWsSuSEmC9M4CYRypqUx0enFp469fPjM2sneYtGJp9KYcdxUMdAAEGYAHdyeEtTxKLJHZjtTvJ6B4VKBC08GrJ7oY+3EAL35CGZHPdoJdjWxKzOCIAKNwZq9CCAsGlnCDAT/rhE/bxHPpnaJWuxEG5aBZa9g0SnwsTd9ZZ9fgoiIPJ+w309ARERmwzsffh0ygU5OqGqGTIZ6DBoIRvTN8csg/ibNQhvhJhgDadGMDppP6tn2+aWI3M6aid2dfl0ACCkx5MpR9u2p9bsHl1ZP9HtFYRupInImAGQzi2yTJIW6IjfHJKyN0VBXBBMxt9RBqomUiGaF6E6oCyjYlX01uVDo1ozsksYS20sB7csIeDSkPEoxojCE7AhlUXI438Gnf/R39/npi4jIi6WAV0RE8Fc/9ipsJsfl88EqD+xEB5xAthVE/gKBh8BmPZqRdXuXqjUTu9O7w0XkOm2nQW24mwHEVBO5JrrD4okjpwabqyd6czHaal0RzNx+nJkZm3u/tchQ5BZwJ0I0BAcym2AXmAp3TZ0osm/a7ycMpAUYsoFOomi+QRhBPBbIX8oBCIWhE2GxX3phwRkzup0Sn3zL/7i/r0JERF4SBbwiIgfcj3zw9Uj1yJgz0RbsFsbDoH0OwE+3yzYAsEaz3Ska6YS53r+K3BC8amLXUk2k2tmfj+c3Tg+fXdnoLllhK9PB7qRft/21jkWRW2TSoztdvaAaBpkFk123NHMAGWAwIrZN7Fs0fsoCfp1wxDrCuiF0hkVYw5h/48E/3O+nLyIie6CAV0TkgHrvx+7HxW8OkO0KYBWK4KDbcYBfAuzdzQQSYERNQ9EsljGY0TWxK7Jnk2sn2zUMcIRUEym7D+eLb26cHtTLd/XnQ/CVeuyTAInYNbCrY1FE5GAjCYORAQBolps1tzQggIanjf5LwezvZBDRA6wXrGuF9zZK/8T3//5+vwAREbkBtGRNROSAqrYSnBcQE+BdfwVp/wkMb27eExBmVoMwGktr+nXbiV3TxUGRvZme2A3uHlLtYPbRYLF45u6zg82lI/01BMw3y5rcAfj0xC6gbFdE5KBjszzNzOA0SwAKIws3A2DfgPuv0Dp/F14hNtcTY+xGHt7c4CMf+If7++RFROSGUsArInJAeTZY34MTTuLvm+ENzQwIapgVJEszuKGZA4F6PUX2YrLoBmYGM3N3WKoIutfzi+XjG/fM5UNrnUXSN1LF7YnddlzXp0JhHYsiIgfXzh0cZIBZImkGlA7AEb4G94+POvYPh2NHRgIQYuwYizLmwUKBR/6Swl0RkTuNAl4RkQMqwJDSOCDAzeO/ZeAbDDaGsUMimG3vWNbErsj1a1LaNpw1s+DuTbCbMV5cLc9tnJlLC4fLI04fVM8xsTsZ923/PoW7IiIHE0kGwIKZgWBlZh2QBSzAif8H4CequeHvdK5sImSAQCw7IS8ky8V6xMf/wz/Y79cgIiI3iQJeEZEDKg07KEdVzImk4YKxaWsDEJooSfd/i+zB1cGuu7vVYwLumwtHeueOnh5ifqU4zOxz1YjTwW4zsdvedwuFuiIiBxlJBoMZzNzImrSOwTpsvtX8a7g/vNlZ/8p8/S2kLWLYDbHXLTgMndzpRjzy9n+6369BRERuMk1liYgcYO/44GvKapRrkr9kZr9IcmxAB6aeXZHrNN2vCwBOMqaxA8G3ltb7jx+5exAWVoojufZ+qgl3ZOz8TGZoaxn25+mLiMiMaIJda6vXiRqwDg2wpnr3X5D85PJw4X++cOVZMA5QcDNat5Pn+wGf+vGv7PfzFxGRW0gTvCIiB1i0MFmo9lRbERo1KyhyXXZN7KLt201jIkS7tLTRu3DX2WEeHCqPpjp3x5sZ7phM7Ea229OgiV0RkQOPoLeX+pxkDVjHDJ22m/0rDnysW9n/MSqJXI+BEKxXZu/N9fNgvsRH3/S7+/0SRETkFlPAKyJygHkIzVo18jxgMGMgTeUMIi9eG+Y22ayZOUmrx4SZba7cNfjWxj2D7mChWE1j9kabNeDwprKBBsBBTeyKiAiabyWkw4xoathLM3TaCd7/HhY+XiD+m4yE7mZEPBaKcUypFwr2uxGfeus/2+/XICIi+0QBr4jIARZ8Mipo5wFMtqo5VOEj8ny4/Yvtjl0EZoa6IizahSMnBxc2zgxDdxBPpprF6HICgF3L06AqBhGRA48EzRiacNecZsnIEoYIAAT+2wh8rC6KPy5SgpkjA5ZOko/9+P+U9vv5i4jIbFDAKyJykBm8TXifBgAQAQbfz6ckMuMm9Qs0M5gZmGl1RcTCLmycHj61dmow1x3Eo6liZ7TZBLuTyV40Ia9peZqIyIFHAsFAIyxbM6ZbGlHSAKP9FsGPxhy/iZBhTpRdM+8FDjt9Duf1Vl5ERHbou4KIyAHmdLR9bucBoJ0shIYKRa4xWZ4GNJO3ISeGVBGdbnzq6NnhpSOnBp2yF8+kimHcBLvZzAJJTeyKiAjQhLow0mgWmu8soJElgMjmW8R/gcBHA/KTsAB3IMBtNFhlf1jxMz/yT/b3FYiIyExSwCsicoCFYG4hAsBTcG92MsM0wSvSmFQxWBvuZgAxJyJVRLcfnzzysvmL66f6c7FrJ9OY1ga7BIDt5Wk7oa7CXRGRg6ldxIlgYKBZbjt+ShCx2bKJ33Dg0SLjMqPB4VZ0DZ1uZBddrnSu4GM/8nv7+iJERGR2KeAVETnAMuG5ibAuhdCkT4RSKBHsTOwS7eRtSoy5cnb7dv7oK+cvrJ7oH4qFnakrIrXB7nS/LrDTxSAiIgcS2/81Gt3MSJobWaC5CAgAn0Gwz1rmKJuB5qEsY1hE5kK3wM8++M/39QWIiMjtQQGviMgB1ikIloQFoMqYyrOUScmBNPnib5tKmondVBOpdvSH8ZvHXj7YXD3eWzQL99SVI23tmtg1No+k6SASETnI2H5DCSQBQwbNCRZmAGkVgMfc8JkIg2ciZLcQ6LEXfC32/aH3/u5+vwYREbmNKOAVETnActVDFZ8CcglweBHGQ6RBM4dyAE1P7MICkGrGVHseLMRzp149vLy03j1sZkfriqhzBjSxKyIiVyOaH6VIByybWQAR0WxRu0Tgl8zw6whEzoCbW9mJePp7XsO1r/4pBl7joR/8H/b7VYiIyG1GAa+IyAHm5RZwcRkAYJafIO2QJnjlAGk7EZvFgmbmcFiqiZydg4Xim6fODNLyRn+I4PeksaNmW8UANN0NzWN10IiIHGxtZzuNhmC0TDM3sCCBYHjWHZ8ys/+UTjiBUCCWXWPZG3Bujvj8PX97f1+BiIjc1hTwiogcZDQYxgEGJ+xJA19OmCupkjvczhtxGs0suCOkisjZ67ml4qmNM8MrS0d6awi+UI8y3N0B+GRil20v776+ChER2W9s/s+MRhiRDBZpjHAAsG8BeDSF6u8VXiAgAI5YdI0B/dwfdvDoO//JPr8EERG5EyjgFRE56CYRFXFOW9bkDjeZ2G2rGMxDgFVjwt2r+eXy3NEzc2lxrTzkGRv1OKPJdZswl6Rjp4VBR4mIyIFHkGYwwmBOQwEQAfY1OB8pavzjqksElOh0Yyw6kUWvzGXX8Ikf+v39fvIiInIHUcArInKABXM09aGAGc+1pXFQdiV3mF1f1GaW3T2miiBRLR4un9g4M5cXVsvDnn2u2uL2xO7kIZOC3n159iIiMpPa64UEzQgGA/7vDPzCXNd/52INxBgAhNgpLffni/zpd/zBfj9lERG5QyngFRE50AIABgAO2Lk2B/MXeJDI7WR6eVpw91BXBOiXF9d6F+66Z5iHS8Uqsw+mg912YjegXaQGXfUQEZGrmJEk3Awwx2erbvdTVo3wxmdfht/r/7/R+oGDfsiDecMnfkjhroiI3DwKeEVEDjCnYTKTSOIJM4AEzOBo0l+R29F0qAszc9ItjQkE31pa7z9+9MygHC51lnOdB9VWhjvczNzdDYBPTewq2BURkefU7E8zEkQwXCzHY2Sg/78u/PutudjNc0sFPv4WVTGIiMjNp4BXROQAK4qMUMSQk8PAJwmDgSAsKNWS29BVHbsIzAx15TDziyvH+s9snB5iMB+PpezlaLMGHLuWpwFGM4W6IiLy0riHUwhAtxOr4eEaH//hP9zvpyQiIgeI3sCIiBxg/83f+lcom90goOGJ9p+0ne5RkdvBJNgF0E7sZtp4KwVmXFw92f933/HnD185c9/iRqdvJ0ejXKaKbqEJgdu/w8wMCndFROTFan9uciMAYtUIBMIU7oqIyK2mNzEiIgeclQEOItAuEITB4v/P3r2HWXaWZcK/3/tdax/q2F1dfUync+gECAkhnGEEIngAQyAQQBBGPh3FwwAKCeQICVHO6jDfxeXo6Hw6ziX6OToqiJwkHJRPZUZnhAERScgByKHPXd1Vtfda73s/3x9r7epKiAx0kqrqqud3JelOOl31rt57r73XvZ73edqczLk1TM3l9Iknq0iGpWDXcHjHmeO3XXDxzNGzHzO1t9PjzsFC6qRaGQaBsKZiFz48zTnn3MkhT7SzYtgCZARkvfOTL1nFRTnnnNuIvEWDc85tdBZMzf2+4wEEoKKpSfEevG7NUjvaBm0rBuYspEooOvHQjrPHj+48e6xX9uKeVCkOFlL7ewCSUZIIjm5ze7jrnHPuJMkIoG1xNWWLJaoFKM8cWe2FOeec22A84HXOuQ0u0BCbWVTzACARpMxzL7fGLO+vC7QVuzmJbbB7ePe5kwe3ndUfLzo8M1UKwybYzSTDqFp32fA059xJam+uLLVFAbD07/7ychsL20FrgoGTC1sMBtik/B65c865leUBr3PObXQKzd/APBAyqAjR8123VpzowdBksxlAzKmp2C37cf/p503ObTuzPx4j99Yngt37Vuw2oZM/q507SQ8U5gJAjISZ2nB3tVbn3KoJ7XBa0DQ1XjX/McICfJ6Bc865FeQBr3PObXCZwVKMAHCcpmMUNokwv053a8Co4HYU1iLViqmW9ceKA6c/cuLozK7eptjl2fVAIVVNsNuGT82uWbTT05xzJ+3+FbuSUJRE2SUW5hKKTgDbrj5exes2nvbtJnACGRFANvMKXueccyvLA17nnNvgCggdZACAgGMCNxGCFzu6VTJ68o3CWYOBKQkpmY1NxLt2P2oibT291yN5Tl0JaX6pYpejcHfUm3f1DsO5U5vuN21TEmBA0SOKTsTwWI3b/mEeX//icTzh0hlMzJSohx7uuo1HUmjfeyYATAA4auYVvM4551aWB7zOObfBZZndOziMGAI2F5vmSECCkTD4oDW3spZX7AYzhNwEu/X4VDx4xpnjx2dO686S3FQNMsySAbD7VezS2zE49+AsVeEKEIQQAopOQNmJOH64xq3//Rju+uoiqkHTKmXf7QNs2tlFPdBSMOxBr9so2s9NoxYl4xCO+ocn55xzK80DXuec2+AKC9jSnw0IsFDnY8vKHv36xK2UpdlnJM0MTJUgWT02Vdx71jlj9ead/U2A7UhDQ62lVgyUZGjCKK/Yde5BWjaEUJKIAHW6ZCwCjh1O+MoX53DPrQNUixmdLtGfiBgOAw58fYizLjIw8lsqf51b79oGJiYwUJgUAQvBP0M555xbUR7wOufcBjcxCRw9piIE1Ih2FArtUGiv4HUPq1EKxLbsNpshpkpQtnpyS3nXznMm0vTWzjaYTdaDDDMzANZ2cOCyMMo5d7KaFxLQbDMPkhJJFV10YgyY25d05z/O856vLaAeGjo9oj9ZAAaYAWVJzO2vMbe/wqadJarF1T4g51ZW846ERKEUNUURaeA3Opxzzq0sD3idc26D6xREpwsoCxIPtvvcvR7SPVwEYHmfXAtmrCuDZItTs+W+XedMaHJLOQstBbvAsordZR0Y/Bnq3MlTe5onAAOZJRUxhgIBOHYg4c4vzfPeWwdItdQdI/uTEbDm/WI0dI0kQgDuvmURW3Z3AOA+v+bc+qcAUaAAcTMopDrh7R+6FNdf+qHVXpxzzrkNwgNe55zb4H797f8Tl/3MhUpZALVPACgGUaDnZ+6hc59bBk3FrsW6EkyoNm3v3rXz7DFObunOKOfJeqCmYpcwWPP72opdwINd505a+zoKkgIAiEyQCgIFCoIl//r2Lxz/5Jf/6siby05Ap0eU/aZidzQyahTcjn6MJbH/64uoFiebNg3ZqxfdRkID1N4r0XaAqCtDGng5u3POuZXjF0jOOedQlBHNWwL3tRco8LcI9xARRv08m58HSawWc6wHeWF6W/frFzx95puPeNL09vHpYk+1WE/WQ5mZiaRB7e7XFvyJ6dzJkiARpJquoTXJQKkACSH8jxjD937ynf/ze659zxPf0u2Hz/fGCzAyKSvgRFuVb1F0iOG8Yf+dQ3T6bBqp+CvVbSAEIQgEtwqCIPMKdueccyvJ33Wcc84hoI13gX1tChf8DcI9SKNWDAAAktYEuynkWgtbdvduPf/ps4ce+aTNW7rj8axqMffrShYChRO9n0eD1/zp6NxJkpqe6k2nXRqIRDFI6giCiE/B8KReZ/7JBn7m4GAGl572YQTyJ2GAoIJtj148QMgrqXnFmmHfHQNABoS2/4MX8rqNIYxuiwvYNroTaf78d845t4L8gsk55xwMZm3FyYG2AiUIstVelzvlaNnfo8rbIInDxRxyjbktp/e/fv7TZ/fvvWjq9O4Edw8W6rFUy8ygUQjc/j7/jOLcyRMECTIQARII1pKipKK9o/dRwB6nHJ8dgL/rKMMk/sxvn4M950+g2+ffCfogRQhKIsMD5VVkU7Hb6RMHv15h4VhG0eHSIpzbIEY3Jre1P5pfaTvnnFtJ3oPXOedcKwDAvUtNFp377jTtm0/0yYWyWFdCLDi39fTewZ3njHf648XWVKs3WMhAs5HbSFCSAUvFun5Z7NxJWuqxSwUKWc1IwxJQ2fZV/yCgNxYJX61jBENA2Y2xLrfmibGof/7LRSiIyBCAV4N6AcSSbEar/QvfE4xEtVBj3x1DnHXhONKw+W8+bM1tCM2ANYDahkwEBCD45ynnnHMrxwNe55xzCIKxKdjdDwAnmjSu7rrcKaHNk5o5aCSDskJdGWIMR3acMXZw597xXjkWz8i1OFhIAJBHlb2ATKJX7Dr3IDWNrkmQARAo1iJKArHpl8D3g7ixQrq1gwLIACJ47s7/rdurp+W3vfhDS1/rsgu2af8ZszTZPki/QuhKiUYoAN86gXNp6FoZse/WBZxxwTgCT7RocW7da8JdQNyKaDCYwfxtzTnn3MrxgNc55xwMoUlzDfsRcGJUyGovzK1VS6lNG+5mADFnIQ2FossDu/aOHd1+1thY2YtnpUocNsGuAIBkbMMof5o59+C0r0UFgBSRKUlgSapsfo3/RcA1BO6OCBjrlOh1u7St0qRFHeWT8K5l4S4A1Ls3owBMJijyjTD8HKVSZAYUCd5nEueoSrfoAEcPJhzdX2FqtkC1ICCu1B+Fc6uHbPvwEtszhIQaU+it9rKcc85tIB7wOuecQ6CBFAJszhCW5qz7Tnn3AEYVu6Ow1nJSTJVQ9uKB3edNHp7d3Zvu9OJZabgU7Nry/rrt7/Mnl3MPgtpUlUtV8BKEUmQkAAm/BuB6GA4zArETMNYt+ZnuJ3TzC799c9wPf/QreOarHmW4J0TAcgj2Ggv8DUCB4rf0FiW51KYhzyfsv2OITdvKpvOPv5W4DUHtc922DaoF7BrfAQt5tRflnHNuA/GA1znnHNA23jWEZeOx4BflbmRZGLQU7jLVQq6F7lhx965zxgdbT+/3YslzUy3cr2K3CX+8Yte5B0uCQCGADJQyQJEqTYwgQOg9EG5AxJDZAIBmsLJDu+Fln/jOeyYMpsHieLa6QD+l31zs6joIZ4JIEgqw2ZQ++t9Hw9bKLnHv1xZx1uMmmh68TRdg78Pr1rXmzU0whH7Zn8bBvIBpdld7Wc455zYQ/6TlnHMOpqZqVzlC4NG2RYNPB3FAW7GrpYyXSLU4XEhWdnjgjMdMfeWCi2fKHXvHz5Jh53AxISeJ9y0BJ0l6uOvcyZMkqGnFADCzSU2jqFJiAnBjHaw0xKsROIQhlJ2Cxa6oqa0TNr31u9su/pf/9XNgJCwO42I3AQE/waavbkHC+C8UAceSWDha4/A3Byi7bW9eD3fdOjdqbRVM6CqFMmeUUljtdTnnnNs4vILXOeccAg0xNj8q236J096iYUMTsNRfF0sVu5WQsll/PN6z59GTgy27uxMM4ZH10JCqpeFpscmhvGLXuYfA8tdiECRAJqIACEgDgm8W8d4AKVoEhIBgKKZKK8c7dtPzPnbS37zTKZCRc1jIsKhP5siPE/pBQYliKbaD3ZYJBEzAvV8bYNvZPcBODFvzoNetY2H0TwO2gDjgIwadc86tJA94nXPOASZYPg5Uh4Fi90EQ50D4lj6Lbt1bKtNtG+1mM8RcCylnjU917j1z79jCzM7+lhCwsxoIZtnQ9NiFpNj+PsDvDjj3YEgAKAWBoWmLIBKM7a23QyLeaqb3WQzNjDWAZS9Yr2MWxydQlgHXPvfDD2oRH/9v/wvfe/n5qDokABnwapF3NAPXYATv02V3adhajzj4jQqLcxlFl0iVR11ufRu1aGgH1s4COGAIAW0LLOecc+7h5gGvc845IBDp+OkIvS2IYXDA++9uOMurBAXAQiDrSlC2eny6OHDaI6YG09t6mwDsrAcZZgaMGvJKtqzHpj9znDt5goBmzqVMYCZBCUV7E+UeENcH8bcAIBhQdBjLslCnG1T2Iq655OQrdh9IWUREMw1goHAnon5d4M8QShJKNEEvgBP9touSWJircfjuCjv29pGqh3RJzq09UtM9palWnwEAmGe7zjnnVo4HvM455wAY4sThttLEDrQ7Da3923vIrV9NlHQinMlmiKkJdtPkluLunWeP5007ejOWbRTsjp4XaIKnto+Dc+7BEIAAKah5YSURkVAhBCCEOwVdH2Pxu2aCQQhgLLpFnhobz9e95MFV6n47f/Ffv4AXXHIBKoopmwi+FsDPACgBZt5vLCcJwIBYRNz9zwvY+YgxhABYoA9bc+tWm+2Kzd2OGQAIwT8/OeecWzn+Ccs55xxghFHBKEA8gOZH31O7vkkSAQpAMDPWQ8VqMS9OzBTfeNRTN3/9vKfNbJ7e1j2zWsxT1TCbmYmkAaOmm4SHu849SJIEsG3KkNiEvEWwEMzCLYK9yGJ9Bg2/mzMAWSy7MXSnijx+Wh8PZ7g78sEPfxEpmoKJMuUQdGVbsGiQwqjHbqM5JZQlcHhfwvyhGrFs0i8/Xbj1SmAgZAIhcVYgzPNd55xzK8greJ1zzkE5gG2lroD9y8qx/OpkfWkqdkWBAElrg10gYDC9tbx751kTxeRsuVnZJpoeu2aj/w/AqBWDN/Fw7sFQO4aQIsAAKYksAJUBRIS+qGBv3HrHro/de8ZdYChR9mIsyiLHTpm7vQLXXPKRFV1y6BClgrIZUsj/rkjxKkjbRSY21xT3OS+wJIZHE/bdOcTZF00gDeUVvG79ap79ghBBzEJAGiYCyKu9NOecc8e2dGwAACAASURBVBuDB7zOOedwMARMqA1ziSOjy3RBoyE67tR23x67RJAUUm2A2bHN2/uHd54zlsc3FacpW6da1FIrhranJgk2M2Sccw+GAIQm5pRJrAB1CBaQAeDfErj2a5U+vWcsIsZFAIhlwXxsiPy+H/3Eqi38r//wS7j0/B/C3Bm3RyZmRb0aCB8kUEiytgV3OxuuOcLYIfZ9bRFnPHoMjE2LBg953XpEChLV/jhLCqk2vOY33oRf/alfWu3lOeec2wD805Vzzm1wr7zyMZiuKiCwRCAo3NI2k4ue553yloJdoKnYlcThYgq5xvzMjt6tFzxjy5Fzn7Rpa288nlUtqlMPNWrFsBTsk4SHu849KIJkavvVkqpEBlKdEAgFfQbAU4bTg6cZwqfHJyI6RSyOPXIRM5u7edNMF+/7yU+v8iEAH/rSR7AwuZjH63HMDjf/WaB9Dk2rhgwtq95tA9yySxzdV+H4oYRYrtqynXvYCQwnitg1EwKRa9Ps5r9b7aU555zbILyC1znnNqh/feVFOHZcmDuqaEIGbPHozD5MH9p+cXuN0g5d8zYNp5jl1boAIJJBWawrAxmObt0ztn/n3rFOf7zYk2qVg4UaMGSceKx9eJpzD57auIeSAprpS7WkEmAEBIF/HojrelX8QkXhn86fx2P/v25xlsVUTFq6/kU3r/YxfIvJwRjme8d53EwM4cdF/SOFQqTxvl0amuFqAu6+ZQHnPWMz6oGaI/cqXrfOsPm8NOpftDnnAIWoCYurvTTnnHMbhAe8zjm3gfzwFY+HUoaSwuEjmUjKoOUQIszsVdOHtv2ywbYaDASDZ3ynnPu2YgCoLNSVECOPbD9r7OCOs8a6vbG4J9XqDBYS0FyUGsnYhrqjr+UPvHMnSU22G9rzaGazb7sUULLZIfEBgVdG5FtTIEKfiIH8nn/YoTxjqTPVwbXP+ehqH8YDirFA0U1Kx0sE2pct5t8H+COEEsRSgLis4p8Fsf+bFfYuJLAglD3cdeuOBIVmq4sgcFO5OWHTxZUNP71ptdfmnHNug/CqLOecW+de8ronIA+BMi5gUMWQsjHGnOsUESGI4bUEbwIw005FB5oRQN539dShZaEuAIScFdJQKLo8uvX0/v5tZ4yNd8fj1jRUkZMAIJNNiA9AAEF/rJ17sEZzCA2gBIlgOapYFfB7DLhahm9QAiGkGOOz79qUn/eWP8N7bn4ervq+P1/tY/g/etaLzkc9VACCAWESprn2GE1SuM8gRgMW5zMef8lmbDu9j8F8AgI85HXrgSBQhFEwALWobrb4TQ6K3UZhenuJt77k46u9TueccxuAf7Jyzrl17Edf8xjg+ACDejHMLRbMycwCsgGIxJuAuADgfZJmJCVSWZIwyiL8XWItG4W5y8Nd5iQOF1JgCPt3P2L8jgsv3rJ4+nmTZ8ci7BzOpyInGZq2DXGURJGkh7vOnbRmchhggkgoS0iSIsVSEAj+ugI2IeuVsPANIMAQGHpdjE0W+R+flgDglAh3AaAsI3IdTTIq5WOAbmp+RRmgjU5PUtN1OATDvlsHsGBL5SXNH5lzpxah/ZQEmZpwN0EyURTRJXDUiLf80vG/x0uGt0PeocE559wK8Qpe55xbZ15xxZOQjyUMh0DqZKrOZjQzRQRLkYFvBe0qAR2IIJRBGqBCInj/JopuLRp1U2hnNoE5CakyK/s8vOPMsUNbT+9NFr24NQ3EnJvODSRHA9e894ZzDwFBoghRpJgAmIgSWDqJ/nIO+AUYjkUTIISiX4RemVT2OmBZ4ppLP7aKR3DyfvD5Z2JR4yEls2AJCHGOxKSkRDCCTU9SAMhJCAz4npdsQ4jNvwNexetOLUu96SUTmEk1t8Kbtiv3CLzeEH4rB2DL/gL/fG7G3qKDm17kFbzOOeceft6D1znn1plBNcCwzsFKBEtUhMEC+mC+AQpXiYFQAIEEKkiMBExN6Rng4e5aNeqvC5IYVeymWki1odfnvbsePb6w9Yx+P0aeU1fC8HgCwlKlbxvuUl6t69xDo8l1mzI+QUUzUQ0A8M4Q+TbLWghAO7SS4NbSxkz2lhd/dlXX/VD4+J/djosvu9BCrmMIzED4WTP7XQJBRGiHTgEAYkEsHs/Yd+cidp83jnxMYPTTkDslCM0HpEAyQEogC0KFiUDANwBcTePvIQoBQL9TxJlNylu2lpio/XLbOefcyvB3HOecWyf+7S9diG/eGjhYMIUAg2BR2mwRb5bhimaWO0CpBkEBkWIgm867JH1Xx9olCQQkkgYgNsGubGyyOLDnvLGjW07rbWEM2+rKQqpSMzgtPmDFrqcqzj1UmuLdpoIXvBfQfxTtRoSACMAAlt2IXqdQ7AWUnQLXPG9tDk87GWVBmCzn8jj6k8P3L9675XqB5xFKEguybVIaiEDD/tuH2P3IcTRnMx+25ta0UZ8RijRKtYAOyCJXAFB8KQRcf3wqf2DTPBCajbGx04nacmA6v/aKD6zi0p1zzm1EfjHvnHOnqJf93OObaeQxYDAwmiWl1HRALKJmJL47AD+ppYoy1WgKziIla9oyAPDAby27//A0pkpQttybLO7ZefbYYGZXd4bk5roSdKIVA9U2uGwDFH+MnXt4NN04KUZwZ4bu6ZURmYGdbrSQs41Nlrj60r9Y7XU+bJ7xoqcgL85FQ8gBehrN/loASBhEa88+lIRcG5764q0YG4+oKm/T4NYeQQIYKAQ1bUYypUIkaABMn5fhDT/7U5/91K/9xjNRdYjJgFh0Qy4mImKXuP4HvSWDc865lecVvM45dwp66RueinzPAQx6XQ6SVDKqiBkB4fQY8S4DXxEgtOFuLaIgUKjpzzAqm/KbfGtT2y2jyWhJZrOmYlfZNDFd3LX97LHhzM7+TAg4rR4KtZqKXaCpxW5S4ebfVvVInFvvBIpKFJmJ62Pi61SE+K4f/XR+zx8/G1f98KdXe4UPu34PmDjSyQd7NSzZ36jghwFdAjCh6Uc8OpdhWCfsv32Isx43AVTtNE+v5HVrgwSNgl2Aqih0ABZtM+nPAuG6qou/igPg3zz2LXjiaz5T9Auk7nQv3/iC9VOZ75xz7tTkF/fOOXeKeNkbngBVQkpCVo6DFHIJIWWhDDzXEH4ZxAuWBpMTddMaUpGiiTB6Jeca1oybX1axG8wQ2ordanxzcfC0cyaPT28vtwNhqh5kmBlwomJ3qS/v6h6HcxuLhEwqNnfUMB2LYg40TmKXrn/V+1d7eSvm4svOZ11LALZTuAcGiMpt1+8AANVAmJwp8JQXbUG1aKNzmAe8btWouRceRAWKuem4grKtQoegTwXhTSna35eKSCXQL6woyzKV3YBYlLj2Ug93nXPOrT6v4HXOuVPAS654Kubn5mE5cxigriEbCwTZ44sY327Sc0UDBJCoARaQiiZvoEbtd1f7ONwDakJZtQ8SaWZLrRjS1Gz5zZ17x2x6W3dGGTubYBejil0CS30cAH+MnVtp7SsXtYiS0o1Vqq5EgIXN+1d7bSuqm6IqJAK8V9B7Qbyhubmo0LR9B4sOcOxQwuG7EzbtLFDNmw9bc6ulvSGq0OyZQS2qpBDbF/WHBFxbZHwxk0hdoFxEMakihS7TTS/9xGqv3znnnLsPD3idc26NesnrnoRhbSgxwPEjCwVDSMGgsiJCgad2kN5hwLOaVqsEhQpEBFRKMJKjil3frbE2NQ1zRxW7RDCzpmJXWJyeLQ/uOneintxSbreMsWpRsKbczdptzfcfnuacW3kUBQpFe3vlipDtGgL14nAY0LZO2QhCGVAkGgxI0a6ICq8VVBLMgiJAMZKpTth/5yJmdk0BwYetuRXVDk5DEEWKRjBJKkWWFCDgjwx6Y87xDtLaV7BxKkXFyZj6UwWuveRjq3oQzjnn3APxT1POObfGvOrnL8SrfvpRGA4XwsJiFd/d+yJSsjScKBCAZ7DAfzfqbyQ+SyIIVqRMQAdNDajYbIf1c/zaNAp2AYwqdo3VYg71UIOp2e7t53/PzIFHPW3L9Pim4qxqUWPVMFsIJpKjsJ4k4eGuc2sBJTJQqkUCIfyCigJ1HcIvfvyK1V7ciim7Bf7qQ1+2GBlhARBfF0hAQhOkATCg0yP23TZAGgIsmlOYlnoLOfewGfVBCiIEsBYVRJUkQeh3ArQrIr8Uwh1lGTE2WcaFRwT0dnU0tr2LX3z5zR7uOuecW7O8qss559aQH/3pC3AYhIY5hk7Kg0EXjw1fwhfsgks6zO8JpvOxNJQGCUBs+7aC5NKWfbcmneiO3Pw8SAppaECw4zM7egd3njNu41PFjpStl2sttWLwil3n1jjJ0EywjJSEaCUzVHRi6J9W2pt/4ObVXuGKefaLLwyLg8pqEt1ktwXhTFGJYAFAMHCwkPG452zG1j09DBezD1tzD5+mh1EgFCRmEKJUNr9IAPhVUDdk4VBs7pFDBk5OF3rrBhiS6Jxzbv3wFg3OObfKXvy6p0IpA7kKhyRmMRM5d8ohVJWXf9nO++Ui5LPMBAMBKRGMAgq2oWEb+vlNu7Xpvq0YACiLdTNBfm7L7t6hnWePF2PTcXuqrDcYZOBEsEtJBiwNIfL0w7k1SIARjJBqkCWyrk7kO1WD8bDl1V7fSipqWkyI0Swr6CcCcDPEQpRxqRu84e5bFrF97xiwkL2C1z0cJCm0n4+SmmYLJaGo5j7rvwPDjcZ8PObmeVmWJDulxoqg7qbuKi/fOeec++54GOCcc6vkZVdehHogpDqHugKZkVUAsQRyFX4MsF8IwOlmAaQMYIZUgDShvVD2wG8t0/JQF0BQVqgrIUbOze7u7d9+5livP1lsT7WK1Fx+ZpJhVK0LwNswOHdqkNAME5MQQdWgdZgDim4M2yb69obLP7raa1wRl1z2BBzVAjoDQ11kCMXNhJ4tsQZUklRKYhEDnnzZLMo+kaqlljWrvHp3ilNbCd7cHCUFyQgU7SxTQXg7iLfFjCpHwJhDVAwqqcnJgLde/qnVPgbnnHPupHgFr3POrbBX/PwTMRxkLM7VTbAbc0YoMhhA5FfbkO9AwCwsIAAKlCRGcFnFLvwqeI1qp3LfJ9ylslBXQix5aPuZY3M79o4X3X48I9cqBgsJwFLFbpQkggI9vHfuFEKCEsRmqBhKpvAGxfDeqspcOFZvmCreD3/g73HxCx+JYREIRCHg1TLcSqgUaYBCUVILR2oeumuI3Y8aXwp4nTtJ7bhZhPYmaSIZIEWQELBA6JcovBUAmgpeY9mN1reOcTJa2Qu45oc2xk0Y55xz65NX8Drn3Ap42RVPREZATkBeXAypAgNzlggWGRB/DuJNAjahmcieQZiAgiJACR7qrnUPXLE7FIpuPLL19N7+bWeOTXbH4mwaqMhZQBPqmvfXdW6daJqwJJEFhSOiNlNA0Y1hYmvfrr9kYwRIz3npBViYHyDnCMBAxP8k6CdI1hJKEqoWxU07Szzx0llUCwlmze/106D7LrQtkMDRTqe2grcwCUYuEHiziPcyAWBG2SlC7BZhUqU6XeL1l394lQ/BOeece2h4wOuccw+zy1//GBRHEo6BAabAGIRMgBkArxbsJopdUSCQIAaxHddDWluV4le8a9PysrNRWwXmJKRKKHrxwI49Y0e3nTXWKzo4LVWGnJpgFyeGp3l/XefWCaG5GUchiSqo8FNi+E0AcWpLL9/4oo+v9hJXzLMveyTqTFqWAJaAKjQ3LDPQbKHPyfiUF27F2FREPfQha+47I0AUAigIBIUsiECz9yUAByFcl8TfKChYEdCJMZY9U2d80t586YdW+xCcc865h5x/inLOuYfBj171BADAxT/+dKR545zFgBAMCApgKepGIAgK70IT7iaKqWnFoEjBSAY0Zbt+rl6bmvYLy4YD5VocLiTEggf2PHrqny/83i3Y9Yjxs8zstOFCRk5SW+G7dIO1rdr1x9i5dYBNuGtt7ATA3oZUgTnlPKg2VGHFJz/wFZQYE0MkhBrgVWj6DBmAwEikyrDv1kUUXQIGH7bmvgMSJDYzZ5EAQVTBQDLwmzS+MoUwa8RvEAEIjGWHYXN3d/6Fl33Gw13nnHPr1ob6oOmccw+3F772KVgcZIzHAZIQzEJQzspNSe6YkW8n8HqNusVRddOAgRHNhPF2k6oHfmtUux30Pq0YmGoh1bL+eHHv9rPHFrfu7o0zcltdCWpaMeRRf100GZA8uHdu3ZKEQMLanrw/JrPfKTqMmzZP5Gtf8Oervb4V9X2XX4i6qqGaALQfwKygRLKoBsLETIEnPX8WSrYU8G6USt7RDo7lwfb9dnY4tBW7zT/Ztq/KkAqSMBhg+CrMro3j8b9pISMFQ6dTxLIoc1kGFL2A65+/carnnXPObUwe8Drn3EPkR179eOTFhONlphQVmZBFRGoGwNsg/KzaTfwkajQjnSk2k9fbL+NXdGvT0uPTNto1GGJKQqrMxqbjvTvOHJuf3T02HYjZNtg1NJVqy6Yv+RW7cxtAs4NcTKQKiHdTeVcSUPYLbDt9DFd8/0dWe40r6nsve3Ssq5QNfBFgf0zRQMAMNpxPfPILZjG9o0S1uP4D3gcKc0MAYtkcc64NIQQPeRuCBDW3RU1UDaFDNk8eBX0+hHDDxN2bPzi34wg6nYA0VCy6UdsmJuyKyzfWzRTnnHMbW7HaC3DOuVPZy17/ZOQkZNQ4Nqxp0WQGBRoknBaBdwN4pdp6TQo1CEoqSRoII5pWDKt9LO5ftHx4mkIgUy0oWd2bKo6ceeHY/MyO/iQC9qahRhfvai/cm0cdTci7qkfhnFspFChCRfvjTkW+jEX4g5wsDgcpr/YCV1ywXIZpKHf/JGH/34N6QhOAowgBuuvWRW7Z3UMFresK1vtX7JoJZZcouxGH764wXEzYsruHepDX5fF/FyQgUKJIo5BAFRQ7CIAMn2PQG6u7z/xsd+cdyNMDlD3GbqfQxGTIZZe44hIPd51zzm0sHvA659xJeu6LH4FqsIBqAGpRwhjVMSERjwDyTSJeLgFt6UkNsWiG7jAs396/msfg/kVtDw204SyzGWKqBGXT+Kbimzv3jqfNO3ubYXZmqgRpecWuD09zbiMjAJGGduiagt6eTH9gMeS6toD2XLFhxIjKjhE8Jir8OBS+QKgAaLEkD359iOFCAgtCaX2Fu/fvK9xU7AaU3YBYBBw7kPDVrxzDbZ8/hs07u9hx9hjqQd5w7SqwrAUSyAAJAipKHbG9ZqX9JcCr1MHnOAgIe29BmC+LNJ3SVBHy9T9886oegHPOObeaPOB1zrnvwg+//okwJdQ1IaW4sJhzEYIYDTCdlyLeLeD5UFuu2WwnpMSSlBEwEF6xu7Ytr9gNZhZSZVC24eSWYv+uc8eHUzPd7QiYqAcZZmYA7H4Vu96NwbmNjWzu8sR2ItTeEvqhkMNHcpU3XMAbI1HEUqkeICD878z4hwReCiAVHcaFuYyDXx9yxyPGMDim9VLB27ZdB0mqDXZZ9oJiETh3b407v7yAu7+6gJQMRRlRLwoLR2sUJZHSRho4p7ZiFwFkbhrdowTYaRskfdRgb+of73xxODlEzICBHEs99bpl6k+UuPryjdX2xDnnnLs/78HrnHPfode/cStuPbwTWZlBlRC7GAwy+p3w+Ay+GwHfT7Wz06lKYNlcrMjQDE875a9W1zHhRH9doA1268pgsuH01u5dO/eOFVOz5bQyplJlMNOoxQaXXcUD/jg75xpqqhGRIBagvpxD99GhLLGDhzHceTpu+L4/Wu01rpiLL3sMclURBoE2JQtHIYIRNphPYftZfV30/Zs5WMxL8fepGPI2A8EQRoP2AGQzhbJfBAbDkX017/jCvPbdPmDOQrdHsCBgwGA+4QnPm8XsaV0M5hMY1v04zjbLlwkUIFEocaKNxR+BfEsM+Z+yEeXREmk6xd6hItdnB2zuFbjm0o+t9jE455xza4JX8Drn3Ldx+eseh/lcomMZt80PC9QxIWblukYMnad2yvhuA55JU3PLjKwIlWgqdgG2I9X8htpatbQllKRIBjOFVAEmLUxv7x3YcfZYPbWl3GXZ+tWillXsAhIoyIenOeceSLsTQLG99XceNfx+S9UnDqAs6iM5rfYCV1LZIbJ1pCoRwhxM7yBxHQy502Vx8OsVBvMZRYdI9SlZvar2TmFYutErdAAURRlx+JtDfP0f57H/jqEkodOjOv2iiYDbpkASMLe/xuzpXSAA7fNmdY/qoTe6FR7adgwGIREq24p3APh9IF7HArcr5VHITWzP2obFHB89iSsv9XYMzjnn3HLr7hODc849FF7+hifi8p95HOphHbr1IP7Zr/09lJV2Ds4AoGeG7vjfIYS/AfVMBUFkBdEEdZppajCAoQ133dojjKrrAJA0M2O1mEI9tMWpbZ3bznv6ln2PfPLm2YnpYm+1qH41lJmZSLZhPUHSezE4574dqnkvqABBxndMz87jn/7DzjQ2fwjv/shzVnt9K+YTf/h5FEWBooQFZkTyekDzAApGplQp3HPbQGWvqWZdPoxsjRMAa5otK4jIpILATvurn5/d0z37b/90/xv33baIogP0JgoyEsrLDtCAoiQO3zWAnRKHfVJGrRgIQSTrNhAv1TzevwVgBzNeAdrtAFB2YywmxjC1ZUxTM+O46l//D1x56SdX9yicc865Ncgrypxz7n5e/rqLsDhISDVi7qZcqsSxQwuY2Nx7nhLeiaDHmJrTJ5uL9lJNqAsKth7LbdaR5f11ASBICvVQCOTCzI7uvp1nj8XxzZ2tqc69XAtmyDjxftnOTvJQd61Su+G37bcRAOR2EjtHpdqrvUa3wbTPxVFlZ4z2VAR8DgZObxnT9S/cWFvMf/C5F2HRBjEIOUf7vwLwn0Gqmk+c3tnVky6dZbWYYM3IyjV8m3TUXUDW1szUojqjHvyCPomA67Zs63xu/90VPvf7+xEneItJewEmNEPmRgM9m6+YBAsBT//hbQgEcloXg9aanTIQKZjY3GAFUDaVywSh9yngBmYeEYGoANEYB7XGz96EGy7x/rrOOefc/4m3aHDOOQCvvOqJSLVQzadwbEGkkAHkFIRY2UvGp3rvUsJeCwYoikSz7VbosNleaATYDlBza899WjEAoLJQV0IsODd7Wv/wrnPH0Z8odqSk3mChBgyj4WlxWW9ewHe/rGXW7IxGFilKJYBCJNpgocld/DF0K4kEpQAwgSos81eqbvV0Q9TkXF7t1a24fq/EYqjykbEO+sftd+KgupqG84oe09w9dTF3oMLkTIFqMMoB1+TL1Zp3BZnIBKgE0GlPMR+xEK7qZn5xWADVwHDXP893BkhVL3WfD/AfCRUiM+4/S64A0qJw5N4hZvd0kdM6CHeFICpQTG31bgQQ28j3V0II1+fMYYgAAlh2iKIHld1SZaeP637Iw13nnHPuO+FBhHNuQ3vFm56A+aM1chYkREs5I0Z0CCTpxwTcBHAPTGiD3BpUR6I1w1Pa8hO3Vn1rxW5WqCtDLMPxraf1Dm47e6zoTxRb01Cdtu+jkbS2fcPSCPTVOgD37TUPMCjQCAmiRJUUoOZh+yClF4gARYHNz7BGUyO3Xkloeo4GkoDsIjF8vuzGuNOUf/5Vn1ntBa64Z73gvFhXKSvwqQT+BoFYnEt27hMnbO+Tpzg4Pgq/10wVr5qm+rJmU4DUDFNdOp38v6DeUqG4pWMZXQUMC4tHjh/Lv/nzY3jm8/YHUzBD+L8B/JzERKoA2l797SjWxbmEsy+awHnPmMb8kQSEUzLkVVOxS2tOyTRRRXNeRgJwI8X3AEo5EsghdPoh9Muo8YkSb7z0o6u9fuecc+6Uc8p9WnDOuYdSNcioBhm5NoSA5moy6KeTYT8CfpvGPWzqdJIkgOg0Vy2jS7FT76prAxiVfS0Pd5mzOFzMQYbDO87u33bhxVuO7Llg6vSy4GmD46mTahma9gtL4S5bq3o07oE0jy+aynmBBihJjIJKghD424DtYtJlCnxXMEKUtb2yQ/s1nFshhKQAsmqir/DuXiVwocq3dDLe+ZFLVnuBKy5Pbc3NXhn8LcCPwICyy3T314ZUwrJdE6v6Uh29l9go3IWQSEUJ7Y0k/C4Mp+dCPwLxFggwCxz2gclNW/Ou2W148rPmIRTIoQBD/HmBhwkVApPUjOxU23iXETh6sEY9FBibP4NTpRexmqUaIEJMTbiLKKKgOC/gGhAlxXdYsGQhsOzGML0p2JbZnm58+c0e7jrnnHMnyVs0OOc2tABDt0gwBKTMK8BwE8SJZoozMygjGCUVbVAYPPBb09rBaRTZVD3lLKahUHTjgd3njB/ZekZvuuzH3WmocriQgCbIRRvqGk4U7PrjvAYJEsUgKkBIAqxpxcASFAT+mgxvjsIhESiH4+hecPDauVvGvo+RTxKVKBYizB9gt4LY3DxC2TYKec6gtEcC/EpnDqx7+ZRI8B5KHB6DYiRDkIR/Q+JuFigX5up88K5B3LK7j2r+RMi5CgQpiAwks5oG3yWIsv31/5Spa4psBxEMQQGxE7m9Wyv0umIZcfWlfwwAeNaLHgfL0XLOUdkyQ3gpiE9AKNjceAokBAPLHnHsYMJgXuj0CVWnQAXv0u1UmYjcPN1VNDkvDgF2gxB/lWw+XRksll3aJLKmu4bXvPTTq30Ezjnn3CnPA17n3IZmYhzmIgPh1SR+pa2VSQADpAjQBBnJtmLXrVGjy0uMKnZTEnIldPpx3+5HTR7ftqfXKbrxnFQJbbCb2/66TbjLZu/+Kh+He0BN+Xz7GIfRll8QRdPikQD0Hgq/COA4AwAIsBAGYwthcFtPgD1TsIUm3FUiUDTV+Gs9OXHrhmQEgsCKUEchvium/CLAVNcbrxdvJxisjKqrBAPuAfheRr7BsrTva0Nu2zNmCGA7ymyllqXmjEI2FddQM7kRJckICBDeK/AmQkchAs3mH5YzWRP9qOt+6LPf8kU/9Sf/CwDwsn97jUsUlQAAIABJREFUWr7zq1OwEG4uIv8A1MsgJhClIIMIkliYq3H8UMLWPV0kLI1zW6k/g++U2p4VVPOZKbV7Zor2JvndgfZmEb9VJiAHoezGGHvMk0fGs80AV1/6odU+Buecc27d8B68zrkN7cWvuygOjldZwKsA/E7TYxdFUyEID/zWtlHF2ygAyABiroVUG7oTcd+2Pf25bXv607HgbF0pKMvQVOk29UWjVNitVSd6Jze9S5OkQDCKAoQhAn+FUW9BotoKXnZLGvq0LWkMc2GIYV2zHkoIuhjgp5vMhkYitPmwPwfcihDa3u1iAAUinCngjrIkN08XuvqFN6/2ElfUs1/4GFSLOSDAJIDRck4iC+Z/dflsZAxKSc2Wiof3VK32fSRACOCyG73NVFUQeDugmwTWaG45MXYLi/3CxktD2Yl40/M+/m2/ySWvvADHjopAVs4gm6/FdmdBRNv+abiQseeCcTzqX01hMJ/XWri7PAQ3EIlN0VCAAkTcFhBuksLvFBBSJGJWjH2qSLS3/finVnv9zjnn3LrkFbzOuQ0tIABNutOeD9tMd+kvtwYJwKiaU2h75aZaMSVTfyweOO1RY0e37u5tZuQ5dSWkxftU7C71X/Vwd80SlsprZRBz20ajaOfWDwNwo4B3RwrKETRj2YmInUL9qQ6uu+TE5PX3/Yfn6E4uIAifQdAvCuEtLJf2FAeIHvK6FUHA0IwFrCR2QLyT0CvSMOvYnOEdH3ourttAPUhjScRKlqXIoCzwNbHgry0ez3bom0Pbfu4YUmqrVx+e0Yhq8naRoEHK7XjNopl9hiGkGxnjLyMjt98/lF2GTq/Q+GTE1Zf8xXf8zT78/i/i4kvPl0SaTKK9CsTvUoyiQnsaUmDgkbsqBASEcKIH72q+ZbUDLUMz1pImKTWnaJQhJiCEryLYVWbH/zRoCmRAWcbY7UWNhU7udCOuvMwrdp1zzrmHiwe8zrmNbTSOC4gA0PZG9Gh3bVp6ZNpkLgOIqa3Y7U/Eb57x6PHFmd39TQx2bl0Z6iotr9iNTYNewsO8tUpt2IIAMlBKAgiqaObM8xgMN1gR/z2TwSCUnRhjWagch8qyg2uf+5Fv+ap3nk/E22OYPxLs0M9N37Dz1w/+oMCnkEgSinZoonMrgaIEsSQFCT8C4xsA3Lu4CHbrjdWL9y/+8PN49oseC1WVchYM+nWE4jpGnH7XLYO085FjBZZ6qz+kp+6mCrXt500wt9+hQFPJe1TQOyi8BwFQELq9yKJbWllGKzvRrrn0Yyf1jT/zoS/h4sseqzIdQ6S9f5h6Pw3oGRBrUCVAiwWwMJ9x/EiN7nhEqlZ30JyAQCC03YwqCB2QxTAsACW+EBCuu/n3Xv7nl7z8A0AoASAWnZCxuci/+PxPrObanXPOuQ3DA17n3MbGpZrd5nwomEd/a879K3YRApEqxVRbPbapOHjmOWPHN2/vz5I4rRpkmBlw3+FpXrG79rV5C41AbmapsSAAGPYbdG2A/h8zACECsNDpRIzvGOTrf+Bz3/YL/9LFH8ENv/99pm7F0/7jfhF8RoaOS+y0bR9GQxT9+eEedgTZ9pVOAEpGvS0nvBqB1rR731g++Sefx7MueayZQhSQUdiryzJ89Mi9VXH80ImA8yE8fTev9eb9PlOkgMggADho5I0gfpW1QTGChliWtF6xSTe87E8fkgX0xwMWco/DbALwEpH3EiolZhKMBbV4vObR/TV2bS6RhgLjQ/KtvxsCEASx7XleE+q0lecA9Hch8A3//r987rOvf9WT8JrXXol7h8+OLKeFjNzpFrjm+ScXgjvnnHPuu+cBr3NugzO02V97PvQS3jVEONFfFyTNDEyVoGwa31TctfOc8bR5R28KsnNSLdTNNtb2AeRoMI0/oGuUmhQXoggggEyQKKAITZhzh0HXF1Xx/tRpasiKToi9iTJPbOkZB4Y3/cBnvqPv1Z8oMVzMyilQQh0sfC+BvxZUsBmmSHqrBrdCmttVCs0Od/wkIq6MAXPVwAKw8SrKy6JAVVS5sygo2MdCGf9y/mh65sFvDKszHjPRSUM92JbpbcUuKDIASG0f9gIBILDPjFcXdf7PqQtAhrLDWPaLjKky9wVcc+lDE+4CwEd/7x/wnEvP1bxIAPsEXiXxPW1Vd2CkmQXM7auw6xF9ILS3BFbi7NSOThMVKIJgJaoDsdMOov0UgGsL/v/s3XmYJGd1Jvr3e7+IyKXWrupdrdbS2iUEktgshBYQi0ACgcCAjcdjj8F+HpsZj1klIQGyDAZ7PJvn3jvjGc/Y12PDsBjGGAtZMthgY40XuAZZYCSDWLSgrbeqzIyI7z33j8isLoEMWqoqq7vOT7Tobj1Z+UVkZFTlGyfO4S2VGV73U2eg05/MvnnwRfW7f/QTG29aoHPOObdOeMDrnNvYBDQ1oc35UBz+2SOecXpYxS7JYIYwDHbLqc35fTv3TPZntuRbzTBVNRW7BsCWV+yS3kZ5HWsGGjUhglEsARWAMjAAwJdNurad8YODFGDNyxhjTk3snExvv/ix93G88rIbcM3vPA/7eosqsgAFfA4B1wLhuiZjRhxW8/sZwK06Cs3d7kAFIY/kL6WkN/T7dfjXv32e/dt/9tlxL3FN3fi//wYXvfx0pDxQlSkWeF1W8Ct3394rjj69a4wM0uMKedVcKQRBmMgSUkEga97v/Bpgb1E3fQj9AA4CYIh5ETXYszm9+7wPrdIWA7PZIhYwqxSAOKh/BRH/QuLJpGoYsqJFPXhPyVQ2vXdHfXhXkZpmFCQpA1iLyAEVzXUv3QDwLRnsiwkRsIgitTmRumKOenqmXu31Oeecc+77CONegHPOjdMr3nBW3jtYVQDeBOBXINUgI/z8OA7LK3YFIJhZqEoDZP2p+fzenSdOYnpzPqdkU3Vpy1sx8ImWd7m1s+y1GmYvo0xVtxrCmxBmbwjYi1YZYF3GVh4V27C8IN526aMfaPRI3veHL8TeB/thYWGTtdPtqItNf0rT+SJrCpkgDQ8jP5bcajM0b4dIEgiYBLCQtyJnZqLeugF7l577sqeAZYmyTMhi+M26n37imZdvqbqbsrwaNJWlj/Ys38xOEwGYyEQpA4A6zyDgVhreXFT6ozoIWQsIIcZWpLJOZkWLeOuLV7+9wDNffA5ivRgNlshwuoAvsdlMk4R6YHbuK7dweR/eVfg2t/RtV2LCqEc0RoEyfx+0t5aIXy2U0GpFsB0jolJGIisyXPU4+xE755xzbuV4Ba9zzjWaCl54qjMGy3e7SAZJrCsAst7MttZ3dhzften5fFtK1il7WqrYHXbU8HD3MDBqtQEAZKSUlCwxICCQf6WgN+16qPVn98yWiOEAaiCGNhO3hvTOS25esXW85cU34Nrfu8iKeD8V5xSFiyxwAVBbYE0ya+a8Obe6BBigSKKUUJC6VuJbB4vJNDPu1Y3HX/z+F3DRS54ULJi1puLP7ltMP3HXV3v5aefPpKovImh4Knnkd+jov0IykkFkCaCglDXdEHBLCnbtde/90xvf8daLYBkAIWZZTN3QTVf/yPcOaVxN7UwAY6rrOoSAW2n6NQC/ACCRzMySPXRXiaNOm1iNPsRQ0yYkkDKJNakcQhzeyvA7TLw65fpGrJcmURJF1HWvutlbMTjnnHPrjH9+cc5tbFr6laHpb2dY9bsg3TKj6eij6l2WvRRSqQObthZ3nv7sue+c/NSZrd2Z7NhBT51qIDMzsemhCIij/rz+/WwdOxTuBpgSFsv9KaWSW2a331u04plnHnPW01M9+LP+jJAXka2JiM6mIk0c3cL1l3xqxdfTnSrQmSgUi0C2qEQ7rzmWlElIw3zXzwRuVREARQOQD//mLZGKoKy/sHHvIsnz7xgYeN/X+r1guPq+bw4wWDRjPjzvD4dtfhcJMg7DXRAVpECpgASRfxFl523eVz2zqMON//F1T0UwxSxjKCbz1J5pY63DXQD49Mc+jyJvI4SAVBlCaW9UwAMCMgTUZsYH7ikVs9BcDpBW4swkSWEYlEtSLTGQytUclf8tBW2OCT8Wgn0jmCEWkVumDNNbutq0pfPEN9w555xzK84/EDvnNjZa03SXykEta8LrVpF0aBga2NyKykGvRqpwcH5X+47Tnz2/78SnbdrW6sZj+v3UqUtZCEEYts4YVezSB2KtW1qWQpARUkJvsB+DNMCu+ZPwrNNfhYuf8pP73/vPP/PF3Tt/CLPdzfm3tg7wnh//tCY2d3D9y2/GVRevzm2/b7v0k5icyvHLP/5pRVrIAv8G0FsFAsPBQn4WcGuAGF1UbAJJJPAdUUA9UPiFj7143Osbi0pHIY/UxGSG3SdNvfvgQ9WDD97Vz4qCCc30zKXzvppZjWhGMBKCSpKBYiESIm+EhbNjnZ4F4M+v/JGjEFPK7tk9i3SMpanNbXvPaz6Fa8bYYuDGj/w1QpHMMospDzDjKyEBhixmtIP3VywXJcbhiLPHd3aSMPrGq9B0JVY1bA+SD4e7/XsIs4B+KhgfGM76Yz4FTGwOuuY1f4prXvZJvPFx9EB3zjnn3OrbsNUBzjkHAFe84Sn54sGyIvCLAN4OsQKVYTjpya2YpU+ko+FpAKgkVKXAyIfmj2rv3bGny0437qqTxWG/wYcNT+NoVI5b10YVuwEBtWqU1SJizLBz7iScsOOpmJvcLpkYolCmhdlNk0ft6y32w01f/jW7/tWfW7N1XvPBi1AtCt1YY/9CAmJxc5Ces9SPl9LwcPNjzq0qCYlUlJhoyFIQWp0Y5iYn7M0v+8S4l7fmXnD503D/3r3x/m9VCUxXnPTU2Q894yWb1dtfheFFQYAMFIIoI1hLyJvSewHAH4B4Y0z2VSMRTAhGxha1terAthD/+vL1s18vftUpsL2b0eO9aHL/8HtAeLWkqq6QP/2yeU1tLlD26sc8ZG74/wFCAJWaK9vKAI76I70H0DsAVBLRagXGdmaxHa2VSuRFhjdduvH6QTvnnHOHG+/B65zb0IIC2BQD5UJz5+dotLlbMc1H8Sb1ayp2k1iVQsy5f/vxE/duPbY72enGXVWlvN9LQBPq2rB9g+HQZB1/Zdap5aPqyYikGv1qAUVs49itZ+L4HWdj0+QOpFSiVy7ATAlgBOMF9z90z/+OzMKrLrjSrsdL1mzN7XaG3sESBwaRCFEF8NySPAhhAlBNMBtWi6/ZmtyGpCbcRUUih/TWCL636okLqDZkr1MWAVkR09e/+uMAbv/wM5//ub9deKg6u+iwrktFEIFQEiGKuaCcBAT+ngFvzUP2zdpqAAl5kUW0W6lVROVt4ucvWftWDD/ITR/4Mi5/zlnoFxlDCFKIPwpVr2ZkXh2s0v77qji7tdCwTcOj6zkvSBSbNiBKTeMZZsPMtwT1DpK/ghoJBPIihphnYXom6M0v8kDXOeecO9x4hZpzbkN7xRuekvcOlhWAXwXwRq/gXTGPdA9pSLVCXQlZER/cvKu9f8dx3SzvxKNSqVDXAoAEIIwqdtEMXfN0bR1bPjwNCKhVoqp6yLIWjp4/DcfvOAubJrahqitUqY9mPh6MCEkMGYD/BMPPAYi7ds+kJ+94xZqu/50feR4GB0qUZSIBKeAcAn/d3AmuRCIO+7b4cehWiySE5rSnSLIfiI5ZQFaEMDk/aVe/aOPdFn/u805Fr6r5zb9fVJ7jqRf+yPa/OuHsKSzur40BtcAm1G0uIf5mDLrGUrxLqFHEAqVVzNsttUC867V/PO7N+YFeeMXp6PWFVIsWggL0owjxdwa9ZNuO64QnXzyL/kJqrkX/k98WJaA5k4kAwaaBBRjRnKsPCLreEt/HIIQYoQQyyFqdwq5/7coNtHTOOefc2vIPK865DS5ATUu/DODwjkU/NT5Bo4Fpoz8zJXGwWAcyPLTzhKk7zjx/vtx9+tSuwLBrsFiHupZAiGRcepAPT1v3lg9Pq1OFxcE+EMSeHU/Fc5/04zjnhBdisrUJi/19KOsezGxZGGw27KB5bow1YqxTOSjWfBve+fI/RmcqR11NKASGGPg3EN88vEQRAJqkMKxRdm41cDjgkyBqCG2T3qDaUPbEqn9w3Osbi6nZFlSZbrv3pfjAty7463JBvzXoCYwMAnJSgPT/gJxD0r8ww12CkLcyoiNMzuWa3nR4hLsAcMOHb0VeZGCkDnSm0cs6/xPAZ2MWwt57yyolpOH3RP0TjXibTkZQEJkgQlKkMdL0QCD/FYhpJnsfQgDIGHOGqR0DTe8MtmlHvsZb7JxzzrmV5BVqzrkN7YqfPStfPFhVpH5d4s+SGgAs4OfHx6oZ3nKovy4wqtgtDXmHD2w/trt36zGdbsy5ox4IKTUVuyTjoaFrhA9OW9++p2K3HqBMA3TyCRyz9Uwcu+1MTHbmUNV9VHUJoAl1lwX+IGEAk6SM5AIMmxBCtXXHXDjn6MttHNt1zfsvRG+foIkSoarBunsDgl4goSaZDTcc8CtAbpUIAoUkMsK0j5XNIiZkRYaZHZvxthd+dNxLXHOnPe0EzG8reHBvLTJsPv81W+/LWwFJel8M+MUa8WBMCTIDYyDzliam27j2ZX847qU/bhdddhqq4R0FFrk5Jd1XV8DTLp2vp+azrBpoqYq3GQ0rNC3qYQASBBKiNaer75jprXmJ/1G3iBAMqBTZzpV1g01O5LjyxTeOd4Odc845tyK8B69zbkMLNBv23Y3ef/dx+e7haQlArCshVUKrG+856qTJhS1Ht2cYeXxVKtSL9dLjhuHuqA2D7/l1bnnFblX3UaU+usUmnHjU03Hc1jPRbk2iqkss9vdidI1kebg7CoYFGIQ4/E8TIE6l0t8NFvtE06ZjzXWnClSLNVIfhBUKtBeaYS/AGUC1yIyj25+dWwUUJSo2IS9mlPF1YPYbdY1Y9dOG7MV71PETCCFpdkcHu0/t3s+g5yvxFgbuh4QAY96iZZ3CEE1FQbz9ssM33AWAvMhQm6lOxnIh3Z9n4Y2DA/W/eejuknM7C6t6IjNq2JqCEo1UCaEAkIGEDF8PwpsmivjhhcrQtLJHzPMobZlMk9MZ3n7hH4x3Q51zzjm3orxCzTm3oV3+008pBv26JPUbEn+qqeBF4T14HxU9rGLXwLoW6srq7kR8YPsJEwfmdrbmYuRcVQpqKnbl/XUPL99dsVvWfdR1H5OdORy37SwcvfU0dPMplHUPdSoBhEcMdR/hK0NgSakA+XpJv9HutLh91xadPn/JWmza97jugy9EvzdA2asZCJnZ6QZ8CSQoJZGRgPfjdavJBCWIGYl7EtOOLBHtqSJc9+qbx1LdPm4/92/PQ94OqAZCdyJCSChaRchzhHJiRqFV4N0v+F/jXuaKuvDlT0YqB2Ew6Nl/vvFi/PNnfOofdp06eeLZL5o/uLivmgTQFOiCCVQmETTBAm6j4c1Wxz+0VkIR2rCsjq2Mit1oWTvDletwyJxzzjnnnjgPMJxzG9bl15wO3cUs1VaL+k2KPyFqQLHl8c0/aRRujSp3zQwxVUKdzCam47e3HztRz+9qTYYQNlcDw6H2C0AzEAejO919L69rhkM/JgSUdQ9VXWJ2YjOO2foU7N56OtpZ92HB7nf7vvm9mtuJRWVB/BCCXgkgbN22xZ567OUrvzmP0ns++nyEfBoP3v2dYAGGpJ8H8W8lGiGo2Sajh7xuVUgAgyCjSNBeA+H9eSvG9u7vpGsv+vtxL3CsrvvQxWQG6zPZ9S/51LiXs6oueskpWDhQc3GfxIKnzGwpbnvmZfNgFqyuVYEs0LT1gMhbzOydtz/zpBtO/suvIFkEmWI766Q428e7Lv/MuDfHOeecc6vMA17n3Ib12p8+D/cPHshDQEXF3xL1zygOQHgP3ke2vGI3mCHUlaBk5eRM9sD2Pd2Dm7Z3tiFguuoLZjIA5hW7h5flbRjMhCo1vXQ3TW7HcdvPwu75U1BkHfSrHpIOBbujqt3H8BILkEmMIeihmTnOLR4QNm/bgrOOGl/ACwBX/fa5qPcb+nNdoCpRDOxjgXiJxBpQRrAZh+XcymvOs2ASFaHwDdnEMUERRbvC9LaEq15087jX6NbA819xGg5M/SxaD/xaWHjQLMT83z3tpXP/amZLC4NePTwB8bPR7MrM0mdlEbvueABfO3kuxjxXZ7qy7kSBN7/gT8a8Jc4555xbC96D1zm3YQ2m+wj3DnPciLjsxmsPdw9ZPjwNJM0MrEtBZtXUTHbXjhMn6tmt7XnJdtSllip2SVKSDUM/v619nRuFsyRhZiirRSQTNk1swwk7z8ZRc6cgxgJltYCFwT40rRjidw1Pe0wvMdHUngHgpn0PahOAh3oL/YBhw8hxmd40iQN1D3ZwQAtUHfnSzOw+QptFVgLyYTGvH9NupQ1PnU35rqDd5IGXgfj9qkZcPMgN2Yt3I7rxQ3+P81/y26irDH/12fsBHPz5p7xw03PqpCeB/CRkV6as/nwsI65/yam47tN3Zt9+ztH1VKpSizne+uIju8LZOeeccw/nIYZzbsO64qefgn5VRwBJSe8n+SpJA5Ktca9tHRildmxapTatGOqyqdid3pLffdQJk/XUfL5DQrcuBTPzit3D0qgVQ1OxW9Z9JFWYnz4aJ2w/BzvnTgQZm8BXNZ5Axe73GN6GDlEBsMsBfqzdLuLc9i3prK3j6cM7cv2HL0bvQIWyTNGABPAUg24bthlJHKXbfoy71SABYCUqp4Xb8mritDqvEYsas3MZ3nrZTeNeoVsDF7/yLCweKLHnKROc2JSJsHMm5ooMqm4RIpQldKrI9kyma1/jga5zzjm3kfmHEufchpU6QqiBUAMg6KOTADTBroYBLQCYBWPZT7Hqp97UfHbnqedtuvuUZ26am9iU7Sn76laDBDMTeWgw3bAS1PfmOnao8rZJ7/vlQfSrBWya3IEfOvkKnH/aq7Fr8ymo0gC9wX4kJZDxYV/jib7ETe9IlBTQboULJlpCrj4X18EoqbdfcRNm5wu0Z7OUtWMQ9WUEvl4ihuGuiQwQ9IO/mnOPjUhp2A5EwU4dZAeeb9ZDPahZD7yId6O46YOfRyTRO5B09+09lP36bwx2iyTkbcaZziQmNnc1sXli3Et1zjnn3Jh5iwbn3IaVVTkGsYmSqJiJArVhRyc9rBaRpEliXRkg62/a0b5nx/ETYXIu25Iq65a9pmKXgA2zuOE9xc30tHFthPv+lr/ITUZZo6z7MBi2zRyHPTvOxrbZ4xFgGNR9qBpV7IbvefyKrIcMaBJTwOwZFz7lGPzKh79VPWfTYMWe44l482V/DAC45neea1WeEGv7jSS8QIYrQCZKmUjzA96tOAkEA6TUXC3Trxycm78xW+ir7i+Oe3VuDX3mE1/Er//5pegv1vj2bYuc2dxGjSlNtqv05ktuHPfynHPOObdOeMDrnNuwLApMw+AqgsNqwo2WTi7vsSsAQVKoBwaEcGBuR2vvzj2TqTsdt9fJ2oPFBDOMWjFQUkDTigHYcLvu8LJ8eJpUY1D3EQBsmz0eJ+w4G1tmjkUA0K8WYCZ8d4/d1SjIpppVAQIsPO3m/++bAYAFYux9eJfL2xF8IIRkMlr9CmT5vUDYKqCmlMF7TLsV1pyQJQqjsvkzJx+8/9kAPjMosuxdn35B/Y4LPznOJbo19HPP+vjot37HgHPOOecekQe8zrkNSwlgHKZIQgYCEDbK2CSNBqcBhyp2q4FAcnH+qPbdO/ZMtLvT2Za6UrvfT4DBmiFrIprdNvoCG2OPHYak4QHNQxW7g2oRZIaj5k/Cnu1nY8v00ZAJg0cIdle9xWxTmWgSVVbKhXACga/2e4N1FvAGhDYslIxCkWg8V8FuB5EJTITihq7/d6uC4PCgUimwAPFeq8K5g38MNbI+3v3xF+CqSz3kdc4555xz/kHEObeBRSRUIbM6ZBgGNMNGvEcsYVmP3aWK3SQOeimoxt5tu7t3nnHB3AN7zpo5pujyqP5i3a4rGQwahcDwYPewsBTOMiCpRm+wH3UqcfSW03D+Ga/BM0+6HPNTO9ErD6JfLsDMlnrsjh67Fm2UJQYO2z4TuAgS+ot9/N2Bz6z6cz9aV176SbSmgLxliYYQqDtgeh2bVtVRgrHpY3FEn0Dc2qMkgDkI0PRDMUtn50fXGPQSB6Ufbs4555xzruEfzp1zG1aKEe1BjVZZQ2SkBB25c8GEUVaA5nb7Jtitgxn2bj+2e8cZF8z3jzlzekdW8Oj+Yp3VpWwUAg+/Bn142vqn5kUWGZGU1Bvsg2TYvfVJuOBJr8XTT7wMs92t6JUHlgW7HD12zYLdEVImACAg4UUKEb1BjapaNwW8AIBffPln0JkpEfPMYiCQt/6rQR9Es89qSGH49vLUza0cEs07WiUCIcOvdmNEO6fKXj3u1TnnnHPOuXXCP6Q75zauGuC0wAkBQhy2aDjSaBTqoqm8DakWB4sJBjyw84SJO550wfzC7jOmjo9Z2D5YrItUKQ2DXRve4i8Pdde/YUsFkWSdKi4M9kmWePyOc3TRk16rp5/4Yky159ErD2JQ9RDCcHgaxxPsHsLApfeePfOc0/biy1/tKvbuH8Navr9rX/p/kHeJ0hRQDpDIHwZ5D6RcZI1mb457me7I0pyOyby5TIeLFms7s18LssT3/r+Xjnt9zjnnnHNuHfAevM65DYvBsK+XGwFkSNmhFg2HfZZ5KNFt8r4EIKZaqEuh1Yn3bz9pYt/WY9uTWSseXw8UBov10uNIxmFQCBwBO2OjGIbylJKKWIQTj3oad82dapPdOaa61EJ/H0bF2CQf3l93/K/yqEp829/eNr3t1BMX7jVrr8tLLt2pHKmXrBooMiEp6hkA7wSQkUhqhmKJG6Wbt1sLRoCCSoIFoPeyzi7RYlJxH/Cejz8XV15687jX6Jxzzjnnxsg/fDjnNi4TTm8TOzKgCuS6TJMem6X+uqO/IGl1pThYTBYz3rf7jOmvnnHBPHaeNLEHCNsGi3W8q91aAAAgAElEQVRIaalid/njvMfu4akJeWH1rvlT+5smtoXF3l4r6z6H/XWXDvH1VJQ9zJoTYAjSOWbC4mIZfvAj196VL7oBrYkMRQfJogIDviHqxwlBUiRppLi8dN65J4aUYAByABDwwjrWJ4mGb23by7rvh5pzzjnn3Ea3fj7dOefcWiPx72dPxs9/6YsAQwYJWEeh12Ow7NP9UsUu60rsL6aQt3n3MU+auvNJF85p+7HdEyVsHvRqpDTq1crYVHPCWzEcxiSxeR2jVVU//5O/+y3cf+BbZbc9FQJseQK07tIgkgFS3bz/eG4IGfq9Crd+5+PjXtojescrb8L8DME2zaoCqFq/DfB/Ak3MC3H0E9a629fu8ETChveYlATAwPcgGZhMpfy07Zxzzjm30flPhM65DSsCOO+er+AnTzsbwcLhej4cVew2HUyNqCvFspfqosX79jx5+qtnPHtzse2Y7rGpsm2DXg0l6ZErdj3cPZyNBuBJsjzvmJTan/vK72Ohv78q8glKaT0H+CYiUoAFXLiw9TtYTPtTb1CNe13/pF946afRZQ6GKhShhGp7LaGvU4yiKh7BExvdWFAU2PR7BqSXxxiPDiEiLdZ8519eNu71Oeecc865MfIPH865Dasm0O70MDtxALnVGQ6fKWsCDk1PI2kAWJdi2U9qdeO395w1880nXbg5zB/dPjFVmh/0akg26qs76s27ngM/9/io6a+brJV3bXGwv/iLL/8+ag1Snnc4GsKmxrjXupwRzVWHADxr8p45ZFUBysa9ru9rcipH3sqsyhGVASLOa0I45qKSgKbZsXMrgKCJDJQqkUjCe1Mm9JPQe6g/7uU555xzzrkx8g/2zrkNKyQA+wk+GGEWOMx313OiJACCRDVBXjADq4FCfyHV7cn47ZPOmfnH08+bm9q0s31c2U+by16yYag3HMDVBHw+QO2I1bywJKVk3WJSBxa/k9/y5Y8pGCyLxdIxgPV1NYNNhxRBFqAQT5QF9Pr1uuzDO/Kmy27AxEQLWxanU54YYorfNuBHmzcbIyET1t2+docvErDhGxwkXkPDFoYg3lfy5z/7o+Nen3POOeecGxP/cO+c27CMIYQiB4t8eQ/e9XhefPjwNNLCMNgtB6mcnM2+efIzZ759+nnzEzNbWydUA02XvRpmJpJNQDacYuUVuxvCUsiblNAtpnDvvq/zr27/+CCLucWYPaySd9yLHSERJKRhs5Dnk0A5GPALB24a99K+r6teeQPuPeM+YCoZBAThd0n779ZchhFH2a485HUrwgRFARUASLiONaCeLN75dbzvDy4Z9/qcc84559wY+Ad959yGFWAIlhAsAUtTkdZVBvOwxZBMo4rdsp/6U/PZnac8fdNdp5y7adPMfOuYsp9my0EyM9PwsYeqNT3Y3YiaiXsGTbRm4rfuuy3729tvWGhlXTBw3YW8gkAySYKA50jC4mIfg4X1f+v5r130f8CigLIUIgMiqp+Ewh0iIohKavqnOrcC2DTjZXNRMvBnqojJijTrMaTBuJfnnHPOOefGIRv3ApxzbmwExBQAA0DLlvLd9RGFLuVvAIKZhboUzLAwsyV/cMeJk/XUpnybknXLnmBmBsCGgV0YPg5YL1vjxmF4RIsI1ER7NvvH73y+U+TdA08+7jlTi4MDDwt5x13dTTGgaZSCADy53dyMnoqqDsC6bp0CAJjuFDi4mKwqFVPIExF+yKDvQMxBpeHwNdGHGbonigClILIilDPxl4zpXxkQbBDX/XvFOeecc86tPP+Q4Zzb0BQSxASsj/PhqJhyaXiaJJa9FKpB6s1ubd1+6rPmHjj5GfObJ6ay48qeutVAFkIYzqZaSoXXT0ztxm0pv0VoKnm/8u2/6N72rb840G1NWQhYN5W8TS8DhWEuvacPbe4HQbB13Yd35KoX34DpuTZarZgiyTrhPhleKQgEoyBbj7cJrD+js6BMUJKUoKUOF77vGhRpFEZX8v5lSGyHFHSg3s9f/oS3aXDOOeec22g8AHDObVwMCDFDiBlAxmEP3rVexaidwsMqdiVx0EshVdg/t7P99dOfPX/PCefM7O5Mxt39xapTlbJhj10bPY6Hpqf5ud0ttxTyhkB1WtPx1jv/tPuP936h1ylmsF5CXgKQSEKViTDh9ABi0KsOi4AXAN526Sdx/Y99Gu2tURFANH4IAf9leGeAIGL5RRzX0NIASZjQTAgUWDeD6hgFWHN8NFMmx73edUFNL16ClQAo6GqLAXVl6B2sx70655xzzjm3xjwEcM5tbBYwLBCMY3j2UZ9cAMOK3SQOenVQjYNbdrfvPP3ZcwdOOHtmW6sTjyv7KupSxkBxVLGLpblwfj5338+hTgyBKrJO/Pwdnyzufugfep1ielQjOyycHF/GSyqMumGTeK4E9HoDu/W+PxzXmh6XdhGRTYagLKHVbf00gr5KIYqqSNIzyocZxt8KIgSpEhlJ5aJKQX9HKAgUm/+Ne73rwnBmpkEiIJB4O0EgUOWgDr968/PHvUTnnHPOObeG/Kdk59zGlQyoa6CuYVIEiTUIXkbVukt/JhlGwW5K2L/tuImvnXHB/EPHnzl9dNHmUf3FulNXSsPhaSaJGg7Qop/H3aO3FPLGmCnGPLvlKx/L7t/3japbTDJZCsMK8DEW8tJw6OLFCxgCyn6lxcXFMa3n8Xnb8/4YWRbN6sBBr4SAZ4kEwVxSagqVN3bKOyrGVfN6J5GJUiSRs6nn/TUEayHyyQITIUpMaBLeDb3vlgiG5htBpWa3XKXaUC6kUPV9FznnnHPObSQeDDjnNqwQgVg0v0jENejQMKrYHbViYEriYLEOBjy0Y8/EHU++cH7hmNOndsUsHN1fTKwrCU2YG4EmoeOwdGtVV+qOVEudGPLYUgjM//wrH673Lnyn6hRTISnZmEPeADAM87unpWhIMQHx8JsJOzPfwlS3pSLLGRTvM9hlw3NMhGAa7udxr3OtqTmyjM2FqpqSKEUKmchKwHViyBXxxmgBgEDoJy0FkAjQ+h+4t0YEIkha1sJEv8QstZgn1SUOm9YmzjnnnHPuifOAwDm3YRkApdD8AuIqpi3fXbFrqRYHizUYwkO7Tpn42hnnzw+OPm3quBDDjsFinadaafmwtFGP1NVZnttompQ3Ic/akFLnL/7+g+Vif3/ZziceFvKOaXnDYIqBCWcwEYOF6rA79t/0/D/CO197MxayRcUIZIEfDwH/aThqTZQ2UrorLR1PDBAksiaZiYwiF0C9EUARE98BWA1YMAvE17ooTx78thF/J4kiEoA1ud1inWqOHCGoCXkrCTkJmBFm4Vlqeq54wOucc845t4Ecdh+YnHNupQQF0GLzSyQorGB/x1H4MMpmEwA2wW4KkeG+XSdNff2M8+f6O0+YOpYM2wcLNVN9qGJXEoiHDU9zbiUQwxYfUlI776JM/YnP3vaBXp3Kssg7QcOQt6m2XOMgTQoAa0Aww3khCGW/H++wD63pMlbKTKcNmQL6Nbpl+LlguI1QFFgRTddZHLmVvBo2YggUKKgmJVKRskzSPgBvRuCkWfi15rKbMW8xtENuWRHF3f1YfKWDALyWTZuLTJI1ld5H7H77bsPWPmh67opJRN1UPjNv3tH4z3nO+c3K/6SbtzCwtFH2jXPOOeecgwe8zrmNjAYwDX8pgwhRK1H1JOlQn0iSSJVifzEpZuH+3adO3n7GhfNh5ykTxwBhx6BXh1RLyyt2h48j6OdptyqWQt6kpHY+gYXe3pk/v+2DPZiVeWwFSU0l7xrHRCQDoAQQhM41EL1+lfZ+YxxzEJ+4VpGDOS0VgYuFgRHnNicG5Mt6yh5RmmpdaVhxGyAkQaKYSYgCHzDiZ2DVLIVfNRqydoyd6SJsmZ7Q9omu/dJPfhrdyRx515IMMAtflPSbkkCyfnhrgiPa6PtJAJFEVoQipVwkRP0HyqZE/QwCHnzb6z+FibxAp8jHvW7nnHPOObeGNsoPx8459z1e8bNPCb0DZTPUKWCfyClKCcN+t4+RgKbEalmxLetKqGtDp8u7dxw/sTh/dHuaDFuq0qCmwGoU6g7D4EP/dm4NjPpCKwZysdyPbbN79v3QKS/v1CqLlGotTWZbuypyE5QoZqL+QcDJALBjx+bw1KNfdlj2X33Xhy/G4ECFapBiCEwJuITQJ5pGA7Rh12PD4V+pLwBBGN4NQSRIHG2XoG8HhKtTP/+t2KphqFG0ihgnsrRr/0H8zE/85fd8wWs+8FwsHhgEAGYwBIREkaIShYjvujB2hNBwH1KQDd+CRiADAJGA8G4j3pGlUKcsAQYWeWYT7bbNdrv4ucs+Mu5tcM4555xza+hI+4HYOeceg9BMWgsRAGNzr/TjOi02lWpNuBtgYF2J/YVaRYd373ny9FfPuGC+s+WY7p66wpZBL5nSwyp2l7VhOOwDHnd4WTr+LEDtYhr37L1j5vN33DAosk5iOBTuruHUNSMYm3cjT8qAToZwWP/A8o4rbkJ7MgeydgoxIeT1HymEfycLACFJQYf9W1+jSlNQqEUFSVlzotMdAq4w2a5g4bcsEwIs5q0YNu+fSddfcdMjhrsA0J3IkWfRmEhWEaj5erPQ9KAl7Qjs0iAIgSBF1Rxefxn2K+4LuBJBgdTVTa9iMS9imO601JnLjDPycNc555xzbgPyCl7n3IZ1xRueEhYXSiOQyXCQYgtUAh5VBe+oYpfDoDbAEOpKSMlSdya7a+eeiXrT9mImhDBXDQzDfOxhYdmwsO1wT3bc4W8pxzUDe4N9Oumop/fOPPbibq88GMy0ppW8y27DzwicD4TPzGya4rknv+qwTvOu+d3nYnGhDDHR2nYMevkdfyOFs0lWEHJAwmF1TpCGrW1IwQAmQRlIUAEG/D2C3kjqBrOIUjUmWkVknqWiHZAVEVddesMPfJZ3ffC56Pdq8JgBJk++G/d/dPeXwHA6qVpiRkqH+cUxNVf7RIkGKkEEoUwEYFgIxrcp4tejjd4fCCwyTKFl3amIX3jZJ8a9Dc4555xzboyycS/AOefGJwAgNPoNHtWdvgKae48FgWQyQ6xLISWrpzdl927bM9HftL01Dwuz1SDBTIZmehBwKCTDo3ky59bI8vxWndYMv/ytvyyKrLN46tHPnlgc7A3LK3lXO+Qlacsiuxca7DP9QYkvP/R7OGXTa1bzqVdVdypHVcoqK7lgdwjJLkAIBwDkzQAyZhIOh2JeSQokKcoIliIKQBkRAOmWgHBVPXnXn8SFXShRIbcY20We2luzdO0lNz2mJ3vHK29uWjXcBvZvO1aAXgPi7wRmhEyHb2+LYbtiBlIBYt18c2Gm5gaPe2G6Fhn+S5CApu1wzNtUnhfWnipw9aUe7DrnnHPOOQ94nXMbWFAzXw1N0JqJwPfp5vg9FbvBQqhKQbL+1Kb8gZ0nTZYzm/N5MxxV9QUzAw5V7NpSBHHYZhHuCPewkHeiPZN/8c5PK4+d/Xt2njO9ONiHtQx5weZaiqiLszq/ujwg+3Z7cVWfcrVdedkNuO7Dz0P/oKkqFQEchOk5kP4EZNb04cX3PxONlwQENhe50rBXcgGoaBbLzySGN98Ti1u2pwpWbUfRYtYpunW3m6W8IN70wh9csftIutM5yrKS9YYD16D/TuEnRNaU8sOwF++w/zWNVJIYQWVBASC+SYQrk+F/AkA7z5BlIWatTFmWp6Jd4E3P++iYl++cc84559YTb9HgnNuwXvGGs0LvYGUAOgIWh3f5JgDLWzQ8bAgagGBmoSoFE8qZLa27duzphukt+bxqm6xLg5kZQGsqfeGtGNzhZPmFDJMp9Pv7e884+fLB7i1nzC6U+wwBNmxWvbohr1SLzCgdgGkaALbt3BLOPublh+WgteXe/ZHn46EH9wHsIpoBSe9jwJsHptT0H16q4l0v5wxBokhr5sGhJpQDgAXCgm6AwlV1N30+Lua4pv4s3pWdl82GrO5tr/Hey/50RRZx7Qeeg96BQQjNHRE0hNTMcFPCYTBwranObip2hx3fE8CsabobAAu3A+HKA+Hgh6bQRQgBMQ+xO91K115+47iX75xzzjnn1rF1+0Owc86tofBPnAxHQ4OayfASy4FC1U8HZza3vnX6eXN3nfyMmW1Tm7JjykVNVgOZmYk8FO4eGp7m51t3WCAOVfIGBlqrmOz81e0fz+/Ze/tDnWI6mCGMBgSu3tw1SWRkk4hNIWanK2bolfUR8T666uU3ot1pI9UVqsWD+OUt2VsE/TXBKKICtYr79jGRANMo3JXqpjWD8iaB5scs4MTWIF4SQvp8lEHB+MtTz0Y+O1HHXd0VC3cBoDtRIMszk5E1c6Usf73yAGA4cG197LNHoqanjwgxNK8xA8DMKJD8EgyXbN/3wIkW7EMpZYBCzPMYii2lh7vOOeecc+4HOiI+KDnn3OMiC1AClIilhp9CU6y2VHlrMmPZq0NdWm/TtuJrp583v/fkZ2ya60zEY8te6pQDWQihGbTWIEmsxTAq51bJUsgbY2ZZLCY+95WP5g8dvGtvt5gMpjQKeaFVSSKbry5g0FSM6qlEwKA34Bfu/P2Vf7ox6E630C6IVqvDq+6rAeOzBRmgHGJNYrgL1t7oDCgoDMu5K0pBZE4SEt4P4ZiAdDmA29kO6E614jH3noTN05s0N9vBr/zwJ3DNJX+wout626U3YHIqR14E5YMD+JFf/NRvBMMX1TQ3r9Qsbt2kvIIkyQBRQKBYiwoUCpiAYH9txvMfXMyelIAbDnZnkLcYt810MLW5nabmWnbdJZ8b92Y455xzzrnDgLdocM5tWK94w1nsHawEYArA/qbIionNuTFICtXAwBAOzO1qPbjjuAl0p+LOOlleVwIMBsCGmUKTx9AvnLkjxrJ2DdGqqhcYi4ULz/gRdVszU4NqwcgYRgHvyl/QECRWpHIJv8mIfxEQwuZtW+ypu1+6sk81Jr/44YuxeLBCXaZmxJZwIYhPAcSwb3eAtFYzxIbBqIKaoV8GsAJQjJYg4L8SeBuAByQgMiEhsjVDvfuVn16DJTau+V/Px8HFRAAKlk6LlW4drt0AhmZ25tjOxRr+K/DQpMAKUNEsioDhUwp2Zatf3tJv5zgntPE36mfdItZFZxOu/WHvr+ucc8455x4bDyKccxuaACA0E40wmm6UxEEvBdXYv2V3+44zzp/bv+fJMzuKDo/p91NelzIaRHLpIhlJeLjrjjDL2jWkkOcdq1N/4s9v+xCq1O/leSdIyUbB7ooXTjbDpygRDHyuWgYLsNG79UhwzRU3YWKqQBZbQgAU7dMyvkfW1DBLMjXnmdXeaEEKAgghAaokBknF8HX9jwiaY9LrEOwBBEOrTRYTHUzPdTS3aXKVl/dwM/Nt2IGb1YkBMdnfC/Y/QEFgLWqMRbxSU/UMNt0tUEMa7kcA4o0wnJXq9Jy8DrdklqNoxfiVScPkfLtuz7c83HXOOeecc4+LV/A65zasV7zhLPb2VxIwS+IhJaEqhZjzoS1HdR7cdny33erGHakS60oAkEiGZX15vQ2D2whGlbyIjGFxcCDMTmzde/4ZPzIBs7xKpUb9HJrLHCv2ltBwKhUpoYblRKi37tgcnnbMyw77QWvLXfu7z8XCQgl+q4POaYtY3Ie/NOAZIGtKmQit5I4d0rA1DZtqYQigCciApcmS7zXZLwXqAJFByUAa40xbnTzgHS8bb2/Yd/7ec9nb31MdBSo3MYBSAhlxqO/OGtBwLqGsychVU8ybbxIAgY9IujZG3GoiqoUBWp0ifvb8ifTqzwhveL332HXOOeecc0+MBxPOuQ1LtaAgBKo1WKxhCPft2DNxx5kXzPd2nzF1XMzCUYPFmnU1rL0i4/BW5eXD05w70hFoLmYkJeu2pvDgwr2zn/vyh/dFFinGgkvx1spWmlJNzGgAkSFeSBBVvzziLk53p3PkrQjt6nNhH8Ck84hQE8gE1KMdsUJPp2Hn5ACiyc5BSYyQMkp9Qr8EgpTeFoADwQLzIobuXIaprW3NTo0/3AWA2KISM8IyGOynggA1F+GGcy5XlYa92m149CeBzRA6MRcEEu9HwDGSrgiBt9rwrdSZ72Cu1U0/fFv0cNc555xzzq2II+5DknPOPVo/fu3Tw91fWzAEzO48rvvg1t2dQdYm676KlJqixVF/3eHvPdB1G5nQJIGKgTxY7ktHz5983w+dfMXWfr3IlOpDlbwr9F4RZBSSyAzQ+wL41la7yDcfdVz15PnzVuIp1o13feT5OHigByutOd+E8OwE+zM0ddE27A3+hHrLChAlijQACVIgEYe9YQ8KuDom/IeUAVFCljHEdhbyyUrslnj7c29Zoa1dGb/8h5dg34M9cDHAZgPK/fWtFnTacJhZ1sypW41iBg2v9dGaHsmQxJwQRILQ/y3ZtUB+P2KNnETezaPKlLJ2hnY3w5UvvmHll+Wcc8455zYsD3idcxvW//XXl+LWmx9AjAGbju28tLev+ugw2K0AZMN2DBpmVR7urkNNzAJSNHAUCDYJC/w1Ww1LIS8DebDcqz1bz7rrnBNetLNfHqRGtYwrFPIOX8RKUk7ys2WtZxPArt1bcNauy5/wxqw3V37kWdh7/72YCjsQjEghvTNYeIdgIhEkYtgG4DHsW2k4tC0Mr1QlQsRwJKTEfQDejiL9OsuAIIATWWzlUcVcYVc//49Wa3NXxLv/x/Pw0KAXA5AS7Qxa+GIz8lLWnApgWJlzgYYJeWATumsY8+Y41AziP4q4KtY6WDMgICNRW2eqbde96o9XYAnOOeecc849Mv/w65zbuAJx0VtORV4E5Bk+VlVpC8k7QOQEg4BEDEc6jW9qj/unNTV0golIkurm90uNAvw1W3mjVgFEgCaKWf7jvV/Y+aU7//SuTmtKIRwKd7UC7xlCBimABKTTWwEhj4DJjsgL1O95+Z9j1/YzEIss3D8YAFu3vlPB/mzYhjg1Ie9j+IJq+tA24S7TMPjMTKSR9wj851GaJfXrUACAmHVi4K5Oeterb1734S4AtGYyZK12shBgIX4JxH9n06qhprQix4lGxc8Em/0oSYpkU7VL6N3B1FalfxmAg0IIRUFOTZWanqfNzPuP284555xzbnUdkR+QnHPu0XjPx1+AfpXwrpfdhLf/7oXsL0iRGZSq3xHtR5ube1lBaPopNi1B/ZP6mDXDvEhB1lTqMrD5q2XlpWiCX8C8tcaqODRVysTFwYH6rOOed98JRz19e2+wL5hhpSp5JSBQCsNqzBME3DE7O8VnnfTDR2yAf+0HLsbi/gGRTBZBGBZJtiTVBLMfUKE+rDQFCRiaoWMU1DRJDvxHg12tnO/PywQFgkExtmMqLEN3tsDbLlv/we5y7/roS9A/sDeoD1NMEQr1cH5cktTsh8dxHI6C3ebCEQXIIGRN6x6UoH4xAO9jiqWyBKsRQkZMZrJuN8NbXvnpVdha55xzzjnnvpd/6HXObVhXXvpJvOtlNwEAmEEhiIgDVMpfC+B1avrv5oJqkiaKEpp/3BprxiZJMpIUUYM0ipEQBd4p6Ho2Lw4JVCLDsr6lbmUt5bchUJ3WVPaFr980/437vvRAp5hBCIcqfZ9gJS8JBAHl8AeWZwJAvz/Al75z5PYwnZ5vozM7oaybDW8msGcPLzJlgEzQ9+zX4ftDECgqQCrVBOOZIAaELxrxYpsIe6Lw/pCait28YMjyqTQ5M4Hrfuzmwy7cBYB3XP6/sTNNWpaToYopAa9HCMMUnEGPLdsVmhOOUSLEWqQoRYoZyH0QfgGmFo3Xw1BaAGPBMDnXttktLWtvnfRw1znnnHPOrSmv4HXOOQD/5qYXY9/9PVRVCvVBGaIAhhMh3gJi07Ao1EDFZkaRXyBbC8Meu2CTsBjAhKYij0CAAu4JFt4u4r/FBCjoLIB/2zxGNcBMhBGPtW+pe5RGRbqWUh3K1F8899Qr+jtmT5hbKPdbDLTmrYPHX/ze9FJNlDKBvwPajwEIO3bM2tlHv2JFN2a9ee8fXIaH9h4IVV8G4K0B+GULEsUwnB9mTfCLoObvjECCmDURuwDyC0a8adOnypsfvCDCWm20U4qxk6kTzYpOwJtefNOYt3RlXPXBi/DA3gV0F2aRTSzeisDTHmXVMzC8EDQ6ngGk5mKRiOZWgAdhdq0x/idAYC3k7SxmRbCJ0FEnFviXr/zommync84555xz380DXuecW+aaD16I/oEKqEMQaa1EVEGfEO0SwoCHTWdvejiMe81HIkGiMLotH4ISxQg0/VgF3BGkq1N38IGs10YKRJQiaAnCcSC+KjGSqiFmoozgSg1bcoc8LBRLqQylyn0XnvFazE3umFkcHLDIGEbVpo+zXYM1DVAVRd5DLexAMGzZcSKeuvtFK7ox69FVH7gIx/1D+v/bu/Mwy676vPfv+q29zzlV1dXVg1ojCAQCBDICI8fXQC6godGAMEIiBmxsEye58eMkD7mOZKEZSSAkx8RO4jx+kpgkDmACFpIwkkFIAjHEKGG4YbABMWMBRmhodamGc85e77p/nNONwIAkutXVw/fzZ9fT3WudU3W697t/+1362uZlDXuzt4Z9okNjOVqF6+STKBThsazeNO6Vqv4ySeeV0EdzkpqlVuPZcdOb6XUxG3rDS/ePUPfBLr/+TN277bs5FCW6dFxyfNqTZp0dQfjfudEz+ayJtKO7O2JyE2nHuWmO+Nvkev6wSf9t0FXVkFSV2yZKb0vosjM+uDabBQAAAB6EC10AeJCFTevUn59Rv81VqrmkqlEenh41XeBJr2UjRWcrPL3+X+s172ds22HF9ECoznYKR6OqpBp3aJzO6KI5Oim9o4yLqpTDTl2ZK1UprPy1lHR4Cm2z1Tg0DkWy/+5j7dhlIUmTTlLXnPu1id7CR//qfwwXV+69f9Bbl4rLrvYgp52zl9ahpc7PFM9ruLx0QNyknmkafeEQxaiZUyrlJEnLoWgV7irwJm0AACAASURBVMIhhcYRTnb0aoQi/GFXHz/bn3luUf1oRFK1Iq2vmp1tuvULeb8MdyUptyP9/m+8sahIucufUfhPwiHLXTjSD/3w25I1+aCRFF1EJNmNU4qQviHp5VIclpL+23QmIvd6OTWP6Ze5x60j3AUAAMBe44C4OAKAR+ry67ZqZXGsslqjrnvAaWlWJdXnhOPDlnOEiq2IiDR9Rl3iptkumASvVkTY1YoScjM5HslKKf6PXM+5/dX/89Zn/8lz5aZRP2qOmVranpQUWi49ablTtzrO2bWU7EjOX5L8BEmdFTnCyZrGYtidvn++XeQ0Hq+knNu/PekZr+71mtlNw/FSjR2TvJO6hkdWimrVCMuOlKRTlPT+/qCXD12/UI496hcfpS3tHX73z0/XtntWNerGUVN1SMdb+kR40j4t75xyvzGFXjsuzeciDXXhz7xaV3/prXkutSVnq7e+r/NefNNab+dRd97Nz9H47pSacVPLuDSqGk9fq8lTACHbTtPP7qqYVFqErJqSknSHks6Jmfn3lOVF1SqFak6zTZmrPc3O93TumTes9TYBAACAH0DACwA/xlU3nKqlxU7dsKjrxlJNqjXN1OSPpRrPSCHZLhGRNX3+VwSHj5Qtp2mHaI3w2Ire5CtVivqXqeq8hV7+6H1D67HXP17fPvPr0Qwaj3S33vRrn/2BP+yqt52tB0bbNOxGUVN1Vlan+nHJPzd5uyJFeHrwGqH8bvYDIe9wvJRm+wt3nvD0X12XlDaMy6juuCEiPbK6Bss1HCOH+1Hj8lLLpUpqjz7sCeNjjjz5UdvQ3uKq/3G60ndb3TPYlpJUuyi/o5qujkiS/U6lOD/sr3Y55JKlNIxokzccNKOLX7x/Tuv+OP/2w2foNc+7QVf86cmxsn3skupvVtU/Kjk5JofOKSbfgmNF9GSpZqnKn0xKF9x3z/L7N22eVdtf0GhlW256TUm9VrMLfV18OsEuAAAA9k4EvADwEK645oVauitU2qWcairtQqPR9tF/cNVvTR9NH4einXY9PtRBPpB2FF8mWSkUxaEScm9yHpclxfsd9XcG6n16RSPNOms846adia5pQ/221fmn/+hpxKvf+UItLo+1OhrnUJQqqareVFN6YVTXSXNyJMt+pJOkeEg7Q94cOS0PF9OmdYd9+3k/88p1xWV996CQ9xHVNkyepR9HRGvr5ry+vjAWkjaNNuvnjjrz0dvNXuTC9z1b5e6exuOilPpKo9G5Unp3p3RHo6pcJc3kPDtTSttvFG3WeafdvNbLXjMXv+cEfWTT13XYyqyO+Nqmz6eajnF4POnbVSNpx4MDH0nWubPf0v9afWzSX3/zAR33lIXc9NrS9pPaftZrT3vvmu4FAAAAeCgEvADwMFz+rpO1sthpPOpinKr7yirVZ4XiXZKkcCcrW0oRhLw/weS8LKnKMXndpDYmM51S6D1JvmCYep9ry0gL0dc2jZoU6g7dsl7nvPjGh/WXXHHdVi0vjjVadRQlH3r4A7r723NvTaFfmS6jTA9h8w8fuoRd9v2QN0UsjbbrsI1Hf+u5x5y9cVhWZ0vpHBHxSOoaJkUErnbklLyUq9dVSVsO35KOP/Ks+uhvae9w0TtO0MriUPfPH6QN2+9VStJIjXousbI+fLiKLnjFR9d6mXuFy647SUt3jbOkUnN9llU/uaPWYvp5c2sJn9+q9/FSRvr8P1nQsf/5/ib1c3fQxoHOfcn+X2cBAACA/QcXtQDwMFxy9i2aXd+o189ua6SapBTpWoePcPhv7GgcMZlG1eRUH3EA2w+wVSWHHUVWF+EUjjac5NC7VPV4S78o63O9Vpqbb6PbnLSwebY76NB1DzvclaSLX3qzZuZbNf1wTjXu/MYGSaNXudY/mJysFDnCxY7YMcaH3SYkOSKiVHm2t17fvueOwz/x5Rvv6zezJVLEzgneh/nKTzuTQ5JS0lyNfIQjazgcP3q72Att2DTQho2zOrQ+oNn5Nmbm2zh0U9bCllkfsX6WcPdB+m2jclBXoiRFF5+S9GeSFIr3JOmppUkn99r88bm50MLmfvzCdSNt2DzoNh08Q7gLAACAfQ4TvADwCLzhhlPUrXS6vyxpMBzkbtVl2Fi9EtdIPnsylBqdQ01oMqJ4AB/oNYnvJk0IVZJtOcLt5Ish2f9JKb0ul/KdmhuVJDV2vnfTIeWPX/auXV7AZdds1fLSWONhSYNDZmt311A1dedLunKyLHd2NBE7Ql6meXcj256EvSnigdX7xk9+zLO/87NHbT1yebhdtXrnJO/DqWuYHrRWPDkQ69cV8d8HM/2Y29jzzz/ml/bAdvYub7r5DP2rrXTC/iQXX3Oilu8fq9YqSXPZekqRPpUljXuh9f0mX/7KD5Q1XiYAAACwy7iQBYBH4MIzbtKl/+BW/ZtX3K7Z3Cs1au5L6qpeJun/mT4C3ITdWRGhScClA2ua15oeniYrHCq2O9s5Qq0t2fFHkjZHxD8Np+9ETVJVDNqkOteUJ80v75aFXPqymzW3vlXbjzq+aym5a1VK80bV+CeTfDmaSb1GhK0kM827G8XOupKkOjfY2N5x58cO/vzffPTrc/31Skk7w10/jNf9++O+liKf5iqtrIzS4uLio7uLvRTh7kMbzLXqt6EkqSmx5NCnpl+KmZR0eJhwFwAAAPsFJngB4Kf0putP17Z7V7TicRop137t5JqfptD/krUuZDuihp0d4QNkkte2IsJVijIpY1WjmBazSr8r+wqFHrCTUoR6TYrlgwfeWDv1otH5p71vty/qjTecopXloUbDksaLuTZ5LOd0qqT3etIoMA5H63ANRdWB8V7tKTty3FprTcvDbYvHH/2i7z7h0GcdvTK8X7XqYU3yTlpPogu7UeSv+Xuff0LMbdbBTzpOxx9x+h7cDvYlV91wqsajopBSSUqt5K5K7SDrtafv/s8aAAAAYC0Q8ALALrjq3SdradtY3dDq5FSVa4pQlT+Y5BdIkq0uIpppgCXtf+Ghp6dgRVhVYVtRZTehkOVOoddHpKtU0tDVioiorjUGM7W3cazXv/iDe2Shr/uzF2h5aSSthkqEFP4FWR+brnMcilZynVZK7G/v01qxJO0c1q2OldHi9ucec/Zdh296ytEro+1KKXYezPYTQl5Paxqya5aUNkXU+w45dHM867EvYfIaAAAAwAGLi1cA2AWvfcktmts8o8G6npYHK1VS1Gqtrq6eUGu6fNLzGo2tcYQmNQD7V12DZadJuOvOk3A3h91ExLLlS1WjDTeXWRpaNdp+Tv3Z7PnN/bpxU+yxcFeS5jfOaDA7kOYahZJC6XbV+lSnKkW0kjuHkqz0cGoD8LCEpnUNtiNSeNDMrb/9i+8+6O7Fb35t0FunUsuOKpOfWNcwGYSXVasidce5VK0sD7lZDQAAAOCAxkURAOwml1z7Qq0ujlSGju2bD/Ome76tLuoJYX1g2vdaFI6Qkh2O2Gdvsk0SOCtCro4oMTk9rQlLNbwsxYUp0h+oKyoRippzM6hu26bOre/rtaffuKYbuOxdJ+iu0Xc1u3hQUnVVrpvl9A2H5sIxdrid9CnrQKnW2BN+YJJ3XEZRa733hJ951fL8zKbHDMdLNUWuOw9m+zGTvJaH4eg7+fzkdNVgppe3HLG5PH3Li/boZgAAAABgb0HACwC70euu3aql7SN5bPWr1NVQzWWhOn1MUZ+aHLJcIiLLthXaV4LeSQuDZSnJkSLUSQpNxpQl+e5adWEz0n/qGkltSKXmGDQe9Ea1t77VRafdtrabeJBL/vwFqnfPaLU8kJ1SyUr96voVhY+Qo3iSMaZJdr1vvEf7iGkTQ67D8UpqornrxGe8WoN27uDheKlG5DT90dD0G+vBqu0yrTy5pT8z2DrYtKBB1+nnjjprTTYDAAAAAGuNgBcAdrM33HCqFpeG2jbuNL+csnMtq3leM93im6vrb0RM+l4lteGo04O99uoAcRruhh01wkVWlpSms5bfUvjcFPXtUbLaRiqRcm+m8WB1tS4Mkv7ZL310rbfwI73+nWdrceUejcddJMlJWbI/p6jHpsmwaYpwkmJ6Rhx2nT25L2DlyGl1vJQGvblvnnjcP5yPyBvH4xVH5B/Xx2vZ1ZMUuFN1K4UOOXyzjn8cAS8AAACAAxMBLwA8Sn7vnadq+/KqVrouunHjpt/JnV4R0tunWWHncA5HsvbCA9jsSQmDHSFVK0qEG1mqSlLSF1L1JV3X/7OmN1LTy+q3TR7MRXntL96sN733RfpXp61tFcPDcfF1L9Bo0SqjmqVUltxqXqMPSOmEEpYcNWLSybvXvUf7rp19uzlyLA8XNT+7+UsnHvfqQ6u7+XEZ+fulvT8c8k6+McOWlB4r6c6FjevSc57yiroG+wAAAACANUfACwCPoiuuO0kr2zsNhzWlVrUWKdmPq6HbJR0amlY2OPK071Va4wBxMq0raVIUXEMaW+pJVqpSTfFp1Xrx8vqD3zO3/S65hHJT8sy6vi9/xa37ZMh2yfXP12i7VVZrrjXKl/vWk0bxDoV/aVoJWyKUp93JEiHv7vBDIe92bVp/xGdfcOyrnjAqK3OldCUi8t8NeV0n74OzpN+Q9F/7g37ectjB5elbTl2jrQAAAADA2uECFQAeRRe/9FbNb5rRwkG9OtcLtW0k1fQNNz4sHNfb1iTcdRfSZChxehjVGrDtOlmHkyO6sJPtXrhKik8mxwmHLNZnNiW9R9qmth95bkOjDQf1y4Yt7T4Z7krS5Wd+SHPzPbX9KCk5njQOqerllv7d9DS5bKsodmTwa/Ye7U92HqZWXDzbW697tt/59I/dce2XB83McqTI077dsL3z9banPykOWXp+rUmrK6NYGi6t4VYAAAAAYO0wwQsAe9DFbztZK0vDPG7Gpa8ZFXevkdIfhC0rugg1Ox5A1565CedJranS5Egry4pxSD19/3SxD6nUc0safrytA13ztFYv++tx43XRHVIbnfOqW/bAMveMK649WSuLY41GjlJW3DbzKi6XSnqdJIVUHM4x6eSd/hJ2kT0dk44UsTy6X084+Gf/z/FPOv2YleHiwNV1ctjdgyZ5rbHDbarpc4Ph7NOTpA1HzulnH/+SNd0IAAAAAKwFLkwBYA+anW/U9qLkmmMwknJX/63kZ0qxrHAznVisOwIvPbqToracpimuQ+7sSGH3bMvSTaF0bFldfkENfzyF1PQVv/It6aD1c92hs+v2q3BXki4+6xbNzPfU9MIRM6nXs3JTLlP4tybht3NInaVgiHe3iZ03NJI801vQV777qeM+9/UPfXmmv36c0s7+4x2TvNWanEpYpZ9Z6S/PL/eXVaLyfxoAAAAAByQmeAFgD7vs2pO09MBY42FRLkpqUrWSUk0fS1W/UCVFuJOjcbiGoyp26w25HXlZ1eTJ906K1iHFpBb1nbYvbnJzR1eLxtvuUW9hY36yX1G+vuUtuvKs/70bl7J3uvzak7V0f6du3KmqSspK8kuluFaThoDOUqMIT18zwsVdtzPHrdXxwHD76PijXvjlo4/4+aeuDO9PtU5uRUyG3ZXCYYezHD+v8Mc3bFgfz33yy0ndAQAAABxwuCAFgD3s0rNu1cYts5rd2Fd31EFVNUUqSZu2fPvZSrpqWpPQODQOKzmUtOvTvNPf7zotMS2SO0ckRbSefPmtKemxsl5eU70jpapUFesOPVyDDf1y95HvOSDCXUm65KxbNLfQ12CQJ9l6SJHTdSGfME0Ym4gYx+S13PH+YFdYmg7pRkpR5/rre5/66k2P+Zvv/dUdM70FKU2idUkx+blwDYcifJIcWlnu9IV73r3WuwAAAACAPY4JXgBYQ2+4fquW7p90vkrZtRZJOi3kv5Akh0pYYSn9tL28npb6hl2t8GRM160c04ldvblEXNQo/W1VUc5Z7WzOq6Ou9HuhwWyri158827d977i9963VcMVq1ld1n1lkEartTbqnmXFJ+vkZR1bamVXSXVnRyx2xc4J81K7tDpc+u7zjv3lbYdsePxTlkbbldMkBA5F53CTHB9OUZ5fa+g5z/yqNvSvXOv1AwAAAMAeRcALAGvs9decopXloYZDp2rVSFKqPsgpfaSGjgknSS6OyJPhXkkPHfROJ0qdLGnyOLsccjs5Vi0UoT9M9oVd5O3hoogcVaUO5vv1ipff+mhueZ906Z8epaWlxym7qGQfkZy+aGkupLEiWttVihq7t07jwDP9Ht8Z8pYuDbvlb5543K+vblh36JOHw0WlyHV6MluuEStDpdlas444bKP+ryN/ca13AAAAAAB7FBehALDGLnrZTVq/ZaC5hVwH80k1lJXS3f3oPzVJb3FYjsghjydDt07+CZUAk4OonDyp1C1h2eEcVjv9Tb+Xqwa2/kWVtktObT9HmpdnNvfr/Obentr6PmV285EKbZi8P0rfShGHRcR3HWpldVKkaSUvdQ27YhqQR4Rsp5wb95rBkbd99m1peeX+L/baOdmlToalQ5JneipH99NQ4+Ey/68BAAAAcMBhghcA9iKvv2arlpbGGg+7iGhcSlGk9GuS/8QKTULeaKbdvJY0bYidHJcWdiiiWnLI1Y5GkiZZmS6t4asa165EVrVSlqXBoA7W93XFmTeu5db3Cf/67S/U/atjrZRxhMMlksL+a0V6arU6STnCaUdX7Fqvdx9nacckb/Z4vBKRmy++8Jn/OOfcHj0ar9SIXGw1KfxrcrylP9NrN2557PhZh79gjZcOAAAAAHsOF58AsBe56GU3a3Z9q/4gW3bqUkjyf1etT47wvY5ow9bkgCnFpE5X1VYKOxzqbDvsbEcT4SWFfqc45ZBeHzW6qoimn9PCQlNnDxrUjZuCcPdhOveV71ez0KjtNZZqSFLXpaelWm+PcBNStVSnRRpM8u6aB03yFrXtjLoyesptn3nbSDV9o8n9ZLtESEl6tpW0sjIuUe5Z63UDAAAAwB7FBC8A7IWu/otTVFaLumGn5a6msuoaucqOv7B82uR4NHeahLhVijI580uhKlm6N5IukMt/tLKSpF4/5abf1Plq93qh15xNz+5P64rrtmppcaxuVLJrlFR6UrN6g5ReNMl1o8pKEbbEwWu7aDqcbufIsTxc1KZ1h372hON+9ZBRt3pwVzpFxGdD6ThJOuiwTTr+sWeu8ZIBAAAAYM8h4AWAvdxF15yklfuGOULFQ0ltnBfVV03KGTyyo5WcIiRbdyrFpdHzf/EoFNXKgya3bZTBxlYXnnrTWm9nv3HZNVu1Mq3TyLU6moFKGf+x5H/kSXFGCTs74sFVGvjpfD/kTTmWRvfr0A1P/P/+72Nf/viV4QMbXYuycrKqDjl8czr+yDPrWi8YAAAAAPYULjYBYC83WOipnWmKq6JxT5F0tUPPdmhkqxfVSVVfr6X+cigeG6H/UhySlNt+TjG/UK545QcId3ezS192s2bXN2oH2Y4U9zX3aGnc/8dD59+NkCbhrkpIMWlIprJhF4QkR0SUWjzbW6/v3PulZ97+xeu/MjOYH0YKldo9q6poZWWVm9cAAAAADigEvACwl7to63s1O9eo12vdzY4UlhrH7ZK2RMS7ZL2s/oNjjkrS28fJavuR5+ZaLWyZKesP7tcrX/rutd7CfuuSl96i/nyj3G/cW1mf/sNv3ax2pPMsneMIhZRtdxGTsgYR8u6KnSGvq+vcYEP6xl2fe8anvvLev5zpr1eNdGZOWcNhl+6455a1XisAAAAA7DFMuQDAPuKNN5yiu7xdd/ZW9IRvrI8u27IUtcrrBooHVnMeNCXyrK581XvXerkHlMuuP0mL91Z1IyeNRrWZCdWkX5b1tml1RqeIJuyqiCpusO4KSw4piqry9tV7th3/hFO/e8xjnnOnkk7+3v1/k4554lPqsYefttbrBAAAAIA9goAXAPYx//6dL9bi0lDbY5jGw6JIijzTeqZRnZ1vdO6Lbl7rJR6Qrr7hVC0tjTUallSHrk6Si09Tir+Y1CVr7HAbjjo5Co+Q96diWaGwXSNi7OrecLSsow497mP/9NR/95xIoc/fd1M6/oiz6eEFAAAAcEAg4AWAfdS/vulFWl0eyUXqDbLOP+N9a70kSLr4T0/U0uJQTROqtUrW8ZI+4QiF1TnchCeNDZMWBzwky570GicrFKFiKSRHUlItZfmeB779m//1t7/2lpSSrv/01TrzGeet9aoBAAAAYI9o1noBAICfzrmn3LjWS8CPsLClr6YfKktjjZViPKyfjFQfH9ZXNQl3O8tNREiTTl5C3p/AthURYVVHFMlZVhMpJOmbrvXChcGGt961+C1J0kc+d73uT19d0zUDAAAAwJ5EwAsAwG50ztbv9x//vx84wf07FaPV8o2IOEiOr9XwQiiK7VBEBCHvjzKZcJZDEUlW51CE3UhJNekrqdbXxrB3Te2PtdQt6aDNh2dJpZmR+rVd6/UDAAAAwB5DwAsAwKPk90/8oC54x/Mdo5Ql3dcpbWocX5L8BEWUmIa8moS8EkGvZcsRKSZnCI4i3JPUSElW+nzYFyxt2nT9um33qbaWQjlalYP7XUmJ5ikAAAAAB54D/UISAIBH1cx8UtO6JNemqcUl6YlWfCLkbEW1VaVpKe8ByrItVdnhiCS7OCJFRM8OOeLTdnph7bVPy07Xf+HYjWr7kQcbIm3aPFc2b5rX+S//+FpvAwAAAADWBKMuAAA8yq689kQtLXYajmpOSsWpSvKNyTo9RaqWJCtFxAE1yetpT4XDdVJUEeOwe4qQJhO8/1MpLtrQ3n/bttGC1CY1qyWPNrflSd/p6bdec9NabwEAAAAA1twBcQEJAMBauuCsD2jdukb9XhRVZ7no8N7RL6qKt8qR5EgR017eif16nteTbPdB4W6MY1LL0HOErPqRmtLfy4OZv5+qbxsOGykp2py0qT9bjmxnCHcBAAAAYIoJXgAA9pArrj1ZS4tjjYeOqvDs7FjjUfv7dvmXthShYkUO29Nu3v2KJ10UyREppGK7hqJRWLYU0i010jk9NZ8e1k55bkZ5tNqkQb/r90NNP3Th6e996L8IAAAAAA4gBLwAAOxBl197spYXO6koXf2W2+o5v3Ki7NF5UlylkMIqDufQflPX4Emyq+nBaaGQO0ttRMjVUtWNVencJqfPl1rVU9aolug3sp74GF35vLev9R4AAAAAYK9FwAsAwB52+bWnaLzSabxaUkm5Jg1VO/0jSX88qaKNznYToclc777KthTJ4RSO4pBDbq2QJlHvu5x0XpvrV4arVTkn5bbJTV+lP2jUtEkXnPH+td4FAAAAAOzVCHgBAFgDV/75SVra1qkbjeXUqtSkRt2ZVXHdtKFhbLkNhx1W7ENBrzXt17XrdCq5c6gNSXLI4bep6qIc8fVSrLZXNVpNseV59zl96TF67Uvo1wUAAACAh4uAFwCANXLlDadouLiq4ahqPAzlWlVyfXZYfzktM+gUbuyoEarau+sabFuhSNM6hiKFLbXTkFeS/sTSuVn6XpeqBoOsyCl6g9YljdXrNbrwRTev8TYAAAAAYN9CwAsAwBq78tqTNNq+qgdWmlCWk+pTFPqCZYVjrFAruypirwx5d1Trhl0d4bDscCtJMalj+I/Jurhkfy9Ko14/lPoRxzxxi1/1996xxqsHAAAAgH0bAS8AAHuBi284WQtP/LK+85HHpVCpjjhI1lcitN7WOEKt5Rraa0JeW1LIyQpNQl057NYhhUOWfz9ClxZrMSvkXCI517wQ9epfum2t1w8AAAAA+4W94QIRAIAD3hVn3KLur4+RZ13rpG/37lrrFlvfjnArq5NCssOS13i5tpQmeW6UsK1wDu84QC2uVtUgov52ciwqRWr7EQvtOm9e6NdDNqxb4+UDAAAAwP6DCV4AAPYib3jPVi3dN9ZwNBmBTUqqUf9K0tNCthUp7OSQ9/DBa5Yk2xERVZO11JCbyShvSNZlNfz6xrUrylJ2hKOqTXV2Puuysz+wB5cLAAAAAAcGAl4AAPYyr//zrVreNtJwteRQLatq1Ch9sKq+oFWRIqrtFJKnGe+jGfTuCHbT9AC1TnaSIocsR4ySdWnJvqrpQjWkVGvkmab2QnVmMFDTD517xo2P4hIBAAAA4MBFwAsAwF7oiutO0tLiWN2o5pFSuWTzh3XFPc9/V6N6lmyFVBSRPRmplXZ/yOvpIW/hcJVVFFJYzSRU9ooUF1t6U0y/OMiRm5lc56vd64Vec/atu3lJAAAAAIAfRsALAMBe6tLrT9Tq9qKVoSJF8oZ7Oi1t0h8mxz9zSLJL7P6Q19OR3RQRsuxwSKEsSZbuU9WFOfRHtUq5DfV7KcegdcyXevHJhLoAAAAAsCcR8AIAsBe79LqtGi6OVYYlmtr3MIZKtV6iqssiQrY7RTSTg852rZPXmpya5ogaUrEdoYgaVbK+l5TOd05vDktKRbby7HzfV7zy1rqbtgsAAAAAeIT25OEsAADgEbrspTdr3bq++m3jsYZpZt06ZaXLJf1z25qGu910hNf2ZAD3EbC8o45ByRFd2NV2EymiJn9XTr86rMODa9Q3J0lKym0va3ahVzZs6RHuAgAAAMAaYoIXAIB9wBvfeYq2L61qNO5Sk9vqYkl+qaRrHVI4OstNRFRJVQ95E9e2YhrqOoWjcyiHnRyhqP5qVVywPNu8Y251rNXxSP2ml5tetpqu9mezLjvzQ4/+xgEAAAAAPxEBLwAA+4g33niKlu4fqVsdaVx7UrXC5flS3OawwjGW3E4rFn5MyGvboQiHrRoRxVajsFJNqkp3ONXfbrJvTCVre6ra2EbOveRev6ltP+v802/a43sHAAAAAPxoBLwAAOxjXv+u52m43VqsUpSqnPJxlj8tSXJ0ITdW1Ijvh7zTWDdNzkuz7CiSGsnqD7JqTZ+R0u9s2bb9pjvn5pQmgXF2P5eDI+u8X7llDXcMAAAAAPhx6OAFAGAfc9HZ2yuvAwAABnhJREFUH9bs/IyOWB0oKYVcP1Mdj5VjJeTGEeMIJ03+nbes6QFslqSxHSnCTQorIj5Rq05446/f9oyafNP35iRVRa/JacOmXjnysAHhLgAAAADsxZjgBQBgH3Xxdc9WuV8aj5tcVUtVzKvqSxE+xI5OUo5wsqLKLtMD2Sb/+ld9rCr99qj69rlBoy2jrKXN0RT1uqZYMSNdcMb71nqLAAAAAICHQMALAMA+7A/f/gv63mqj5S5FcnJJUoT/StLTLHVy1JBbRUi2HHGLqs5xv366WbWGlvo5Ynau9WW//IG13g4AAAAA4BGiogEAgH3YP3/l7ZqfazXoJTsUklVUj63WR0OpiXDrCFl6r0NP6420NcKfborVzkTetHGgdZsHntvSX+utAAAAAAB+CkzwAgCwH7jiupO1vL3TaOiUotaV1VkNeks3SNFI+s1+l74+bKuarlNpI9J3NnvuuGW97iU3r/XSAQAAAAC7gIAXAID9xBXXbtXSYqcy7iKpdb/pqfOiVmvWXIRGWdHvZ7fuNDvf6pwzODwNAAAAAPZ1VDQAALCfuPism7WweUYzc323vUhv/sz7lNJIbS/y3797Qb/7a7d53UEDXfLKDxHuAgAAAMB+ggleAAD2Q7/33tM1XC2SktKg6oLTblrrJQEAAAAAAAAAAAAAAAAAAAAAAAAAAAAAAAAAAAAAAAAAAAAAAAAAAAAAAAAAAAAAAAAAAAAAAAAAAAAAAAAAAAAAAAAAAAAAAAAAAAAAAAAAAAAAAAAAAAAAAAAAAAAAAAAAAAAAAAAAAAAAAAAAAAAAAAAAAAAAAAAAAAAAAAAAAAAAAAAAAAAAAAAAAAAAAAAAAAAAAAAAAAAAAAAAAAAAAAAAAAAAAAAAAAAAAAAAAAAAAAAAAAAAAAAAAAAAAAAAAAAAAAAAAAAAAAAAAAAAAAAAAAAAAAAAAAAAAAAAAAAAAAAAAAAAAAAAAAAAAAAAAAAAAAAAAAAAAAAAAAAAAAAAAAAAAAAAAAAAAAAAAAAAAAAAAAAAAAAAAAAAAAAAAAAAAAAAAAAAAAAAAAAAAAAAAAAAAAAAAAAAAAAAAAAAAAAAAAAAAAAAAAAAAAAAAAAAAAAAAAAAAAAAAAAAAAAAAAAAAAAAAAAAAAAAAAAAAAAAAAAAAAAAAAAAAAAAAAAAAAAAAAAAAAAAAAAAAAAAAAAAAAAAAAAAAAAAAAAAAAAAAAAAAAAAAAAAAAAAAAAAAAAAAAAAAAAAAAAAAAAAAAAAAAAAAAAAAAAAAAAAAAAAAAAAAAAAAAAAAAAAAAAAAAAAAAAAAAAAAAAAAAAAAAAAAAAAAAAAAAAAAAAAAAAAAAAAAAAAAAAAAAAAAAAAAAAAAAAAAAAAAAAAAAAAAAAAAAAAAAAAAAAAAAAAAAAAAAAAAAAAAAAAAAAAAAAAAAAAAAAAAAAAAAAAAAAAAAAAAAAAAAAAAAAAAAAAAAAAAAAAAAAAAAAAAAAAAAAAAAAAAAAAAAAAAAAAAAAAAAAAAAAAAAAAAAAAAAAAAAAAAAAAAAAAAAAAAAAAAAAAAAAAAAAAAAAAAAAAAAAAAAAAAAAAAAAAAAAAAAAAAAAAAAAAAAAAAAAAAAAAAAAAAAAAAAAAAAAAAAAAAAAAAAAAAAAAAAAAAAAAAAAAAAAAAAAAAAAAAAAAAAAAAAAAAAAAAAAAAAAAAAAAAAAAAAAAAAAAAAAAAAAAAAAAAAAAAAAAAAAAAAAAAAAAAAAAAAAAAAAAAAAAAAAAAAAAAAAAAAAAAAAAAAAAAAAAAAAAAAAAAAAAAAAAAAAAAAAAAAAAAAAAAAAAAAAAAAAAAAAAAAAAAAAAAAAAAAAAAAAAAAAAAAAAAAAAAAAAAAAAAAAAAAAAAAAAAAAAAAAAAAAAAAAAAAAAAAAAAAAAAAAAAAAAAAAAAAAAAAAAAAAAAAAAAAAAAAAAAAAAAAAAAAAAAAAAAAAAAAAAAAAAAAAAAAAAAAAAAAAAAAAAAAAAAAAAAAAAAAAAAAAAAAAAAAAAAAAAAAAAAAAAAAAAAAAAAAAAAAAAAAAAAAAAAAAAAAAAAAAAAAAAAAAAAAAAAAAAAAAAAAAAAAAAAAAAAAAAAAAAAAAAAAAAAAAAAAAAAAAAAAAAAAAAAAAAAAAAAAAAAAAAAAAAAAAAAAAAAAAAAAAAAAAAAAAAAAAAAAAAAAAAADzI/w96XdLJeIJejwAAAABJRU5ErkJggg==;" vertex="1" parent="P99eA3lHoIs5ANnfDtM8-22">
          <mxGeometry x="-8.279999999999973" y="15" width="176.55" height="100" as="geometry" />
        </mxCell>
        <mxCell id="P99eA3lHoIs5ANnfDtM8-15" value="MyRole" style="text;html=1;strokeColor=none;fillColor=none;align=center;verticalAlign=middle;whiteSpace=wrap;rounded=0;" vertex="1" parent="P99eA3lHoIs5ANnfDtM8-22">
          <mxGeometry x="50" y="110" width="60" height="30" as="geometry" />
        </mxCell>
        <mxCell id="P99eA3lHoIs5ANnfDtM8-24" value="" style="endArrow=classic;html=1;rounded=0;exitX=0.5;exitY=1;exitDx=0;exitDy=0;entryX=0.464;entryY=-0.005;entryDx=0;entryDy=0;entryPerimeter=0;" edge="1" parent="1" source="P99eA3lHoIs5ANnfDtM8-2" target="P99eA3lHoIs5ANnfDtM8-7">
          <mxGeometry width="50" height="50" relative="1" as="geometry">
            <mxPoint x="330" y="430" as="sourcePoint" />
            <mxPoint x="380" y="380" as="targetPoint" />
          </mxGeometry>
        </mxCell>
      </root>
    </mxGraphModel>
  </diagram>
</mxfile>
